<svg xmlns="http://www.w3.org/2000/svg" width="144" height="48" fill="none"><rect width="142.8" height="46.8" x=".6" y=".6" fill="#000" rx="6.6"/><rect width="142.8" height="46.8" x=".6" y=".6" stroke="#001F36" stroke-width="1.2" rx="6.6"/><path fill="#fff" d="M29.646 24.916a6.426 6.426 0 0 1 .873-3.146 6.62 6.62 0 0 1 2.32-2.346 6.81 6.81 0 0 0-2.359-2.05 6.992 6.992 0 0 0-3.049-.803c-2.274-.233-4.48 1.329-5.639 1.329-1.182 0-2.966-1.306-4.888-1.267a7.327 7.327 0 0 0-3.517 1.024 7.108 7.108 0 0 0-2.543 2.583c-2.62 4.429-.665 10.937 1.844 14.517 1.256 1.753 2.723 3.71 4.644 3.641 1.879-.076 2.58-1.17 4.849-1.17 2.247 0 2.905 1.17 4.864 1.126 2.016-.032 3.287-1.76 4.498-3.53a14.356 14.356 0 0 0 2.057-4.09 6.444 6.444 0 0 1-2.874-2.328 6.218 6.218 0 0 1-1.08-3.49Zm-3.701-10.7a6.343 6.343 0 0 0 1.51-4.616 6.77 6.77 0 0 0-4.345 2.195 6.098 6.098 0 0 0-1.228 2.072 5.996 5.996 0 0 0-.321 2.373c.84.009 1.67-.169 2.43-.52a5.534 5.534 0 0 0 1.954-1.504Zm18.205-1.914h2.483c2.146 0 3.19 1.276 3.19 3.591 0 2.315-1.054 3.607-3.19 3.607h-2.484v-7.198Zm1.196 1.007v5.184h1.155c1.424 0 2.094-.86 2.094-2.584 0-1.735-.675-2.6-2.094-2.6h-1.155Zm8.264.522c1.455 0 2.473.944 2.473 2.51v.723c0 1.619-1.018 2.53-2.473 2.53-1.477 0-2.484-.9-2.484-2.525v-.723c0-1.524 1.023-2.515 2.484-2.515Zm.005.944c-.833 0-1.308.696-1.308 1.63v.622c0 .933.443 1.624 1.308 1.624.854 0 1.292-.686 1.292-1.624v-.623c0-.933-.459-1.629-1.292-1.629Zm11.064-.849L63.213 19.5H62.02l-1.166-4.113h-.031L59.679 19.5h-1.197l-1.529-5.574h1.26l.897 4.25h.053l1.123-4.25h1.102l1.155 4.25h.053l.912-4.25h1.17Zm1.16 5.574v-5.574h1.15v1.002h.057c.143-.438.549-1.086 1.677-1.086 1.124 0 1.878.622 1.878 1.893V19.5H69.43v-3.422c0-.85-.443-1.24-1.102-1.24-.865 0-1.319.665-1.319 1.566V19.5h-1.17Zm6.534 0v-7.578h1.17V19.5h-1.17Zm5.189-5.669c1.455 0 2.473.944 2.473 2.51v.723c0 1.619-1.018 2.53-2.473 2.53-1.477 0-2.484-.9-2.484-2.525v-.723c0-1.524 1.023-2.515 2.484-2.515Zm.005.944c-.833 0-1.308.696-1.308 1.63v.622c0 .933.443 1.624 1.308 1.624.854 0 1.292-.686 1.292-1.624v-.623c0-.933-.459-1.629-1.292-1.629Zm5.5 4.81c-1.081 0-1.824-.665-1.824-1.704 0-.986.685-1.65 1.972-1.65h1.408v-.523c0-.638-.406-.938-1.05-.938-.632 0-.917.263-1.007.633h-1.113c.069-.934.77-1.561 2.157-1.561 1.192 0 2.178.495 2.178 1.882V19.5h-1.112v-.723h-.053c-.248.428-.733.807-1.556.807Zm.364-.908c.664 0 1.192-.453 1.192-1.06v-.6h-1.224c-.68 0-.98.342-.98.806 0 .58.485.854 1.012.854Zm5.964-4.825c.786 0 1.387.348 1.603.912h.058v-2.842h1.171V19.5h-1.139v-.891h-.058c-.169.564-.838.965-1.65.965-1.282 0-2.115-.913-2.115-2.384v-.954c0-1.472.849-2.384 2.13-2.384Zm.327.96c-.78 0-1.265.58-1.265 1.592v.612c0 1.018.49 1.598 1.292 1.598.79 0 1.307-.575 1.307-1.524v-.844c0-.86-.564-1.434-1.334-1.434Zm8.933-.98c1.456 0 2.474.943 2.474 2.51v.722c0 1.619-1.018 2.53-2.474 2.53-1.476 0-2.483-.9-2.483-2.525v-.723c0-1.524 1.023-2.515 2.483-2.515Zm.006.943c-.834 0-1.308.696-1.308 1.63v.622c0 .933.443 1.624 1.308 1.624.854 0 1.292-.686 1.292-1.624v-.623c0-.933-.46-1.629-1.292-1.629Zm3.976 4.725v-5.574h1.149v1.002h.058c.143-.438.549-1.086 1.677-1.086 1.124 0 1.878.622 1.878 1.893V19.5h-1.171v-3.422c0-.85-.443-1.24-1.102-1.24-.865 0-1.318.665-1.318 1.566V19.5h-1.171Zm9.292-5.537V12.57h1.144v1.392h1.25v.918h-1.25v2.958c0 .606.227.775.854.775.158 0 .369-.01.459-.021v.896a6.906 6.906 0 0 1-.749.048c-1.355 0-1.724-.485-1.724-1.603V14.88h-.849v-.917h.865Zm3.87 5.537v-7.578h1.166v3.006h.058c.121-.396.575-1.086 1.693-1.086 1.086 0 1.861.627 1.861 1.898v3.76h-1.165v-3.417c0-.85-.47-1.245-1.134-1.245-.839 0-1.313.66-1.313 1.566V19.5h-1.166Zm8.707.095c-1.519 0-2.463-.933-2.463-2.505v-.754c0-1.582 1.034-2.505 2.394-2.505 1.398 0 2.384.97 2.384 2.505v.654h-3.618v.274c0 .802.475 1.392 1.297 1.392.612 0 1.034-.29 1.113-.638h1.145c-.069.643-.749 1.577-2.252 1.577Zm-1.303-3.37h2.473v-.074c0-.838-.49-1.397-1.234-1.397-.743 0-1.239.559-1.239 1.397v.074ZM45.847 37.5h-2.436l4.957-14.396h2.679L55.993 37.5h-2.531l-1.276-3.987h-5.052L45.847 37.5Zm3.87-11.907h-.094l-1.951 6.085h3.976l-1.93-6.085Zm13 12.065c-1.445 0-2.542-.685-3.132-1.708H59.5v5.252h-2.34v-14.85h2.278v1.635h.084c.612-1.065 1.751-1.783 3.249-1.783 2.5 0 4.282 1.888 4.282 5.221v.991c0 3.312-1.761 5.242-4.335 5.242Zm-.538-1.93c1.487 0 2.5-1.192 2.5-3.438v-.78c0-2.163-.95-3.397-2.542-3.397-1.635 0-2.658 1.33-2.658 3.386v.79c0 2.11 1.034 3.44 2.7 3.44Zm12.44 1.93c-1.444 0-2.541-.685-3.132-1.708h-.084v5.252H69.06v-14.85h2.278v1.635h.085c.612-1.065 1.75-1.783 3.248-1.783 2.5 0 4.282 1.888 4.282 5.221v.991c0 3.312-1.761 5.242-4.334 5.242Zm-.537-1.93c1.487 0 2.5-1.192 2.5-3.438v-.78c0-2.163-.95-3.397-2.542-3.397-1.635 0-2.658 1.33-2.658 3.386v.79c0 2.11 1.033 3.44 2.7 3.44Zm9.724-2.225h2.342c.105 1.244 1.202 2.31 3.238 2.31 1.867 0 2.974-.876 2.974-2.236 0-1.097-.738-1.688-2.278-2.057l-2.363-.59c-1.856-.433-3.522-1.54-3.522-3.882 0-2.753 2.404-4.26 5.2-4.26 2.794 0 5.125 1.507 5.178 4.197h-2.3c-.105-1.224-1.044-2.236-2.91-2.236-1.646 0-2.764.78-2.764 2.12 0 .938.654 1.613 1.994 1.92l2.352.58c2.162.527 3.807 1.55 3.807 3.997 0 2.826-2.289 4.419-5.548 4.419-4.007 0-5.347-2.342-5.4-4.282Zm13.801-7.151v-2.71h2.3v2.71h2.172v1.877h-2.172v5.949c0 1.213.453 1.55 1.708 1.55.2 0 .39 0 .527-.021V37.5a7.829 7.829 0 0 1-1.107.074c-2.71 0-3.46-.97-3.46-3.206v-6.139h-1.54v-1.877h1.572Zm10.795-.19c3.206 0 4.947 2.257 4.947 5.295v.896c0 3.143-1.73 5.337-4.947 5.337s-4.967-2.194-4.967-5.337v-.896c0-3.027 1.761-5.295 4.967-5.295Zm0 1.878c-1.74 0-2.605 1.423-2.605 3.448v.855c0 1.993.854 3.459 2.605 3.459s2.595-1.456 2.595-3.46v-.854c0-2.035-.855-3.448-2.595-3.448Zm6.924 9.46V26.352h2.342v1.466h.084c.285-.696 1.118-1.624 2.669-1.624.305 0 .569.02.791.063v2.067c-.201-.053-.612-.084-1.002-.084-1.878 0-2.51 1.16-2.51 2.658V37.5h-2.374Zm11.565.19c-2.984 0-4.883-1.972-4.883-5.274v-1.128c0-3.111 1.856-5.126 4.788-5.126 2.975 0 4.768 2.088 4.768 5.231v1.066h-7.246v.263c0 1.878 1.012 3.122 2.605 3.122 1.192 0 2.004-.59 2.289-1.55h2.225c-.337 1.803-1.793 3.396-4.546 3.396Zm-2.573-6.866h4.957v-.021c0-1.582-.981-2.827-2.468-2.827-1.508 0-2.489 1.245-2.489 2.827v.02Z"/></svg>