<svg xmlns="http://www.w3.org/2000/svg" version="1.1" xmlns:xlink="http://www.w3.org/1999/xlink" xmlns:svgjs="http://svgjs.dev/svgjs" width="956" height="956"><svg width="956" height="956" viewBox="0 0 956 956" fill="none" xmlns="http://www.w3.org/2000/svg">
<path d="M42.4264 347.074L259.074 130.426C282.505 106.995 320.495 106.995 343.926 130.426L387.074 173.574C410.505 197.005 410.505 234.995 387.074 258.426L298.426 347.074C274.995 370.505 274.995 408.495 298.426 431.926L435.574 569.074C459.005 592.505 496.995 592.505 520.426 569.074L674.75 414.75C688.695 400.805 688.695 378.195 674.75 364.25C660.805 350.305 638.195 350.305 624.25 364.25L520.426 468.074C496.995 491.505 459.005 491.505 435.574 468.074L399.426 431.926C375.995 408.495 375.995 370.505 399.426 347.074L614.074 132.426C637.505 108.995 675.495 108.995 698.926 132.426L913.574 347.074C937.005 370.505 937.005 408.495 913.574 431.926L520.426 825.074C496.995 848.505 459.005 848.505 435.574 825.074L42.4264 431.926C18.9949 408.495 18.9949 370.505 42.4264 347.074Z" fill="black" stroke="black" stroke-width="20"></path>
</svg><style>@media (prefers-color-scheme: light) { :root { filter: none; } }
@media (prefers-color-scheme: dark) { :root { filter: invert(100%); } }
</style></svg>