<svg xmlns="http://www.w3.org/2000/svg" width="144" height="48" fill="none"><rect width="142.8" height="46.8" x=".6" y=".6" fill="#000" rx="6.6"/><rect width="142.8" height="46.8" x=".6" y=".6" stroke="#001F36" stroke-width="1.2" rx="6.6"/><path fill="#EA4335" d="M21.366 23.354 9.708 36.007c0 .003 0 .006.002.008.358 1.374 1.584 2.385 3.04 2.385.583 0 1.13-.161 1.598-.443l.037-.023 13.123-7.743-6.142-6.837Z"/><path fill="#FBBC04" d="m33.16 21.2-.012-.009-5.665-3.358-6.383 5.808 6.406 6.549 5.635-3.325a3.235 3.235 0 0 0 1.659-2.838c0-1.22-.662-2.28-1.64-2.828Z"/><path fill="#4285F4" d="M9.707 11.992c-.07.264-.107.542-.107.829V35.18c0 .286.037.564.108.827l12.058-12.33-12.06-11.685Z"/><path fill="#34A853" d="m21.452 24 6.033-6.169-13.107-7.77a3.1 3.1 0 0 0-1.627-.46c-1.456 0-2.685 1.012-3.043 2.387v.004L21.451 24Z"/><path fill="#fff" d="M52.332 13.052c0 1.2-.356 2.156-1.068 2.868-.8.848-1.852 1.272-3.156 1.272-1.248 0-2.304-.432-3.168-1.296-.864-.864-1.296-1.928-1.296-3.192 0-1.264.432-2.328 1.296-3.192.864-.864 1.92-1.296 3.168-1.296a4.77 4.77 0 0 1 1.788.336c.56.224 1.02.54 1.38.948l-.792.792a2.602 2.602 0 0 0-1.032-.744 3.285 3.285 0 0 0-1.344-.276c-.936 0-1.728.324-2.376.972-.64.656-.96 1.476-.96 2.46s.32 1.804.96 2.46c.648.648 1.44.972 2.376.972.856 0 1.568-.24 2.136-.72.568-.48.896-1.14.984-1.98h-3.12v-1.032h4.164c.04.224.06.44.06.648Zm6.357-4.644v1.056h-3.912v2.724h3.528v1.032h-3.528v2.724h3.912V17h-5.016V8.408h5.016Zm4.416 1.056V17h-1.104V9.464h-2.4V8.408h5.904v1.056h-2.4ZM70.4 17h-1.105V8.408H70.4V17Zm4.66-7.536V17h-1.105V9.464h-2.4V8.408h5.904v1.056h-2.4Zm14.366 3.24c0 1.272-.424 2.336-1.272 3.192-.856.864-1.904 1.296-3.144 1.296-1.248 0-2.296-.432-3.144-1.296-.848-.856-1.272-1.92-1.272-3.192 0-1.272.424-2.336 1.272-3.192.848-.864 1.896-1.296 3.144-1.296 1.248 0 2.296.436 3.144 1.308.848.856 1.272 1.916 1.272 3.18Zm-7.704 0c0 .992.312 1.812.936 2.46.632.648 1.416.972 2.352.972.936 0 1.716-.324 2.34-.972.632-.64.948-1.46.948-2.46s-.316-1.82-.948-2.46c-.624-.648-1.404-.972-2.34-.972-.936 0-1.72.324-2.352.972-.624.648-.936 1.468-.936 2.46ZM91.832 17h-1.104V8.408h1.344l4.176 6.684h.048l-.048-1.656V8.408h1.104V17H96.2l-4.368-7.008h-.048l.048 1.656V17Zm20.39 18.292h1.954V22.078h-1.954v13.214Zm17.605-8.454-2.241 5.729h-.067l-2.325-5.73h-2.106l3.487 8.008-1.987 4.454h2.038L132 26.838h-2.173Zm-11.085 6.953c-.641 0-1.533-.323-1.533-1.123 0-1.019 1.111-1.41 2.072-1.41.859 0 1.264.187 1.786.442-.152 1.224-1.197 2.09-2.325 2.09Zm.236-7.242c-1.415 0-2.882.629-3.487 2.023l1.735.73c.37-.73 1.061-.969 1.785-.969 1.011 0 2.039.612 2.056 1.701v.135c-.354-.204-1.112-.51-2.039-.51-1.869 0-3.774 1.038-3.774 2.975 0 1.769 1.534 2.908 3.252 2.908 1.314 0 2.039-.595 2.494-1.293h.067v1.02h1.886v-5.066c0-2.345-1.734-3.654-3.975-3.654Zm-12.079 1.897h-2.78v-4.529h2.78c1.461 0 2.29 1.22 2.29 2.264 0 1.024-.829 2.265-2.29 2.265Zm-.051-6.368h-4.683v13.214h1.954v-5.006h2.729c2.166 0 4.296-1.584 4.296-4.105 0-2.52-2.13-4.103-4.296-4.103ZM81.31 33.793c-1.35 0-2.48-1.14-2.48-2.707 0-1.584 1.13-2.742 2.48-2.742 1.334 0 2.379 1.158 2.379 2.742 0 1.566-1.045 2.707-2.379 2.707Zm2.245-6.215h-.068c-.44-.528-1.282-1.005-2.346-1.005-2.228 0-4.27 1.975-4.27 4.513 0 2.52 2.042 4.478 4.27 4.478 1.064 0 1.907-.476 2.346-1.022h.068v.648c0 1.72-.912 2.64-2.38 2.64-1.198 0-1.941-.87-2.245-1.602l-1.704.716c.49 1.192 1.789 2.656 3.949 2.656 2.295 0 4.236-1.362 4.236-4.683v-8.072h-1.856v.733Zm3.206 7.714h1.958V22.077H86.76v13.215Zm4.843-4.36c-.05-1.736 1.333-2.622 2.328-2.622.777 0 1.435.391 1.654.954l-3.983 1.669Zm6.075-1.498c-.371-1.005-1.502-2.86-3.814-2.86-2.295 0-4.201 1.82-4.201 4.495 0 2.52 1.89 4.495 4.42 4.495 2.042 0 3.224-1.26 3.713-1.992l-1.519-1.022c-.506.75-1.198 1.243-2.194 1.243-.995 0-1.704-.46-2.16-1.362l5.957-2.487-.202-.51ZM50.22 27.953v1.907h4.522c-.135 1.073-.49 1.856-1.028 2.4-.66.665-1.689 1.398-3.494 1.398-2.785 0-4.962-2.266-4.962-5.075 0-2.81 2.177-5.075 4.962-5.075 1.502 0 2.599.596 3.409 1.363l1.333-1.346c-1.131-1.09-2.632-1.925-4.742-1.925-3.814 0-7.02 3.134-7.02 6.983 0 3.848 3.206 6.981 7.02 6.981 2.059 0 3.61-.681 4.826-1.958 1.25-1.26 1.637-3.03 1.637-4.462 0-.443-.033-.85-.102-1.191h-6.36Zm11.605 5.84c-1.35 0-2.515-1.124-2.515-2.724 0-1.618 1.165-2.725 2.515-2.725s2.514 1.107 2.514 2.725c0 1.6-1.165 2.724-2.514 2.724Zm0-7.22c-2.465 0-4.473 1.89-4.473 4.496 0 2.588 2.008 4.495 4.473 4.495 2.464 0 4.472-1.907 4.472-4.495 0-2.606-2.008-4.496-4.472-4.496Zm9.755 7.22c-1.35 0-2.515-1.124-2.515-2.724 0-1.618 1.165-2.725 2.515-2.725s2.514 1.107 2.514 2.725c0 1.6-1.164 2.724-2.514 2.724Zm0-7.22c-2.463 0-4.471 1.89-4.471 4.496 0 2.588 2.008 4.495 4.471 4.495 2.464 0 4.472-1.907 4.472-4.495 0-2.606-2.008-4.496-4.472-4.496Z"/></svg>