<svg width="2000" height="2000" viewBox="0 0 2000 2000" fill="none"
	xmlns="http://www.w3.org/2000/svg">
	<path
		d="M1571.92 543.043C1571.94 535.146 1570.22 527.342 1566.87 520.189C1563.53 513.036 1558.64 506.713 1552.56 501.671C1546.48 496.63 1539.36 492.995 1531.71 491.028C1524.07 489.061 1516.08 488.809 1508.32 490.292C1500.56 491.775 1493.23 494.956 1486.85 499.606C1480.46 504.256 1475.19 510.26 1471.4 517.188C1467.61 524.116 1465.4 531.797 1464.93 539.68C1464.45 547.563 1465.73 555.453 1468.66 562.785C1472 535.397 1501.76 507.703 1531.98 528.981C1557.12 546.043 1548.16 570.971 1535.76 593.712C1546.31 590.086 1555.47 583.254 1561.95 574.17C1568.44 565.086 1571.92 554.204 1571.92 543.043Z"
		fill="#F05D48" />
	<path
		d="M1535.71 601.092C1534.43 601.094 1533.17 600.761 1532.05 600.128C1530.94 599.495 1530.01 598.583 1529.36 597.481C1528.7 596.38 1528.35 595.127 1528.32 593.846C1528.3 592.565 1528.61 591.301 1529.23 590.177C1544.74 561.757 1544.34 546.305 1527.79 535.082L1527.69 535.021C1518.24 528.371 1508.31 527.055 1498.94 531.21C1487.08 536.484 1477.63 549.833 1475.94 563.674C1475.74 565.3 1475.01 566.814 1473.85 567.976C1472.7 569.138 1471.19 569.883 1469.57 570.093C1467.94 570.303 1466.29 569.966 1464.88 569.135C1463.47 568.305 1462.37 567.028 1461.77 565.506C1457.28 554.192 1456.29 541.793 1458.91 529.908C1461.54 518.024 1467.67 507.199 1476.51 498.829C1485.34 490.46 1496.49 484.93 1508.49 482.953C1520.5 480.976 1532.83 482.643 1543.88 487.738C1554.94 492.833 1564.21 501.123 1570.51 511.539C1576.81 521.954 1579.84 534.018 1579.22 546.173C1578.59 558.329 1574.34 570.018 1567.01 579.735C1559.68 589.452 1549.61 596.749 1538.09 600.687C1537.32 600.952 1536.52 601.089 1535.71 601.092ZM1536.13 522.913C1557.78 537.664 1557.7 557.553 1552.62 574.025C1557.37 568.769 1560.85 562.489 1562.79 555.673C1564.72 548.856 1565.06 541.686 1563.78 534.717C1562.5 527.748 1559.64 521.167 1555.4 515.484C1551.17 509.801 1545.69 505.168 1539.38 501.945C1533.07 498.721 1526.1 496.993 1519.01 496.895C1511.93 496.797 1504.92 498.33 1498.52 501.377C1492.12 504.425 1486.51 508.903 1482.12 514.467C1477.74 520.03 1474.69 526.529 1473.21 533.46C1478.41 526.694 1485.17 521.294 1492.92 517.726C1507.09 511.444 1522.42 513.276 1536.13 522.913Z"
		fill="#F05D48" />
	<path
		d="M874.083 1020.87H873.566C872.599 1020.81 871.655 1020.55 870.787 1020.12C869.919 1019.69 869.145 1019.09 868.509 1018.35C867.873 1017.62 867.388 1016.77 867.081 1015.85C866.774 1014.93 866.651 1013.96 866.72 1013C869.916 967.342 874.611 913.575 879.577 856.637C886.461 777.806 893.578 696.295 897.389 628.417C900.499 572.953 889.596 553.347 879.909 546.66C872.104 541.276 861.077 541.743 847.15 547.889C846.194 548.322 845.157 548.546 844.108 548.546C843.058 548.546 842.021 548.322 841.065 547.889C840.942 547.889 828.773 542.222 816.714 536.507C809.622 533.138 803.967 530.36 799.923 528.332C792.056 524.349 787.311 521.94 788.638 515.88C789.008 514.203 789.942 512.705 791.285 511.635C792.627 510.565 794.297 509.989 796.014 510.004C797.073 510.005 798.12 510.233 799.083 510.674C800.046 511.116 800.903 511.759 801.595 512.561C806.745 515.511 826.032 524.718 844.249 533.114C861.827 526.021 876.615 526.488 888.268 534.515C907.149 547.533 914.943 578.522 912.103 629.252C908.28 697.352 901.15 778.986 894.267 857.89C889.35 914.767 884.605 968.522 881.421 1014C881.294 1015.86 880.466 1017.61 879.104 1018.88C877.742 1020.16 875.948 1020.87 874.083 1020.87Z"
		fill="#3A3A3A" />
	<path
		d="M819.923 677.155C809.919 677.178 800.014 675.179 790.802 671.279C789.152 670.421 787.888 668.97 787.262 667.219C786.636 665.467 786.695 663.544 787.427 661.834C788.159 660.124 789.51 658.754 791.21 657.998C792.909 657.242 794.832 657.156 796.592 657.758C806.55 661.828 817.399 663.228 828.065 661.818C838.731 660.408 848.843 656.237 857.402 649.719C858.941 648.511 860.896 647.964 862.839 648.198C864.781 648.431 866.55 649.427 867.758 650.966C868.966 652.505 869.513 654.461 869.279 656.403C869.045 658.345 868.049 660.115 866.511 661.323C853.18 671.645 836.782 677.218 819.923 677.155Z"
		fill="#3A3A3A" />
	<path
		d="M757.244 594.698C756.011 594.706 754.795 594.405 753.708 593.822C752.622 593.238 751.699 592.392 751.024 591.36C750.349 590.328 749.943 589.143 749.845 587.914C749.746 586.685 749.957 585.45 750.458 584.324L756.949 569.819C757.342 568.931 757.906 568.129 758.609 567.459C759.312 566.789 760.14 566.264 761.045 565.915C761.951 565.565 762.917 565.397 763.888 565.42C764.858 565.444 765.815 565.658 766.703 566.051C767.591 566.444 768.392 567.008 769.062 567.711C769.732 568.414 770.257 569.242 770.607 570.148C770.956 571.053 771.125 572.019 771.101 572.99C771.078 573.961 770.863 574.917 770.47 575.805L763.98 590.31C763.402 591.615 762.458 592.724 761.262 593.503C760.067 594.282 758.671 594.697 757.244 594.698Z"
		fill="#3A3A3A" />
	<path
		d="M794.49 539.778C792.826 539.782 791.21 539.223 789.904 538.192C788.598 537.161 787.679 535.719 787.296 534.1C786.913 532.481 787.088 530.78 787.794 529.274C788.5 527.767 789.694 526.543 791.183 525.801L800.832 520.983C802.578 520.141 804.584 520.019 806.418 520.645C808.252 521.27 809.766 522.592 810.633 524.325C811.5 526.057 811.651 528.062 811.052 529.904C810.453 531.747 809.153 533.28 807.433 534.172L797.784 539.003C796.761 539.513 795.633 539.778 794.49 539.778Z"
		fill="#3A3A3A" />
	<path
		d="M635.082 656.801C588.974 647.397 578.894 673.826 576.214 688.392C573.227 704.679 584.007 721.016 598.131 729.67C612.255 738.324 629.133 740.979 645.518 743.437C655.512 943.225 565.95 1180.41 542.078 1203.02C536.338 1208.46 528.729 1213.79 521.181 1211.53C516.424 1210.1 513.044 1206.02 509.577 1202.47C483.37 1175.69 440.433 1173.65 404.072 1182.69C381.454 1188.32 359.61 1197.52 336.464 1200.15C313.317 1202.78 290.736 1194.12 272.974 1179.04C212.594 1127.8 301.984 926.028 455.773 668.245C491.544 608.283 538.267 550.656 602.384 523.035C600.479 548.96 598.598 575.413 604.843 600.674C608.055 614.286 614.113 627.063 622.618 638.165C626.809 643.574 605.912 650.679 635.082 656.801Z"
		fill="#3A3A3A" />
	<path
		d="M524.807 1219.44C522.855 1219.44 520.912 1219.16 519.042 1218.59C513.056 1216.8 508.938 1212.45 505.631 1209.03C505.176 1208.55 504.734 1208.08 504.279 1207.63C483.456 1186.34 446.652 1179.7 405.83 1189.85C398.036 1191.78 390.108 1194.23 382.474 1196.59C367.957 1201.07 352.972 1205.69 337.287 1207.47C313.28 1210.2 288.745 1202.1 268.192 1184.67C236.613 1157.86 239.551 1096.95 277.165 998.45C309.003 915.01 366.936 802.633 449.406 664.467C494.544 588.795 543.627 540.314 599.434 516.27C600.598 515.769 601.87 515.576 603.13 515.709C604.389 515.843 605.593 516.298 606.625 517.032C607.66 517.766 608.487 518.755 609.028 519.903C609.568 521.051 609.803 522.319 609.711 523.584C607.855 548.648 605.949 574.56 611.923 598.924C614.904 611.52 620.504 623.348 628.358 633.637C632.562 638.997 629.71 644.467 627.965 647.159C630.766 648.179 633.643 648.976 636.57 649.544C638.46 649.964 640.109 651.112 641.161 652.738C642.213 654.365 642.582 656.34 642.19 658.237C641.798 660.133 640.675 661.8 639.065 662.876C637.454 663.952 635.485 664.351 633.583 663.987C617.271 660.656 604.708 661.873 596.251 667.577C589.625 672.051 585.323 679.488 583.454 689.703C580.922 703.483 591.272 716.746 601.967 723.372C615.021 731.374 631.075 733.795 646.588 736.131C648.271 736.384 649.814 737.211 650.957 738.473C652.1 739.734 652.771 741.352 652.857 743.052C658.634 858.6 630.731 979.717 613.583 1041.62C589.182 1129.7 560.64 1195.56 547.13 1208.35C539.386 1215.73 531.888 1219.44 524.807 1219.44ZM441.92 1170.46C471.704 1170.46 497.567 1179.71 514.789 1197.3L516.264 1198.84C518.723 1201.38 520.984 1203.76 523.234 1204.46C527.352 1205.69 532.982 1201.45 536.977 1197.66C546.983 1188.17 574.96 1125.75 599.348 1037.7C615.968 977.725 642.826 861.464 638.377 749.812C623.847 747.514 607.99 744.367 594.272 735.947C578.943 726.543 565.163 707.773 568.962 687.06C571.58 672.813 577.984 662.168 588.015 655.395C595.153 650.76 603.387 648.089 611.886 647.651C612.253 644.98 613.284 642.444 614.886 640.275C606.727 628.906 600.853 616.06 597.59 602.452C592.096 580.03 592.673 557.289 594.112 535.028C545.778 559.318 502.484 604.234 462.067 672.014C380.065 809.516 322.487 921.07 290.908 1003.74C273.699 1048.71 263.865 1085.96 261.751 1114.37C259.636 1142.77 264.959 1162.55 277.731 1173.37C295.137 1188.12 315.69 1195.03 335.616 1192.77C349.912 1191.15 363.618 1186.92 378.123 1182.44C385.977 1179.98 394.103 1177.53 402.289 1175.48C415.247 1172.21 428.555 1170.52 441.92 1170.46Z"
		fill="#3A3A3A" />
	<path
		d="M282.992 1110.68C281.825 1110.68 280.674 1110.4 279.635 1109.87C278.596 1109.34 277.698 1108.57 277.015 1107.62C276.333 1106.67 275.884 1105.58 275.707 1104.42C275.53 1103.27 275.63 1102.09 275.998 1100.98C300.729 1026.51 330.42 953.777 364.871 883.272C365.744 881.537 367.265 880.217 369.105 879.597C370.945 878.977 372.955 879.108 374.699 879.96C376.444 880.813 377.781 882.319 378.422 884.152C379.063 885.985 378.955 887.996 378.123 889.75C343.957 959.676 314.516 1031.81 289.999 1105.68C289.502 1107.14 288.558 1108.41 287.301 1109.31C286.044 1110.21 284.537 1110.69 282.992 1110.68Z"
		fill="white" />
	<path
		d="M546.589 1093.88C545.545 1093.88 544.513 1093.65 543.566 1093.21C542.682 1092.81 541.886 1092.25 541.223 1091.54C540.56 1090.83 540.042 1090 539.699 1089.1C539.357 1088.19 539.196 1087.23 539.227 1086.26C539.258 1085.29 539.479 1084.34 539.878 1083.45C573.267 1009.58 598.016 932.093 613.632 852.54C613.818 851.59 614.19 850.685 614.726 849.878C615.263 849.071 615.952 848.377 616.757 847.837C617.561 847.296 618.463 846.919 619.413 846.728C620.363 846.536 621.341 846.533 622.292 846.72C623.243 846.906 624.148 847.278 624.955 847.814C625.762 848.35 626.455 849.04 626.996 849.844C627.536 850.649 627.913 851.551 628.105 852.501C628.296 853.451 628.299 854.429 628.112 855.38C612.271 936.05 587.172 1014.62 553.313 1089.54C552.729 1090.83 551.784 1091.93 550.591 1092.7C549.398 1093.47 548.009 1093.88 546.589 1093.88Z"
		fill="white" />
	<path
		d="M602.384 698.963C600.769 698.966 599.198 698.439 597.911 697.463C596.625 696.486 595.694 695.114 595.263 693.558C594.831 692.001 594.923 690.346 595.523 688.847C596.124 687.347 597.2 686.086 598.586 685.257C607.424 679.981 617.749 677.748 627.977 678.902C629.889 679.161 631.623 680.159 632.808 681.682C633.992 683.204 634.533 685.13 634.315 687.047C634.096 688.964 633.135 690.718 631.638 691.935C630.141 693.151 628.226 693.733 626.305 693.555C619.297 692.769 612.225 694.302 606.171 697.918C605.024 698.599 603.717 698.959 602.384 698.963Z"
		fill="#3A3A3A" />
	<path
		d="M674.897 485.381C671.689 487.126 668.493 489.155 666.44 492.179C664.387 495.202 663.662 498.964 663.01 502.578C653.484 555.73 651.8 642.637 635.082 656.798C664.363 665.931 683.293 645.218 702.69 623.928C722.088 602.638 743.034 537.23 793.297 512.449C751.024 466.02 695.868 473.937 674.897 485.381Z"
		fill="#3A3A3A" />
	<path
		d="M648.874 666.386C643.449 666.352 638.061 665.494 632.894 663.842C631.632 663.449 630.499 662.724 629.613 661.743C628.728 660.762 628.122 659.561 627.859 658.265C627.597 656.97 627.687 655.628 628.121 654.379C628.554 653.131 629.316 652.022 630.325 651.168C632.341 649.46 636.336 643.277 640.38 621.077C643.404 604.445 645.691 583.081 647.903 562.43C650.177 541.226 652.525 519.296 655.758 501.275C656.434 497.588 657.344 492.449 660.343 488.036C663.342 483.623 667.583 480.968 671.406 478.903C682.58 472.757 703.047 467.25 726.968 469.881C746.033 471.983 773.986 480.219 798.804 507.483C799.576 508.329 800.14 509.342 800.452 510.444C800.763 511.545 800.815 512.704 800.601 513.829C800.388 514.953 799.915 516.013 799.222 516.923C798.528 517.834 797.632 518.57 796.604 519.075C763.955 535.165 744.275 569.781 728.455 597.586C721.08 610.518 714.761 621.679 708.197 628.895C691.959 646.657 673.988 666.386 648.874 666.386ZM647.264 651.574C666.747 652.41 681.043 636.737 697.232 618.962C702.703 612.964 708.664 602.466 715.585 590.297C730.188 564.606 749.758 530.212 781.238 510.728C743.132 475.191 696.175 482.185 678.425 491.859C676.188 493.089 673.729 494.564 672.537 496.334C671.345 498.104 670.755 501.189 670.263 503.881C667.128 521.386 664.805 543.057 662.568 564.003C658.081 605.785 654.43 635.373 647.264 651.574Z"
		fill="#3A3A3A" />
	<path
		d="M690.287 609.928C688.867 609.921 687.479 609.503 686.29 608.725C685.101 607.948 684.162 606.844 683.586 605.546C683.009 604.247 682.82 602.81 683.041 601.407C683.261 600.004 683.882 598.694 684.829 597.636C695.716 585.654 703.647 571.29 707.988 555.694C708.555 553.861 709.813 552.321 711.496 551.401C713.178 550.48 715.154 550.252 717.003 550.763C718.851 551.275 720.428 552.487 721.398 554.142C722.368 555.797 722.655 557.765 722.198 559.628C717.241 577.453 708.182 593.87 695.745 607.568C695.049 608.319 694.204 608.916 693.264 609.322C692.325 609.729 691.311 609.935 690.287 609.928Z"
		fill="white" />
	<path
		d="M474.028 711.045C472.769 711.044 471.532 710.72 470.434 710.105C469.337 709.491 468.414 708.605 467.755 707.533C467.096 706.462 466.722 705.239 466.669 703.982C466.616 702.725 466.885 701.475 467.451 700.351C490.834 653.814 522.267 611.782 560.295 576.198C561.002 575.535 561.833 575.019 562.74 574.677C563.647 574.335 564.612 574.176 565.58 574.207C566.549 574.238 567.502 574.46 568.385 574.86C569.267 575.26 570.063 575.829 570.726 576.536C571.388 577.243 571.905 578.074 572.247 578.981C572.588 579.887 572.748 580.853 572.717 581.821C572.685 582.79 572.463 583.743 572.064 584.625C571.664 585.508 571.095 586.304 570.387 586.966C533.63 621.357 503.25 661.983 480.653 706.964C480.039 708.195 479.093 709.229 477.922 709.95C476.752 710.671 475.403 711.05 474.028 711.045Z"
		fill="white" />
	<path
		d="M543.43 649.716C542.092 649.719 540.778 649.359 539.63 648.673C538.481 647.987 537.54 647.001 536.909 645.821C536.277 644.642 535.979 643.313 536.045 641.976C536.111 640.64 536.539 639.346 537.284 638.235C541.594 631.804 546.689 625.936 552.453 620.767C553.918 619.516 555.814 618.888 557.737 619.017C559.659 619.145 561.455 620.021 562.739 621.457C564.024 622.893 564.696 624.774 564.612 626.699C564.527 628.624 563.693 630.439 562.287 631.757C557.431 636.119 553.145 641.075 549.527 646.508C548.849 647.498 547.939 648.308 546.876 648.868C545.814 649.427 544.631 649.718 543.43 649.716Z"
		fill="white" />
	<path
		d="M816.112 1024.88C759.573 1024.88 703.208 1018.64 648.038 1006.27C646.144 1005.83 644.502 1004.66 643.467 1003.01C642.433 1001.36 642.091 999.374 642.516 997.476C642.94 995.578 644.097 993.925 645.734 992.876C647.372 991.827 649.357 991.467 651.259 991.875C728.624 1009.22 808.242 1014.25 887.174 1006.77C889.122 1006.59 891.063 1007.19 892.571 1008.43C894.079 1009.68 895.029 1011.48 895.213 1013.42C895.397 1015.37 894.8 1017.31 893.553 1018.82C892.306 1020.33 890.511 1021.28 888.563 1021.46C864.421 1023.74 840.27 1024.88 816.112 1024.88Z"
		fill="#3A3A3A" />
	<path
		d="M910.529 1090.07C908.749 1090.07 907.029 1089.42 905.687 1088.25C904.345 1087.08 903.471 1085.47 903.228 1083.7C899.811 1058.68 907.702 1034.36 916.749 1011.82C918.532 1007.37 920.437 1002.78 919.54 999.291C917.991 992.825 907.112 990.232 898.262 989.199C896.319 988.971 894.546 987.98 893.333 986.445C892.121 984.909 891.568 982.955 891.796 981.012C892.024 979.069 893.015 977.296 894.55 976.084C896.086 974.871 898.04 974.318 899.983 974.546C907.358 975.407 929.62 978.013 933.885 995.861C935.815 1003.9 932.84 1011.34 930.443 1017.3C922.17 1037.96 914.918 1060.06 917.868 1081.7C918 1082.66 917.941 1083.63 917.695 1084.57C917.45 1085.51 917.022 1086.39 916.436 1087.16C915.851 1087.93 915.119 1088.58 914.283 1089.07C913.446 1089.56 912.522 1089.88 911.562 1090.01C911.22 1090.05 910.875 1090.08 910.529 1090.07Z"
		fill="#3A3A3A" />
	<path
		d="M1104.02 1547.48C1102.47 1547.48 1100.95 1546.99 1099.69 1546.07C1098.43 1545.16 1097.49 1543.87 1097 1542.39C1083.48 1500.59 1079.51 1425.38 1087.05 1350.63C1090.96 1311.86 1103.94 1217.62 1140.13 1180.67C1140.79 1179.94 1141.6 1179.35 1142.5 1178.94C1143.4 1178.53 1144.37 1178.3 1145.36 1178.28C1146.35 1178.25 1147.33 1178.42 1148.26 1178.78C1149.18 1179.14 1150.02 1179.68 1150.72 1180.37C1151.43 1181.06 1151.99 1181.89 1152.38 1182.8C1152.76 1183.72 1152.95 1184.7 1152.95 1185.68C1152.94 1186.67 1152.74 1187.65 1152.35 1188.56C1151.96 1189.47 1151.39 1190.29 1150.67 1190.97C1127.87 1214.33 1109.59 1274.56 1101.79 1352.12C1094.41 1424.97 1098.1 1497.87 1111.09 1537.82C1111.45 1538.92 1111.55 1540.1 1111.37 1541.25C1111.18 1542.4 1110.73 1543.49 1110.05 1544.43C1109.37 1545.37 1108.47 1546.14 1107.43 1546.67C1106.4 1547.2 1105.25 1547.48 1104.09 1547.48H1104.02Z"
		fill="#3A3A3A" />
	<path
		d="M1127.33 1222.69C1129.76 1208.95 1136 1196.18 1145.34 1185.81C1149.57 1198.02 1152.22 1205.96 1153.21 1218.84C1145.83 1216.81 1138.33 1219.6 1130.89 1217.61L1127.33 1222.69Z"
		fill="#3A3A3A" />
	<path
		d="M1127.34 1230.06C1126.93 1230.06 1126.52 1230.02 1126.11 1229.95C1125.16 1229.79 1124.24 1229.43 1123.43 1228.91C1122.61 1228.39 1121.9 1227.72 1121.34 1226.92C1120.79 1226.13 1120.39 1225.23 1120.18 1224.29C1119.97 1223.34 1119.95 1222.36 1120.11 1221.41C1122.82 1206.31 1129.67 1192.26 1139.92 1180.84C1140.78 1179.89 1141.87 1179.18 1143.09 1178.78C1144.31 1178.39 1145.61 1178.31 1146.86 1178.57C1148.12 1178.82 1149.29 1179.4 1150.25 1180.25C1151.21 1181.09 1151.94 1182.18 1152.36 1183.39C1156.79 1196.21 1159.57 1204.75 1160.61 1218.26C1160.7 1219.44 1160.5 1220.62 1160.04 1221.71C1159.58 1222.8 1158.86 1223.76 1157.95 1224.51C1157.04 1225.27 1155.96 1225.79 1154.81 1226.04C1153.65 1226.29 1152.45 1226.26 1151.31 1225.94C1148.4 1225.36 1145.42 1225.24 1142.47 1225.56C1139.7 1225.75 1136.92 1225.75 1134.15 1225.56C1133.59 1226.9 1132.64 1228.04 1131.43 1228.84C1130.21 1229.64 1128.79 1230.07 1127.34 1230.06ZM1142.77 1201.79C1141.04 1204.74 1139.54 1207.83 1138.28 1211.01C1139.35 1211.01 1140.48 1210.94 1141.66 1210.87C1142.84 1210.81 1143.73 1210.76 1144.81 1210.73C1144.28 1207.71 1143.6 1204.72 1142.77 1201.78V1201.79Z"
		fill="#3A3A3A" />
	<path
		d="M1104.02 1540.1C1115.84 1517.98 1124.82 1497.58 1131.6 1473.46C1130.67 1476.76 1111.93 1473.46 1092.26 1472.12C1092.26 1472.12 1097.64 1504.56 1098.8 1512.69C1100.1 1521.93 1101.84 1531.08 1104.02 1540.1Z"
		fill="#3A3A3A" />
	<path
		d="M1104.02 1547.48C1103.71 1547.5 1103.4 1547.5 1103.09 1547.48C1101.61 1547.29 1100.21 1546.66 1099.1 1545.66C1097.98 1544.66 1097.2 1543.35 1096.84 1541.9C1094.62 1532.68 1092.83 1523.24 1091.51 1513.82C1090.38 1505.83 1085.04 1473.71 1085 1473.39C1084.81 1472.29 1084.87 1471.16 1085.18 1470.09C1085.49 1469.02 1086.04 1468.03 1086.79 1467.2C1087.54 1466.37 1088.47 1465.72 1089.51 1465.3C1090.54 1464.89 1091.66 1464.71 1092.78 1464.79C1098.73 1465.19 1104.64 1465.78 1109.84 1466.3C1116.25 1466.94 1124.05 1467.7 1127.26 1467.53C1128.5 1466.62 1129.99 1466.13 1131.52 1466.11C1133.06 1466.09 1134.56 1466.56 1135.82 1467.43C1137.08 1468.31 1138.03 1469.56 1138.55 1471C1139.06 1472.45 1139.12 1474.02 1138.7 1475.49C1132.3 1498.31 1123.88 1518.68 1110.54 1543.59C1109.91 1544.77 1108.97 1545.75 1107.82 1546.44C1106.67 1547.12 1105.36 1547.48 1104.02 1547.48ZM1101.09 1480.25C1102.78 1490.52 1105.35 1506.26 1106.11 1511.72C1106.4 1513.75 1106.7 1515.78 1107.04 1517.87C1112.57 1506.29 1117.34 1494.35 1121.29 1482.14C1117.61 1481.92 1113.24 1481.49 1108.38 1481L1101.09 1480.25Z"
		fill="#3A3A3A" />
	<path
		d="M1119.84 1173.24C1119.01 1173.23 1118.17 1173.08 1117.39 1172.8C1110.86 1170.44 1103.38 1170.55 1095.47 1170.68C1092.06 1170.68 1088.54 1170.79 1085 1170.68C1062.71 1169.76 1042.27 1160.97 1023.24 1152.06C1002.87 1142.52 982.538 1132.11 962.883 1122.05C923.068 1101.68 881.913 1080.63 839.16 1066.1C787.876 1048.67 712.61 1034.32 645.346 1064.98C643.566 1065.79 641.535 1065.87 639.7 1065.19C637.865 1064.5 636.377 1063.12 635.562 1061.34C634.747 1059.56 634.672 1057.53 635.354 1055.7C636.037 1053.86 637.42 1052.37 639.2 1051.56C710.865 1018.9 790.064 1033.84 843.88 1052.13C887.641 1067.01 929.3 1088.31 969.57 1108.92C989.127 1118.92 1009.34 1129.27 1029.47 1138.7C1047.13 1146.98 1066.03 1155.13 1085.59 1155.91C1088.7 1156.03 1091.87 1155.98 1095.21 1155.91C1104.11 1155.77 1113.3 1155.61 1122.39 1158.89C1124.02 1159.48 1125.4 1160.62 1126.27 1162.12C1127.15 1163.62 1127.47 1165.38 1127.18 1167.09C1126.88 1168.8 1125.99 1170.35 1124.67 1171.47C1123.34 1172.59 1121.67 1173.21 1119.93 1173.21L1119.84 1173.24Z"
		fill="#3A3A3A" />
	<path
		d="M1080.79 1557.33C1080.19 1557.33 1079.58 1557.26 1079 1557.1C1060.18 1552.41 1043.11 1543.3 1026.62 1534.5C1020.19 1531.07 1013.54 1527.53 1006.95 1524.34C954.176 1498.95 894.654 1491.12 837.107 1502.01C835.213 1502.32 833.274 1501.87 831.702 1500.77C830.13 1499.67 829.049 1498 828.687 1496.12C828.326 1494.23 828.713 1492.28 829.766 1490.68C830.82 1489.08 832.456 1487.95 834.329 1487.53C894.994 1476.04 957.742 1484.29 1013.38 1511.06C1020.23 1514.38 1027 1517.99 1033.56 1521.49C1050 1530.26 1065.52 1538.53 1082.57 1542.8C1084.32 1543.23 1085.84 1544.29 1086.86 1545.78C1087.88 1547.26 1088.32 1549.06 1088.1 1550.85C1087.88 1552.63 1087.02 1554.28 1085.67 1555.47C1084.33 1556.66 1082.59 1557.32 1080.79 1557.33Z"
		fill="#3A3A3A" />
	<path
		d="M860.168 1525.93C858.719 1525.93 857.302 1525.51 856.094 1524.71C854.885 1523.91 853.938 1522.77 853.372 1521.44C852.806 1520.1 852.645 1518.63 852.909 1517.21C853.173 1515.79 853.851 1514.47 854.857 1513.43C869.952 1497.74 895.988 1482.32 923.756 1486.05C924.735 1486.16 925.684 1486.46 926.545 1486.94C927.407 1487.41 928.164 1488.06 928.772 1488.83C929.381 1489.61 929.828 1490.5 930.087 1491.45C930.346 1492.4 930.412 1493.39 930.282 1494.36C930.151 1495.34 929.826 1496.28 929.327 1497.13C928.827 1497.98 928.162 1498.72 927.372 1499.31C926.581 1499.89 925.681 1500.32 924.725 1500.55C923.768 1500.79 922.774 1500.83 921.802 1500.67C899.491 1497.66 878.078 1510.58 865.478 1523.67C864.79 1524.38 863.966 1524.95 863.053 1525.34C862.141 1525.73 861.159 1525.93 860.168 1525.93Z"
		fill="#3A3A3A" />
	<path
		d="M609.526 1268.17C607.684 1268.18 605.905 1267.5 604.54 1266.26C603.175 1265.02 602.323 1263.32 602.151 1261.48C597.947 1216.47 592.723 1160.44 616.902 1113.83C617.803 1112.09 619.357 1110.79 621.222 1110.2C623.087 1109.61 625.11 1109.78 626.846 1110.68C628.582 1111.58 629.889 1113.14 630.479 1115C631.069 1116.87 630.895 1118.89 629.993 1120.63C607.769 1163.39 612.784 1217.02 616.791 1260.11C616.881 1261.07 616.78 1262.04 616.493 1262.97C616.207 1263.9 615.741 1264.76 615.123 1265.5C614.504 1266.25 613.744 1266.86 612.888 1267.31C612.031 1267.77 611.093 1268.04 610.129 1268.13C609.929 1268.16 609.728 1268.17 609.526 1268.17Z"
		fill="#3A3A3A" />
	<path
		d="M1044.39 1540.33C1043.42 1540.33 1042.45 1540.14 1041.55 1539.76C1040.65 1539.38 1039.83 1538.83 1039.14 1538.13C1030.54 1529.41 1033.07 1516.01 1038.35 1506.42C1039.14 1504.96 1039.99 1503.51 1040.8 1502.06C1043.8 1496.97 1046.63 1492.16 1046.42 1487.71C1046.15 1482.36 1041.69 1477.7 1036.51 1472.32C1032.69 1468.33 1028.73 1464.21 1025.82 1459.11C1014.95 1440.02 1024.43 1416.73 1035.86 1402.56C1036.71 1401.52 1037.58 1400.47 1038.46 1399.43C1042.29 1394.87 1045.91 1390.56 1046.89 1385.91C1048.59 1377.87 1042.72 1370.16 1035.94 1361.23C1032.34 1356.75 1029.09 1352 1026.21 1347.02C1021.47 1337.99 1019.43 1327.78 1020.32 1317.61C1021.21 1307.44 1025 1297.74 1031.24 1289.67C1035.12 1285.09 1039.36 1280.84 1043.94 1276.96C1051.82 1269.91 1058.69 1263.83 1059.46 1255.8C1060.18 1248.99 1056.17 1242.01 1051.92 1234.62C1047.66 1227.24 1042.72 1218.64 1042.08 1208.87C1041.44 1198.29 1046.27 1186.95 1055.68 1176.91C1067.97 1163.84 1085.49 1155.73 1101.33 1155.73C1103.29 1155.73 1105.16 1156.51 1106.55 1157.89C1107.93 1159.27 1108.71 1161.15 1108.71 1163.11C1108.71 1165.06 1107.93 1166.94 1106.55 1168.32C1105.16 1169.7 1103.29 1170.48 1101.33 1170.48C1089.59 1170.48 1075.89 1176.97 1066.42 1187.03C1059.93 1193.91 1056.43 1201.53 1056.81 1207.92C1057.19 1214.32 1060.8 1220.54 1064.65 1227.21C1069.64 1235.88 1075.31 1245.72 1074.09 1257.29C1072.65 1270.97 1062.6 1279.97 1053.72 1287.9C1049.77 1291.23 1046.09 1294.88 1042.72 1298.81C1038.25 1304.6 1035.53 1311.55 1034.9 1318.83C1034.26 1326.12 1035.72 1333.43 1039.12 1339.91C1041.64 1344.21 1044.49 1348.32 1047.63 1352.2C1055.47 1362.51 1064.37 1374.2 1061.27 1388.86C1059.53 1397.09 1054.31 1403.3 1049.7 1408.78L1047.25 1411.69C1038.74 1422.22 1031.36 1438.98 1038.55 1451.62C1040.56 1455.12 1043.72 1458.43 1047.07 1461.92C1053.38 1468.5 1060.59 1475.95 1061.06 1486.81C1061.49 1495.66 1057.2 1502.94 1053.43 1509.36C1052.64 1510.68 1051.87 1512 1051.14 1513.32C1048.44 1518.23 1046.78 1524.82 1049.51 1527.59C1050.53 1528.62 1051.23 1529.94 1051.5 1531.37C1051.78 1532.79 1051.63 1534.27 1051.07 1535.62C1050.51 1536.96 1049.56 1538.11 1048.35 1538.91C1047.14 1539.72 1045.71 1540.15 1044.26 1540.15L1044.39 1540.33Z"
		fill="#3A3A3A" />
	<path
		d="M325.364 1620.51C323.6 1620.5 321.895 1619.87 320.557 1618.72C297.767 1599.06 286.815 1573.16 289.716 1545.72C295.665 1489.51 317.165 1439.49 344.368 1376.17C367.576 1322.08 396.463 1254.91 424.022 1163.72C424.588 1161.85 425.874 1160.28 427.599 1159.35C429.323 1158.43 431.344 1158.23 433.217 1158.79C435.09 1159.36 436.661 1160.64 437.586 1162.37C438.51 1164.09 438.712 1166.11 438.146 1167.99C410.341 1259.97 381.269 1327.63 357.914 1381.98C331.203 1444.17 310.109 1493.28 304.393 1547.27C302.008 1569.75 311.166 1591.15 330.207 1607.5C331.345 1608.48 332.155 1609.79 332.529 1611.25C332.903 1612.71 332.822 1614.24 332.298 1615.65C331.773 1617.06 330.83 1618.28 329.595 1619.14C328.36 1619.99 326.892 1620.46 325.388 1620.46L325.364 1620.51Z"
		fill="#3A3A3A" />
	<path
		d="M950.554 1731.14C949.585 1731.17 948.619 1731.01 947.711 1730.67C946.804 1730.33 945.972 1729.82 945.263 1729.16C944.554 1728.5 943.982 1727.7 943.58 1726.82C943.178 1725.94 942.954 1724.99 942.92 1724.02C942.886 1723.05 943.043 1722.08 943.383 1721.18C943.722 1720.27 944.237 1719.44 944.898 1718.73C945.559 1718.02 946.353 1717.45 947.234 1717.04C948.116 1716.64 949.069 1716.42 950.037 1716.38C958.642 1715.76 967.345 1709.81 973.184 1700.4C979.023 1691 981.727 1679.18 983.755 1668.89C988.242 1646 991.056 1622.82 992.176 1599.53C992.286 1597.37 992.372 1595.18 992.471 1592.99C993.552 1567.87 994.782 1539.39 1011.78 1518.32C1012.39 1517.56 1013.14 1516.94 1013.99 1516.47C1014.84 1516.01 1015.78 1515.72 1016.74 1515.62C1017.7 1515.51 1018.68 1515.6 1019.61 1515.87C1020.54 1516.15 1021.4 1516.6 1022.16 1517.21C1022.91 1517.82 1023.54 1518.57 1024 1519.42C1024.46 1520.27 1024.76 1521.21 1024.86 1522.17C1024.96 1523.13 1024.87 1524.11 1024.6 1525.04C1024.33 1525.97 1023.87 1526.83 1023.26 1527.59C1009.31 1544.87 1008.24 1569.66 1007.21 1593.63C1007.11 1595.85 1007.01 1598.05 1006.91 1600.23C1005.76 1624.24 1002.86 1648.14 998.223 1671.73C995.949 1683.31 992.913 1696.62 985.697 1708.21C977.375 1721.55 964.432 1730.09 951.082 1731.04C950.908 1731.08 950.732 1731.11 950.554 1731.14Z"
		fill="#3A3A3A" />
	<path
		d="M925.391 1723.22C923.859 1723.22 922.364 1722.75 921.114 1721.86C919.864 1720.98 918.921 1719.72 918.416 1718.28C917.91 1716.83 917.868 1715.27 918.294 1713.79C918.72 1712.32 919.594 1711.02 920.794 1710.07C929.614 1702.92 936.729 1693.9 941.62 1683.66C946.511 1673.41 949.055 1662.21 949.066 1650.86C949.056 1649.89 949.237 1648.93 949.599 1648.03C949.961 1647.13 950.496 1646.31 951.174 1645.62C951.852 1644.93 952.66 1644.38 953.551 1644C954.442 1643.62 955.399 1643.42 956.368 1643.41H956.441C958.387 1643.41 960.254 1644.17 961.635 1645.54C963.016 1646.91 963.801 1648.77 963.817 1650.72C963.794 1664.31 960.74 1677.73 954.878 1689.99C949.015 1702.26 940.491 1713.06 929.927 1721.61C928.638 1722.64 927.04 1723.21 925.391 1723.22Z"
		fill="#3A3A3A" />
	<path
		d="M902.294 1716.09C901.355 1716.09 900.425 1715.91 899.552 1715.57C897.737 1714.84 896.284 1713.42 895.514 1711.62C894.744 1709.82 894.72 1707.79 895.447 1705.98L908.317 1673.8C909.042 1671.98 910.46 1670.52 912.258 1669.75C914.056 1668.98 916.087 1668.95 917.905 1669.68C919.722 1670.4 921.177 1671.82 921.95 1673.62C922.722 1675.42 922.748 1677.45 922.023 1679.27L909.141 1711.45C908.595 1712.82 907.651 1713.99 906.43 1714.82C905.21 1715.65 903.769 1716.09 902.294 1716.09Z"
		fill="#3A3A3A" />
	<path
		d="M222.44 1883.33C222.082 1883.33 221.725 1883.31 221.37 1883.26C219.436 1882.98 217.693 1881.94 216.524 1880.37C215.355 1878.8 214.857 1876.84 215.138 1874.9C218.609 1850.89 223.739 1827.15 230.491 1803.85C246.742 1747.91 270.896 1711.66 304.331 1693.22C305.18 1692.72 306.119 1692.4 307.094 1692.27C308.07 1692.14 309.061 1692.2 310.01 1692.46C310.959 1692.72 311.847 1693.17 312.621 1693.78C313.395 1694.38 314.04 1695.14 314.517 1696C314.994 1696.86 315.294 1697.81 315.4 1698.79C315.506 1699.76 315.415 1700.75 315.132 1701.7C314.85 1702.64 314.382 1703.51 313.756 1704.27C313.129 1705.03 312.357 1705.66 311.486 1706.11C281.627 1722.67 259.772 1756 244.652 1808.02C238.084 1830.66 233.086 1853.73 229.692 1877.06C229.429 1878.8 228.553 1880.39 227.223 1881.54C225.894 1882.69 224.197 1883.32 222.44 1883.33Z"
		fill="#3A3A3A" />
	<path
		d="M964.198 1884.56C962.302 1884.56 960.478 1883.83 959.105 1882.53C957.732 1881.22 956.914 1879.43 956.823 1877.54C955.741 1855.53 953.135 1849.76 945.464 1832.66C944.235 1829.88 942.846 1826.85 941.347 1823.42C940.561 1821.62 940.52 1819.59 941.232 1817.77C941.944 1815.95 943.352 1814.48 945.145 1813.69C946.938 1812.91 948.97 1812.87 950.793 1813.58C952.617 1814.29 954.082 1815.7 954.868 1817.49C956.355 1820.87 957.695 1823.87 958.925 1826.61C967.013 1844.57 970.357 1852.01 971.573 1876.82C971.621 1877.78 971.478 1878.75 971.152 1879.66C970.826 1880.58 970.323 1881.42 969.672 1882.13C969.022 1882.85 968.236 1883.43 967.36 1883.85C966.484 1884.26 965.535 1884.5 964.567 1884.55L964.198 1884.56Z"
		fill="#3A3A3A" />
	<path
		d="M941.556 1829C939.499 1828.97 937.446 1828.81 935.409 1828.53C912.656 1825.61 890.124 1820.26 868.33 1815.01L859.27 1812.87C757.244 1788.81 651.886 1771.49 550.019 1754.74C471.606 1741.83 390.513 1728.49 311.314 1712.16C308.474 1711.58 303.164 1710.48 299.857 1705.86C296.55 1701.24 297.251 1695.51 297.632 1692.81C300.375 1673.35 304.746 1654.15 310.699 1635.43C313.391 1626.97 318.394 1611.22 336.23 1610.44C345.585 1610.02 355.013 1611.79 364.134 1613.49C368.006 1614.21 371.657 1614.89 375.197 1615.38L454.704 1626.56C457.605 1626.97 460.58 1627.52 463.456 1628.06C468.738 1629.22 474.109 1629.91 479.51 1630.13C479.855 1630.13 480.201 1630.15 480.543 1630.2C601.598 1647.23 726.783 1664.83 848.699 1689.93C883.548 1697.11 923.953 1705.91 962.6 1720.34C965.476 1721.41 970.836 1723.4 973.749 1728.51C976.527 1733.36 975.753 1738.58 975.286 1741.72C971.844 1764.99 967.394 1788.43 962.071 1811.32C961.285 1814.72 960.08 1819.92 956.122 1823.76C951.82 1828.05 946.153 1829 941.556 1829ZM312.026 1697.21C312.773 1697.44 313.532 1697.63 314.301 1697.77C393.205 1714.05 474.101 1727.36 552.416 1740.23C654.529 1757.04 760.157 1774.4 862.651 1798.57L871.747 1800.72C893.16 1805.81 915.299 1811.07 937.29 1813.9C941.912 1814.49 944.776 1814.28 945.784 1813.3C946.792 1812.31 947.296 1809.78 947.702 1808.05C952.938 1785.52 957.302 1762.49 960.695 1739.62C960.927 1738.4 961.005 1737.16 960.928 1735.93C959.86 1735.2 958.687 1734.64 957.45 1734.27C919.798 1720.27 880.008 1711.57 845.724 1704.5C724.435 1679.52 599.656 1661.97 478.981 1644.99C472.854 1644.75 466.758 1643.98 460.764 1642.68C457.912 1642.15 455.233 1641.65 452.639 1641.28L373.144 1630.1C369.272 1629.55 365.289 1628.88 361.442 1628.1C353.132 1626.55 344.54 1624.95 336.857 1625.29C331.006 1625.54 328.252 1628.85 324.737 1640.04C319.03 1657.97 314.844 1676.36 312.223 1695C312.107 1695.73 312.041 1696.47 312.026 1697.21Z"
		fill="#3A3A3A" />
	<path
		d="M691.197 1782.98C690.98 1783.57 690.909 1784.21 690.99 1784.84C691.071 1785.46 691.302 1786.06 691.664 1786.58C692.638 1787.4 693.822 1787.93 695.081 1788.12C704.331 1790.34 713.899 1790.94 723.354 1789.88C730.852 1747.61 738.346 1705.33 745.836 1663.04C746.168 1661.24 719.899 1657.82 716.335 1661.43C713.815 1664.01 713.95 1668.81 713.36 1671.83L710.299 1687.2L698.007 1748.66L691.197 1782.98Z"
		fill="#3A3A3A" />
	<path
		d="M714.208 1797.75C707.169 1797.77 700.154 1796.94 693.311 1795.29C690.621 1794.81 688.139 1793.53 686.194 1791.61C685.037 1790.24 684.227 1788.62 683.833 1786.88C683.439 1785.14 683.473 1783.33 683.932 1781.6L706.058 1670.45C706.144 1670 706.23 1669.28 706.316 1668.52C706.722 1665.15 707.337 1660.06 710.988 1656.34C713.372 1653.88 717.466 1651.78 731.147 1652.76C733.298 1652.91 744.251 1653.8 748.627 1656.05C750.166 1656.77 751.427 1657.98 752.217 1659.48C753.007 1660.99 753.283 1662.71 753.003 1664.39L730.52 1791.22C730.241 1792.79 729.463 1794.22 728.302 1795.31C727.141 1796.4 725.66 1797.08 724.079 1797.26C720.8 1797.61 717.505 1797.77 714.208 1797.75ZM699.015 1781.45C704.944 1782.67 710.998 1783.18 717.048 1782.95L737.404 1668.2C732.315 1667.44 724.989 1666.97 721.424 1667.34C721.227 1668.24 721.08 1669.46 720.994 1670.22C720.871 1671.23 720.748 1672.26 720.539 1673.28L699.015 1781.45Z"
		fill="#3A3A3A" />
	<path
		d="M388.817 1736.24C398.425 1738.07 408.126 1739.36 417.876 1740.11C422.44 1698.54 429.417 1657.26 438.773 1616.49C433.303 1614.71 420.494 1610 416.106 1615.62C414.127 1618.15 413.648 1622.64 412.824 1625.62C411.406 1630.65 410.034 1635.69 408.706 1640.76C403.355 1661.09 398.692 1681.57 394.717 1702.22C394.152 1705.09 388.411 1736.17 388.817 1736.24Z"
		fill="#3A3A3A" />
	<path
		d="M417.876 1747.49C417.684 1747.5 417.491 1747.5 417.298 1747.49C407.281 1746.71 397.314 1745.38 387.44 1743.52C386.485 1743.34 385.576 1742.97 384.764 1742.43C383.951 1741.9 383.253 1741.21 382.708 1740.41C380.704 1737.44 380.483 1737.14 387.452 1700.9C391.435 1680.17 396.18 1659.31 401.552 1638.9C402.855 1633.98 404.256 1628.8 405.694 1623.65C405.891 1622.98 406.051 1622.23 406.223 1621.43C406.911 1618.24 407.784 1614.29 410.267 1611.1C417.643 1601.72 432.16 1606.55 439.99 1609.15L441.035 1609.5C442.777 1610.07 444.245 1611.27 445.154 1612.86C446.063 1614.45 446.347 1616.32 445.952 1618.11C436.674 1658.6 429.75 1699.59 425.215 1740.89C425.023 1742.7 424.167 1744.38 422.812 1745.59C421.457 1746.81 419.699 1747.49 417.876 1747.49ZM397.151 1730.28C401.859 1731.04 406.604 1731.67 411.349 1732.17C415.681 1695 421.925 1658.07 430.058 1621.54C425.141 1620.19 422.793 1620.13 421.748 1620.45C421.271 1621.79 420.898 1623.17 420.63 1624.58C420.408 1625.58 420.187 1626.63 419.904 1627.64C418.478 1632.71 417.102 1637.77 415.823 1642.65C410.525 1662.74 405.854 1683.28 401.945 1703.68C401.355 1706.86 398.639 1721.5 397.151 1730.22V1730.28Z"
		fill="#3A3A3A" />
	<path
		d="M1216.78 1231.31H1216.65L1132.28 1229.77C1130.33 1229.73 1128.47 1228.92 1127.11 1227.51C1125.75 1226.11 1125.01 1224.22 1125.04 1222.26C1125.08 1220.3 1125.89 1218.44 1127.3 1217.08C1128.71 1215.73 1130.6 1214.98 1132.55 1215.02L1211.66 1216.46C1253.26 1102.29 1303.45 991.427 1361.79 884.835C1362.24 883.952 1362.86 883.169 1363.62 882.531C1364.37 881.893 1365.25 881.413 1366.19 881.12C1367.14 880.827 1368.13 880.727 1369.11 880.826C1370.1 880.925 1371.05 881.22 1371.92 881.695C1372.78 882.17 1373.55 882.815 1374.16 883.59C1374.77 884.366 1375.23 885.257 1375.49 886.21C1375.75 887.163 1375.82 888.16 1375.69 889.14C1375.56 890.12 1375.23 891.064 1374.73 891.915C1315.9 999.395 1265.42 1111.23 1223.71 1226.44C1223.2 1227.86 1222.26 1229.1 1221.02 1229.97C1219.78 1230.84 1218.3 1231.31 1216.78 1231.31Z"
		fill="#3A3A3A" />
	<path
		d="M1237.03 1242.95C1235.65 1242.95 1234.31 1242.57 1233.14 1241.84C1231.03 1240.64 1228.84 1239.57 1226.59 1238.66C1221.18 1236.3 1215.05 1233.62 1211 1228.51C1209.79 1226.97 1209.23 1225.02 1209.46 1223.08C1209.69 1221.13 1210.67 1219.36 1212.21 1218.14C1213.74 1216.93 1215.7 1216.37 1217.64 1216.6C1219.58 1216.83 1221.36 1217.81 1222.57 1219.35C1224.33 1221.57 1228.48 1223.39 1232.49 1225.14C1235.4 1226.33 1238.22 1227.72 1240.92 1229.31C1242.29 1230.15 1243.34 1231.42 1243.92 1232.92C1244.5 1234.41 1244.57 1236.06 1244.13 1237.6C1243.69 1239.14 1242.76 1240.5 1241.48 1241.47C1240.19 1242.43 1238.63 1242.95 1237.03 1242.95Z"
		fill="#3A3A3A" />
	<path
		d="M1123.13 1480.86C1112.63 1480.86 1102.13 1480.39 1091.62 1479.47C1090.65 1479.38 1089.71 1479.11 1088.85 1478.66C1087.99 1478.21 1087.22 1477.59 1086.6 1476.85C1085.97 1476.1 1085.5 1475.24 1085.21 1474.31C1084.92 1473.38 1084.81 1472.41 1084.9 1471.44C1084.98 1470.47 1085.26 1469.53 1085.71 1468.67C1086.16 1467.8 1086.77 1467.04 1087.52 1466.41C1088.26 1465.79 1089.12 1465.32 1090.05 1465.03C1090.98 1464.74 1091.96 1464.63 1092.92 1464.72C1128.35 1467.84 1164.04 1465.45 1198.72 1457.61C1206.42 1455.88 1214.35 1453.82 1222.08 1451.83C1252.99 1443.82 1284.97 1435.53 1316.83 1443.23C1321.62 1444.38 1334.35 1447.46 1336.61 1442.95C1337.13 1441.54 1337.44 1440.06 1337.53 1438.56C1337.6 1438.03 1337.66 1437.5 1337.74 1436.97C1340.12 1420.24 1349.67 1406.68 1358.92 1393.58C1360.74 1391 1362.61 1388.34 1364.36 1385.74C1384.03 1356.62 1396.2 1322.44 1407.98 1287.05C1449.84 1161 1484.86 1032.78 1512.88 902.942C1513.08 901.99 1513.46 901.087 1514.01 900.284C1514.56 899.481 1515.27 898.795 1516.08 898.265C1516.9 897.735 1517.81 897.372 1518.77 897.196C1519.72 897.02 1520.7 897.035 1521.65 897.24C1522.61 897.445 1523.51 897.836 1524.31 898.391C1525.1 898.945 1525.79 899.653 1526.31 900.472C1526.84 901.291 1527.19 902.205 1527.36 903.163C1527.53 904.121 1527.51 905.103 1527.3 906.052C1499.14 1036.42 1463.96 1165.17 1421.9 1291.74C1409.81 1328.13 1397.22 1363.35 1376.53 1394.02C1374.69 1396.74 1372.77 1399.47 1370.92 1402.11C1362.31 1414.32 1354.16 1425.86 1352.28 1439.07C1352.22 1439.53 1352.16 1439.98 1352.11 1440.44C1351.85 1443.61 1351.04 1446.71 1349.72 1449.61C1342.19 1464.57 1322.68 1459.86 1313.3 1457.59C1285.03 1450.75 1254.88 1458.57 1225.72 1466.19C1217.94 1468.21 1209.9 1470.28 1201.98 1472.07C1176.1 1477.91 1149.66 1480.86 1123.13 1480.86Z"
		fill="#3A3A3A" />
	<path
		d="M1309.02 1424.81C1307.69 1424.82 1306.37 1424.71 1305.05 1424.49C1304.08 1424.35 1303.15 1424.02 1302.31 1423.52C1301.47 1423.01 1300.74 1422.34 1300.16 1421.55C1299.58 1420.76 1299.16 1419.86 1298.94 1418.91C1298.71 1417.96 1298.67 1416.97 1298.83 1416C1298.99 1415.03 1299.34 1414.11 1299.86 1413.28C1300.38 1412.45 1301.06 1411.73 1301.86 1411.16C1302.66 1410.6 1303.57 1410.2 1304.53 1409.99C1305.48 1409.78 1306.47 1409.76 1307.44 1409.94C1310.09 1410.24 1312.76 1409.65 1315.03 1408.26C1317.31 1406.87 1319.05 1404.76 1319.99 1402.27C1320.59 1400.41 1321.91 1398.86 1323.65 1397.97C1325.39 1397.08 1327.41 1396.92 1329.28 1397.52C1331.14 1398.12 1332.68 1399.44 1333.57 1401.18C1334.47 1402.92 1334.63 1404.94 1334.03 1406.8C1332.24 1412.03 1328.88 1416.57 1324.4 1419.8C1319.92 1423.02 1314.54 1424.78 1309.02 1424.81Z"
		fill="#3A3A3A" />
	<path
		d="M1385.72 843.826C1385.13 843.823 1384.55 843.753 1383.98 843.617C1382.08 843.159 1380.44 841.966 1379.42 840.3C1378.4 838.634 1378.08 836.63 1378.54 834.73C1391.89 779.131 1409.27 723.791 1426.02 670.27C1436.15 637.941 1446.64 604.518 1456.1 571.44C1466.35 535.632 1483.27 522.356 1495.63 517.525C1509.28 512.203 1521.93 515.067 1529.22 519.504C1553.05 534.034 1557.81 559.774 1542.3 590.112C1540.66 593.308 1539.01 596.491 1537.38 599.687C1530.62 612.779 1523.62 626.313 1517.71 639.969C1517.38 640.926 1516.85 641.804 1516.17 642.548C1515.48 643.292 1514.65 643.887 1513.72 644.296C1512.79 644.705 1511.79 644.918 1510.78 644.924C1509.77 644.929 1508.77 644.725 1507.84 644.326C1506.91 643.927 1506.07 643.34 1505.37 642.603C1504.68 641.865 1504.14 640.993 1503.8 640.04C1503.46 639.087 1503.32 638.074 1503.38 637.064C1503.45 636.053 1503.73 635.067 1504.19 634.167C1510.25 620.007 1517.37 606.239 1524.25 592.914L1529.17 583.4C1541.23 559.799 1538.67 542.54 1521.53 532.104C1517.45 529.645 1509.63 527.9 1501.01 531.268C1491.72 534.894 1478.88 545.503 1470.27 575.521C1460.75 608.784 1450.25 642.293 1440.08 674.708C1423.38 727.995 1406.11 783.09 1392.86 838.196C1392.47 839.798 1391.55 841.222 1390.26 842.243C1388.96 843.263 1387.36 843.821 1385.72 843.826Z"
		fill="#3A3A3A" />
	<path
		d="M1491.04 678.05C1489.68 678.049 1488.35 677.674 1487.19 676.966C1486.04 676.259 1485.1 675.246 1484.48 674.039C1483.86 672.832 1483.58 671.477 1483.69 670.125C1483.79 668.772 1484.26 667.474 1485.05 666.372C1488.76 660.954 1492.13 655.309 1495.14 649.47C1497.4 645.303 1499.74 641 1502.35 636.821C1510.73 623.299 1520.05 614.695 1530.83 610.491C1536.59 608.242 1542.78 607.286 1548.96 607.693C1555.13 608.099 1561.14 609.857 1566.56 612.843C1571.98 615.828 1576.68 619.968 1580.33 624.97C1583.97 629.971 1586.47 635.712 1587.65 641.787C1587.99 643.694 1587.57 645.658 1586.47 647.254C1585.38 648.85 1583.7 649.952 1581.79 650.32C1579.89 650.688 1577.92 650.293 1576.31 649.221C1574.7 648.149 1573.57 646.485 1573.17 644.59C1572.41 640.636 1570.78 636.9 1568.41 633.645C1566.04 630.39 1562.98 627.696 1559.45 625.753C1555.93 623.811 1552.01 622.668 1548 622.406C1543.98 622.143 1539.95 622.767 1536.2 624.234C1528.49 627.245 1521.52 633.908 1514.87 644.602C1512.5 648.413 1510.36 652.346 1508.1 656.513C1504.8 662.886 1501.11 669.045 1497.04 674.952C1496.35 675.909 1495.45 676.689 1494.41 677.228C1493.37 677.766 1492.21 678.048 1491.04 678.05Z"
		fill="#3A3A3A" />
	<path
		d="M1601.35 791.461H1601.09C1599.13 791.461 1597.26 790.684 1595.88 789.301C1594.49 787.918 1593.71 786.042 1593.71 784.086C1593.71 782.13 1594.49 780.254 1595.88 778.871C1597.26 777.487 1599.13 776.71 1601.09 776.71H1601.3C1614.35 776.71 1623.94 772.642 1630.63 764.27C1649.78 740.325 1640.01 689.287 1636.55 674.229C1634.46 665.071 1632.33 657.02 1627.48 651.39C1621.14 644.014 1614.6 640.548 1607.49 640.855C1595.87 641.334 1585.25 651.918 1581.26 657.376C1578.8 660.818 1576.47 664.444 1574.03 668.279C1568.76 676.614 1563.3 685.231 1555.42 692.188C1554.7 692.834 1553.85 693.33 1552.93 693.649C1552.01 693.967 1551.04 694.102 1550.07 694.045C1549.1 693.988 1548.15 693.74 1547.28 693.316C1546.4 692.892 1545.62 692.3 1544.98 691.573C1544.33 690.847 1543.83 690 1543.52 689.082C1543.2 688.164 1543.06 687.192 1543.12 686.222C1543.18 685.252 1543.42 684.302 1543.85 683.428C1544.27 682.553 1544.86 681.771 1545.59 681.125C1551.9 675.556 1556.57 668.181 1561.57 660.375C1564.03 656.516 1566.49 652.521 1569.31 648.698C1576.58 638.692 1590.76 626.768 1606.89 626.104C1618.63 625.625 1629.33 630.886 1638.67 641.765C1646.29 650.628 1648.97 662.354 1650.96 670.922C1655.88 692.323 1664.81 745.156 1642.17 773.477C1632.67 785.413 1618.91 791.461 1601.35 791.461Z"
		fill="#3A3A3A" />
	<path
		d="M1531.8 882.413C1530.18 882.416 1528.61 881.889 1527.32 880.912C1526.04 879.936 1525.11 878.564 1524.68 877.007C1524.25 875.451 1524.34 873.795 1524.94 872.296C1525.54 870.797 1526.61 869.536 1528 868.707C1575.82 840.176 1608.47 772.101 1600.77 716.958C1600.64 715.998 1600.69 715.021 1600.94 714.083C1601.18 713.145 1601.61 712.265 1602.19 711.491C1602.77 710.718 1603.5 710.067 1604.34 709.576C1605.17 709.085 1606.1 708.763 1607.06 708.629C1608.02 708.495 1608.99 708.552 1609.93 708.795C1610.87 709.039 1611.75 709.465 1612.52 710.048C1613.3 710.632 1613.95 711.363 1614.44 712.198C1614.93 713.033 1615.25 713.957 1615.39 714.917C1619.49 744.419 1613.49 777.878 1598.48 809.175C1583.48 840.471 1561.13 866.113 1535.56 881.368C1534.42 882.054 1533.12 882.415 1531.8 882.413Z"
		fill="#3A3A3A" />
	<path
		d="M1489.23 576.355C1484.62 576.305 1480.08 575.142 1476.02 572.963C1471.95 570.784 1468.47 567.655 1465.87 563.841C1465.34 563.034 1464.96 562.129 1464.78 561.178C1464.59 560.227 1464.59 559.249 1464.78 558.298C1464.98 557.348 1465.35 556.445 1465.89 555.64C1466.43 554.835 1467.13 554.145 1467.93 553.608C1468.74 553.071 1469.65 552.699 1470.6 552.512C1471.55 552.325 1472.53 552.327 1473.48 552.518C1474.43 552.709 1475.33 553.086 1476.13 553.626C1476.94 554.166 1477.63 554.86 1478.17 555.667C1479.44 557.578 1481.19 559.128 1483.24 560.166C1485.29 561.203 1487.57 561.694 1489.87 561.59C1492.16 561.486 1494.39 560.791 1496.34 559.573C1498.28 558.354 1499.88 556.653 1500.98 554.634C1501.92 552.915 1503.49 551.637 1505.37 551.081C1507.25 550.525 1509.27 550.738 1510.99 551.672C1512.71 552.606 1513.99 554.185 1514.54 556.061C1515.1 557.938 1514.88 559.958 1513.95 561.678C1511.61 565.89 1508.24 569.441 1504.15 572.002C1500.07 574.564 1495.41 576.053 1490.59 576.33L1489.23 576.355Z"
		fill="#3A3A3A" />
	<path
		d="M1433.45 896.723C1432.86 896.72 1432.28 896.65 1431.71 896.514C1430.54 896.226 1429.45 895.652 1428.55 894.844C1427.64 894.036 1426.95 893.018 1426.54 891.88C1423.88 884.661 1422.12 877.143 1421.29 869.495C1421.08 867.55 1421.65 865.601 1422.87 864.076C1424.1 862.551 1425.88 861.576 1427.82 861.364C1429.77 861.152 1431.72 861.721 1433.24 862.946C1434.77 864.172 1435.74 865.952 1435.95 867.897C1436.23 870.567 1436.64 873.222 1437.18 875.85L1444.15 869.446C1445.6 868.181 1447.49 867.533 1449.41 867.638C1451.33 867.743 1453.13 868.595 1454.43 870.01C1455.73 871.426 1456.43 873.293 1456.38 875.216C1456.32 877.138 1455.52 878.962 1454.13 880.3L1438.41 894.756C1437.06 896.009 1435.29 896.711 1433.45 896.723Z"
		fill="#3A3A3A" />
	<path
		d="M1561.88 401.327C1561.1 401.331 1560.33 401.206 1559.59 400.958C1557.73 400.351 1556.19 399.031 1555.31 397.288C1554.42 395.546 1554.27 393.524 1554.87 391.665C1566.65 355.513 1577 318.39 1585.47 281.329C1585.91 279.42 1587.08 277.764 1588.74 276.724C1590.4 275.684 1592.41 275.347 1594.32 275.785C1596.23 276.224 1597.88 277.402 1598.92 279.062C1599.96 280.722 1600.3 282.727 1599.86 284.636C1591.26 322.115 1580.82 359.619 1568.9 396.238C1568.41 397.719 1567.47 399.009 1566.21 399.923C1564.95 400.837 1563.43 401.329 1561.88 401.327Z"
		fill="#3A3A3A" />
	<path
		d="M1523.39 382.064C1522.94 382.064 1522.5 382.023 1522.06 381.941C1521.11 381.766 1520.2 381.405 1519.38 380.878C1518.57 380.351 1517.86 379.668 1517.31 378.868C1516.76 378.069 1516.38 377.169 1516.17 376.219C1515.97 375.27 1515.96 374.29 1516.14 373.336C1518.37 361.048 1519.45 348.579 1519.37 336.09C1519.37 334.134 1520.15 332.258 1521.53 330.875C1522.91 329.492 1524.79 328.715 1526.75 328.715C1528.7 328.715 1530.58 329.492 1531.96 330.875C1533.34 332.258 1534.12 334.134 1534.12 336.09C1534.21 349.498 1533.04 362.885 1530.64 376.077C1530.32 377.763 1529.42 379.284 1528.09 380.376C1526.77 381.469 1525.11 382.066 1523.39 382.064Z"
		fill="#3A3A3A" />
	<path
		d="M1437.09 389.87C1435.69 389.874 1434.32 389.48 1433.14 388.736C1431.96 387.992 1431.01 386.927 1430.41 385.666C1413.95 351.039 1398.95 315.219 1385.81 279.19C1385.48 278.28 1385.33 277.313 1385.38 276.345C1385.42 275.377 1385.65 274.426 1386.06 273.548C1386.47 272.669 1387.05 271.88 1387.76 271.225C1388.47 270.571 1389.31 270.063 1390.22 269.731C1391.13 269.399 1392.1 269.25 1393.07 269.292C1394.03 269.334 1394.98 269.566 1395.86 269.975C1396.74 270.385 1397.53 270.963 1398.19 271.677C1398.84 272.391 1399.35 273.227 1399.68 274.138C1412.65 309.786 1427.47 345.126 1443.74 379.324C1444.27 380.447 1444.51 381.688 1444.44 382.93C1444.37 384.173 1443.98 385.376 1443.32 386.429C1442.65 387.482 1441.73 388.349 1440.64 388.951C1439.55 389.553 1438.33 389.869 1437.09 389.87Z"
		fill="#3A3A3A" />
	<path
		d="M1692.42 528.556C1690.67 528.558 1688.98 527.937 1687.64 526.803C1686.31 525.67 1685.42 524.098 1685.14 522.37C1684.85 520.642 1685.2 518.869 1686.1 517.37C1687 515.87 1688.41 514.742 1690.07 514.186L1717.59 504.979C1719.44 504.358 1721.47 504.499 1723.22 505.372C1724.97 506.245 1726.3 507.777 1726.92 509.632C1727.54 511.487 1727.4 513.513 1726.53 515.264C1725.66 517.014 1724.12 518.347 1722.27 518.968L1694.76 528.175C1694.01 528.427 1693.22 528.556 1692.42 528.556Z"
		fill="#3A3A3A" />
	<path
		d="M1753.52 572.374C1753.32 572.386 1753.12 572.386 1752.93 572.374L1690.23 567.457C1688.28 567.304 1686.46 566.38 1685.19 564.888C1683.91 563.397 1683.28 561.46 1683.44 559.504C1683.59 557.548 1684.51 555.733 1686.01 554.458C1687.5 553.183 1689.43 552.553 1691.39 552.706L1754.08 557.623C1755.05 557.661 1756 557.889 1756.88 558.295C1757.76 558.701 1758.55 559.276 1759.21 559.988C1759.87 560.699 1760.38 561.534 1760.72 562.443C1761.05 563.352 1761.21 564.319 1761.17 565.287C1761.13 566.256 1760.9 567.208 1760.5 568.088C1760.09 568.968 1759.51 569.76 1758.8 570.418C1758.09 571.076 1757.26 571.588 1756.35 571.923C1755.44 572.259 1754.47 572.412 1753.5 572.374H1753.52Z"
		fill="#3A3A3A" />
	<path
		d="M1456.89 938.086C1456.05 938.091 1455.22 937.954 1454.43 937.68L1387.83 914.608C1385.98 913.966 1384.47 912.618 1383.62 910.859C1382.76 909.101 1382.64 907.075 1383.28 905.229L1413.87 816.957C1414.5 815.109 1415.85 813.59 1417.61 812.735C1419.37 811.879 1421.4 811.758 1423.24 812.397L1489.84 835.469C1491.69 836.111 1493.21 837.459 1494.06 839.218C1494.91 840.976 1495.03 843.002 1494.39 844.848L1463.81 933.12C1463.3 934.56 1462.36 935.807 1461.11 936.688C1459.86 937.569 1458.37 938.04 1456.84 938.037L1456.89 938.086ZM1399.68 903.09L1452.35 921.381L1478.17 847.037L1425.51 828.795L1399.68 903.09Z"
		fill="#3A3A3A" />
	<path d="M1373.63 820.055L1351.64 882.315L1393.59 898.136L1416.66 831.548L1373.63 820.055Z"
		fill="#3A3A3A" />
	<path
		d="M1393.59 905.509C1392.7 905.514 1391.82 905.355 1390.99 905.042L1349.1 889.222C1347.29 888.541 1345.82 887.178 1345.01 885.427C1344.19 883.675 1344.1 881.675 1344.75 879.855L1366.74 817.594C1367.35 815.842 1368.61 814.389 1370.25 813.523C1371.9 812.657 1373.8 812.442 1375.6 812.923L1418.62 824.428C1419.6 824.69 1420.52 825.151 1421.31 825.782C1422.1 826.412 1422.76 827.2 1423.23 828.095C1423.71 828.99 1423.99 829.973 1424.07 830.984C1424.15 831.994 1424.02 833.01 1423.69 833.967L1400.63 900.555C1400.12 901.996 1399.17 903.242 1397.92 904.123C1396.68 905.004 1395.18 905.475 1393.66 905.472L1393.59 905.509ZM1361.01 877.962L1389.1 888.558L1407.09 836.622L1378.33 828.94L1361.01 877.962Z"
		fill="#3A3A3A" />
	<path d="M1547.18 883.546L1525.38 944.049L1461.42 917.633L1483.58 853.676L1547.18 883.546Z"
		fill="#3A3A3A" />
	<path
		d="M1525.38 951.42C1524.42 951.421 1523.46 951.233 1522.57 950.866L1458.65 924.438C1456.91 923.72 1455.51 922.364 1454.73 920.647C1453.96 918.931 1453.88 916.985 1454.49 915.206L1476.62 851.286C1476.96 850.31 1477.5 849.415 1478.21 848.662C1478.91 847.908 1479.77 847.311 1480.72 846.91C1481.68 846.509 1482.7 846.312 1483.74 846.334C1484.77 846.355 1485.79 846.593 1486.72 847.033L1550.31 876.891C1551.97 877.673 1553.29 879.048 1553.99 880.747C1554.69 882.445 1554.73 884.345 1554.11 886.073L1532.31 946.589C1531.98 947.525 1531.45 948.384 1530.78 949.113C1530.1 949.842 1529.28 950.426 1528.37 950.83C1527.42 951.23 1526.41 951.431 1525.38 951.42ZM1470.67 913.461L1521.07 934.284L1537.97 887.352L1487.88 863.824L1470.67 913.461Z"
		fill="#3A3A3A" />
	<path
		d="M1282.71 336.082H1119.38C1110.97 336.082 1104.16 342.895 1104.16 351.3V443.702C1104.16 452.106 1110.97 458.92 1119.38 458.92H1282.71C1291.11 458.92 1297.92 452.106 1297.92 443.702V351.3C1297.92 342.895 1291.11 336.082 1282.71 336.082Z"
		fill="#F05D48" />
	<path
		d="M1282.72 466.292H1119.38C1113.39 466.282 1107.65 463.898 1103.41 459.663C1099.18 455.428 1096.79 449.687 1096.78 443.698V351.296C1096.79 345.306 1099.17 339.563 1103.41 335.328C1107.64 331.092 1113.39 328.71 1119.38 328.703H1282.72C1288.71 328.706 1294.45 331.088 1298.69 335.324C1302.93 339.561 1305.31 345.305 1305.31 351.296V443.698C1305.3 449.688 1302.92 455.431 1298.69 459.667C1294.45 463.903 1288.71 466.285 1282.72 466.292ZM1119.38 343.454C1117.3 343.454 1115.3 344.28 1113.83 345.751C1112.36 347.222 1111.53 349.217 1111.53 351.296V443.698C1111.53 445.778 1112.36 447.773 1113.83 449.244C1115.3 450.714 1117.3 451.541 1119.38 451.541H1282.72C1284.8 451.541 1286.79 450.714 1288.26 449.244C1289.73 447.773 1290.56 445.778 1290.56 443.698V351.296C1290.56 349.217 1289.73 347.222 1288.26 345.751C1286.79 344.28 1284.8 343.454 1282.72 343.454H1119.38Z"
		fill="#F05D48" />
	<path
		d="M1875.03 228.091H1808.92C1806.96 228.091 1805.09 227.314 1803.7 225.93C1802.32 224.547 1801.54 222.671 1801.54 220.715C1801.54 218.759 1802.32 216.883 1803.7 215.5C1805.09 214.117 1806.96 213.34 1808.92 213.34H1875.03C1876.98 213.34 1878.86 214.117 1880.24 215.5C1881.62 216.883 1882.4 218.759 1882.4 220.715C1882.4 222.671 1881.62 224.547 1880.24 225.93C1878.86 227.314 1876.98 228.091 1875.03 228.091Z"
		fill="#F05D48" />
	<path
		d="M1814.39 201.871C1812.43 201.871 1810.56 201.094 1809.17 199.711C1807.79 198.327 1807.01 196.451 1807.01 194.495V172.086C1807.01 170.13 1807.79 168.254 1809.17 166.871C1810.56 165.488 1812.43 164.711 1814.39 164.711C1816.34 164.711 1818.22 165.488 1819.6 166.871C1820.99 168.254 1821.76 170.13 1821.76 172.086V194.495C1821.76 196.451 1820.99 198.327 1819.6 199.711C1818.22 201.094 1816.34 201.871 1814.39 201.871Z"
		fill="#F05D48" />
	<path
		d="M1842.02 201.868C1840.06 201.868 1838.19 201.091 1836.81 199.708C1835.42 198.325 1834.65 196.449 1834.65 194.493V143.676C1834.65 141.72 1835.42 139.844 1836.81 138.461C1838.19 137.078 1840.06 136.301 1842.02 136.301C1843.98 136.301 1845.85 137.078 1847.24 138.461C1848.62 139.844 1849.4 141.72 1849.4 143.676V194.493C1849.4 196.449 1848.62 198.325 1847.24 199.708C1845.85 201.091 1843.98 201.868 1842.02 201.868Z"
		fill="#F05D48" />
	<path
		d="M1869.57 201.87C1867.61 201.87 1865.74 201.093 1864.35 199.71C1862.97 198.327 1862.19 196.451 1862.19 194.495V122.375C1862.19 120.419 1862.97 118.543 1864.35 117.16C1865.74 115.777 1867.61 115 1869.57 115C1871.52 115 1873.4 115.777 1874.78 117.16C1876.17 118.543 1876.94 120.419 1876.94 122.375V194.495C1876.94 196.451 1876.17 198.327 1874.78 199.71C1873.4 201.093 1871.52 201.87 1869.57 201.87Z"
		fill="#F05D48" />
	<path
		d="M1774.66 1271.26C1761.18 1271.25 1748 1267.25 1736.79 1259.76C1725.58 1252.27 1716.84 1241.62 1711.68 1229.16C1706.53 1216.71 1705.18 1203 1707.81 1189.78C1710.44 1176.55 1716.93 1164.41 1726.47 1154.87C1736 1145.34 1748.15 1138.85 1761.38 1136.22C1774.6 1133.59 1788.31 1134.94 1800.76 1140.1C1813.22 1145.26 1823.87 1154 1831.36 1165.21C1838.85 1176.42 1842.84 1189.6 1842.84 1203.08C1842.82 1221.16 1835.63 1238.49 1822.85 1251.27C1810.07 1264.05 1792.74 1271.24 1774.66 1271.26ZM1774.66 1149.66C1764.09 1149.66 1753.77 1152.8 1744.98 1158.67C1736.2 1164.54 1729.35 1172.89 1725.31 1182.65C1721.27 1192.41 1720.21 1203.15 1722.28 1213.51C1724.34 1223.88 1729.43 1233.39 1736.9 1240.86C1744.37 1248.33 1753.89 1253.42 1764.25 1255.48C1774.62 1257.54 1785.36 1256.48 1795.12 1252.44C1804.88 1248.39 1813.22 1241.55 1819.09 1232.76C1824.96 1223.98 1828.09 1213.65 1828.09 1203.08C1828.08 1188.92 1822.44 1175.34 1812.42 1165.32C1802.41 1155.31 1788.82 1149.67 1774.66 1149.66Z"
		fill="#F05D48" />
	<path
		d="M1774.66 1203.09L1793.67 1145.31C1793.67 1145.31 1821.95 1151.31 1833.82 1188.99L1774.66 1203.09Z"
		fill="#F05D48" />
	<path
		d="M1774.66 1210.46C1773.49 1210.46 1772.34 1210.18 1771.3 1209.65C1770.26 1209.12 1769.36 1208.35 1768.68 1207.4C1768 1206.46 1767.55 1205.36 1767.37 1204.21C1767.19 1203.06 1767.29 1201.88 1767.65 1200.77L1786.67 1143C1787.24 1141.26 1788.43 1139.79 1790.02 1138.88C1791.61 1137.97 1793.48 1137.68 1795.27 1138.08C1796.6 1138.36 1827.9 1145.46 1840.91 1186.76C1841.22 1187.72 1841.32 1188.74 1841.21 1189.75C1841.11 1190.76 1840.8 1191.73 1840.3 1192.61C1839.8 1193.49 1839.12 1194.26 1838.31 1194.87C1837.5 1195.48 1836.58 1195.91 1835.59 1196.15L1776.37 1210.25C1775.81 1210.39 1775.23 1210.46 1774.66 1210.46ZM1798.28 1154.93L1785.8 1192.88L1824.02 1183.78C1816.55 1166.32 1805.25 1158.34 1798.28 1154.93Z"
		fill="#F05D48" />
	<path
		d="M1826.04 1235.74C1824.91 1235.74 1823.8 1235.48 1822.78 1234.98L1771.4 1209.7C1769.65 1208.83 1768.3 1207.31 1767.67 1205.45C1767.04 1203.6 1767.17 1201.57 1768.04 1199.82C1768.9 1198.06 1770.43 1196.72 1772.28 1196.09C1774.13 1195.46 1776.16 1195.59 1777.92 1196.46L1829.3 1221.74C1830.8 1222.48 1832 1223.7 1832.72 1225.2C1833.44 1226.71 1833.62 1228.41 1833.24 1230.04C1832.86 1231.66 1831.95 1233.11 1830.64 1234.15C1829.33 1235.19 1827.71 1235.75 1826.04 1235.74Z"
		fill="#F05D48" />
	<path
		d="M1648.38 1655.59C1644.34 1655.59 1640.39 1654.4 1637.03 1652.15C1633.67 1649.91 1631.05 1646.72 1629.51 1642.99C1627.96 1639.26 1627.55 1635.16 1628.34 1631.2C1629.13 1627.23 1631.07 1623.6 1633.92 1620.74C1636.78 1617.88 1640.42 1615.94 1644.38 1615.15C1648.34 1614.36 1652.45 1614.76 1656.18 1616.31C1659.91 1617.85 1663.1 1620.47 1665.34 1623.83C1667.59 1627.18 1668.78 1631.13 1668.78 1635.17C1668.78 1640.58 1666.63 1645.77 1662.8 1649.6C1658.98 1653.42 1653.79 1655.58 1648.38 1655.59ZM1648.38 1629.52C1647.26 1629.51 1646.16 1629.85 1645.23 1630.47C1644.29 1631.09 1643.56 1631.97 1643.13 1633.01C1642.7 1634.05 1642.59 1635.19 1642.81 1636.29C1643.03 1637.39 1643.57 1638.4 1644.36 1639.19C1645.15 1639.98 1646.16 1640.52 1647.26 1640.74C1648.36 1640.96 1649.5 1640.85 1650.54 1640.42C1651.58 1639.99 1652.46 1639.26 1653.08 1638.32C1653.71 1637.39 1654.04 1636.29 1654.03 1635.17C1654.03 1633.67 1653.43 1632.24 1652.37 1631.18C1651.31 1630.12 1649.88 1629.52 1648.38 1629.52Z"
		fill="#F05D48" />
	<path
		d="M1844.71 836.659C1837.26 836.662 1829.97 834.453 1823.76 830.311C1817.56 826.17 1812.73 820.283 1809.87 813.394C1807.02 806.506 1806.27 798.925 1807.72 791.611C1809.18 784.297 1812.77 777.578 1818.04 772.304C1823.31 767.031 1830.03 763.439 1837.34 761.983C1844.65 760.527 1852.24 761.273 1859.12 764.126C1866.01 766.98 1871.9 771.812 1876.05 778.012C1880.19 784.212 1882.4 791.501 1882.4 798.958C1882.39 808.951 1878.41 818.531 1871.35 825.598C1864.28 832.665 1854.71 836.643 1844.71 836.659ZM1844.71 776.009C1840.17 776.006 1835.73 777.35 1831.96 779.87C1828.18 782.391 1825.24 785.974 1823.5 790.167C1821.76 794.361 1821.31 798.976 1822.19 803.428C1823.07 807.881 1825.26 811.971 1828.47 815.182C1831.68 818.393 1835.77 820.58 1840.22 821.466C1844.67 822.353 1849.29 821.899 1853.48 820.163C1857.67 818.426 1861.26 815.484 1863.78 811.71C1866.3 807.936 1867.65 803.498 1867.65 798.958C1867.64 792.876 1865.23 787.044 1860.93 782.742C1856.63 778.44 1850.8 776.018 1844.71 776.009Z"
		fill="#F05D48" />
	<path
		d="M232.642 486.3C229.805 486.3 227.032 485.458 224.673 483.882C222.314 482.306 220.475 480.065 219.389 477.444C218.303 474.823 218.019 471.939 218.573 469.156C219.126 466.373 220.493 463.817 222.499 461.811C224.505 459.805 227.061 458.439 229.844 457.885C232.626 457.332 235.511 457.616 238.132 458.701C240.753 459.787 242.994 461.626 244.57 463.985C246.146 466.344 246.988 469.117 246.988 471.955C246.981 475.757 245.468 479.402 242.779 482.091C240.09 484.78 236.445 486.293 232.642 486.3ZM232.642 471.549C232.535 471.549 232.432 471.592 232.356 471.668C232.279 471.744 232.237 471.847 232.237 471.955C232.237 472.062 232.279 472.165 232.356 472.241C232.432 472.317 232.535 472.36 232.642 472.36C232.75 472.36 232.853 472.317 232.929 472.241C233.005 472.165 233.048 472.062 233.048 471.955C233.048 471.847 233.005 471.744 232.929 471.668C232.853 471.592 232.75 471.549 232.642 471.549Z"
		fill="#F05D48" />
	<path
		d="M470.696 328.06C466.157 328.06 461.72 326.714 457.946 324.192C454.172 321.67 451.23 318.086 449.493 313.893C447.756 309.699 447.302 305.085 448.187 300.633C449.073 296.181 451.259 292.092 454.468 288.882C457.678 285.672 461.767 283.487 466.219 282.601C470.671 281.716 475.285 282.17 479.479 283.907C483.672 285.644 487.257 288.586 489.778 292.36C492.3 296.134 493.646 300.571 493.646 305.11C493.64 311.195 491.22 317.028 486.917 321.331C482.615 325.633 476.781 328.053 470.696 328.06ZM470.696 296.911C469.075 296.911 467.49 297.392 466.141 298.293C464.793 299.194 463.742 300.474 463.121 301.972C462.501 303.471 462.339 305.119 462.655 306.71C462.971 308.3 463.752 309.761 464.899 310.908C466.045 312.054 467.506 312.835 469.097 313.151C470.687 313.468 472.336 313.305 473.834 312.685C475.332 312.064 476.613 311.013 477.514 309.665C478.415 308.317 478.895 306.732 478.895 305.11C478.892 302.938 478.027 300.855 476.49 299.32C474.952 297.785 472.869 296.923 470.696 296.923V296.911Z"
		fill="#F05D48" />
	<path
		d="M1276.49 201.869C1270.7 201.869 1265.05 200.154 1260.25 196.942C1255.44 193.73 1251.69 189.165 1249.48 183.824C1247.27 178.483 1246.69 172.605 1247.82 166.935C1248.94 161.264 1251.73 156.056 1255.82 151.968C1259.9 147.88 1265.11 145.096 1270.78 143.968C1276.45 142.84 1282.33 143.419 1287.67 145.631C1293.01 147.844 1297.58 151.59 1300.79 156.398C1304 161.205 1305.72 166.856 1305.72 172.638C1305.71 180.387 1302.62 187.817 1297.14 193.296C1291.66 198.776 1284.24 201.859 1276.49 201.869ZM1276.49 158.157C1273.62 158.157 1270.82 159.006 1268.44 160.597C1266.06 162.189 1264.2 164.45 1263.11 167.096C1262.01 169.742 1261.72 172.654 1262.28 175.463C1262.84 178.271 1264.22 180.852 1266.25 182.877C1268.27 184.902 1270.85 186.281 1273.66 186.84C1276.47 187.398 1279.38 187.112 1282.03 186.016C1284.67 184.92 1286.93 183.064 1288.53 180.682C1290.12 178.301 1290.97 175.501 1290.97 172.638C1290.96 168.798 1289.44 165.117 1286.72 162.402C1284.01 159.687 1280.33 158.16 1276.49 158.157Z"
		fill="#F05D48" />
	<path
		d="M1256.69 750.379C1251.35 750.379 1246.12 748.793 1241.67 745.822C1237.22 742.85 1233.76 738.627 1231.71 733.685C1229.66 728.744 1229.13 723.306 1230.17 718.06C1231.21 712.814 1233.79 707.996 1237.57 704.214C1241.35 700.432 1246.17 697.856 1251.42 696.813C1256.66 695.769 1262.1 696.305 1267.04 698.352C1271.99 700.398 1276.21 703.865 1279.18 708.312C1282.15 712.759 1283.74 717.988 1283.74 723.336C1283.74 730.509 1280.89 737.387 1275.82 742.459C1270.75 747.53 1263.87 750.379 1256.69 750.379ZM1256.69 711.044C1254.26 711.044 1251.89 711.765 1249.87 713.115C1247.84 714.466 1246.27 716.386 1245.34 718.632C1244.41 720.878 1244.16 723.35 1244.64 725.734C1245.11 728.119 1246.28 730.309 1248 732.028C1249.72 733.747 1251.91 734.918 1254.3 735.392C1256.68 735.867 1259.15 735.623 1261.4 734.693C1263.65 733.762 1265.56 732.187 1266.92 730.165C1268.27 728.144 1268.99 725.767 1268.99 723.336C1268.99 720.076 1267.69 716.949 1265.39 714.644C1263.08 712.339 1259.96 711.044 1256.69 711.044Z"
		fill="#F05D48" />
	<path
		d="M1840.09 265.26C1837.72 265.26 1835.4 264.557 1833.43 263.238C1831.45 261.92 1829.91 260.046 1829.01 257.854C1828.1 255.662 1827.86 253.25 1828.32 250.922C1828.79 248.595 1829.93 246.457 1831.61 244.78C1833.29 243.102 1835.42 241.959 1837.75 241.496C1840.08 241.033 1842.49 241.271 1844.68 242.179C1846.87 243.087 1848.75 244.625 1850.07 246.598C1851.38 248.571 1852.09 250.89 1852.09 253.263C1852.08 256.444 1850.82 259.494 1848.57 261.743C1846.32 263.992 1843.27 265.257 1840.09 265.26ZM1840.09 250.509C1839.55 250.509 1839.01 250.671 1838.56 250.974C1838.11 251.276 1837.76 251.706 1837.55 252.209C1837.34 252.712 1837.28 253.266 1837.39 253.8C1837.5 254.334 1837.76 254.825 1838.14 255.21C1838.53 255.595 1839.02 255.857 1839.55 255.964C1840.09 256.07 1840.64 256.015 1841.14 255.807C1841.65 255.598 1842.08 255.246 1842.38 254.793C1842.68 254.34 1842.84 253.808 1842.84 253.263C1842.84 252.533 1842.55 251.832 1842.04 251.316C1841.52 250.8 1840.82 250.509 1840.09 250.509Z"
		fill="#F05D48" />
	<path
		d="M1661.42 1598.06C1660.72 1598.07 1660.02 1597.97 1659.34 1597.77C1657.47 1597.22 1655.89 1595.94 1654.95 1594.23C1654.01 1592.51 1653.79 1590.5 1654.34 1588.62L1740.56 1294.4C1740.81 1293.45 1741.25 1292.56 1741.86 1291.78C1742.46 1291 1743.21 1290.35 1744.07 1289.87C1744.93 1289.39 1745.87 1289.08 1746.85 1288.97C1747.83 1288.86 1748.82 1288.94 1749.77 1289.22C1750.71 1289.5 1751.59 1289.96 1752.35 1290.58C1753.11 1291.21 1753.74 1291.98 1754.21 1292.85C1754.67 1293.72 1754.95 1294.67 1755.03 1295.65C1755.12 1296.63 1755.01 1297.62 1754.71 1298.56L1668.49 1592.76C1668.04 1594.29 1667.11 1595.63 1665.84 1596.59C1664.56 1597.54 1663.01 1598.06 1661.42 1598.06Z"
		fill="#F05D48" />
	<path
		d="M1849.4 1793.5C1847.8 1793.5 1846.25 1792.98 1844.97 1792.02L1678.84 1667.53C1677.27 1666.35 1676.24 1664.61 1675.96 1662.67C1675.69 1660.73 1676.19 1658.77 1677.36 1657.2C1678.54 1655.64 1680.29 1654.6 1682.22 1654.32C1684.16 1654.05 1686.13 1654.55 1687.69 1655.73L1853.77 1780.28C1855.01 1781.21 1855.93 1782.51 1856.39 1783.98C1856.85 1785.46 1856.83 1787.05 1856.34 1788.52C1855.85 1789.98 1854.92 1791.26 1853.66 1792.17C1852.4 1793.07 1850.89 1793.56 1849.35 1793.56L1849.4 1793.5Z"
		fill="#F05D48" />
	<path
		d="M1793.64 1120.66C1793.23 1120.67 1792.81 1120.64 1792.41 1120.57C1791.45 1120.42 1790.53 1120.08 1789.7 1119.57C1788.87 1119.06 1788.14 1118.4 1787.57 1117.61C1787 1116.82 1786.59 1115.93 1786.37 1114.98C1786.14 1114.04 1786.11 1113.06 1786.26 1112.1L1828.06 857.903C1828.21 856.941 1828.54 856.017 1829.05 855.186C1829.56 854.355 1830.23 853.633 1831.02 853.062C1831.81 852.49 1832.7 852.081 1833.65 851.857C1834.6 851.634 1835.58 851.6 1836.54 851.758C1837.5 851.917 1838.42 852.264 1839.25 852.78C1840.08 853.296 1840.79 853.97 1841.36 854.764C1841.92 855.559 1842.32 856.457 1842.54 857.407C1842.75 858.357 1842.78 859.34 1842.61 860.3L1800.82 1114.49C1800.53 1116.2 1799.66 1117.76 1798.35 1118.88C1797.04 1120.01 1795.37 1120.64 1793.64 1120.66Z"
		fill="#F05D48" />
	<path
		d="M1713.86 1144.83C1711.94 1144.83 1710.1 1144.08 1708.72 1142.74L1542.09 981.037C1541.36 980.372 1540.77 979.567 1540.35 978.669C1539.94 977.772 1539.71 976.8 1539.68 975.813C1539.65 974.825 1539.82 973.841 1540.17 972.919C1540.53 971.998 1541.07 971.157 1541.76 970.448C1542.44 969.738 1543.27 969.174 1544.18 968.789C1545.09 968.405 1546.07 968.206 1547.05 968.207C1548.04 968.208 1549.02 968.407 1549.93 968.793C1550.84 969.179 1551.66 969.743 1552.35 970.454L1719.05 1132.16C1720.1 1133.18 1720.83 1134.5 1721.13 1135.93C1721.44 1137.37 1721.3 1138.87 1720.75 1140.23C1720.2 1141.59 1719.25 1142.76 1718.03 1143.58C1716.82 1144.4 1715.38 1144.83 1713.91 1144.83H1713.86Z"
		fill="#F05D48" />
	<path
		d="M1784.17 806.333C1783.87 806.351 1783.56 806.351 1783.25 806.333L1664.86 791.46C1662.92 791.215 1661.16 790.209 1659.96 788.664C1658.76 787.118 1658.22 785.159 1658.46 783.218C1658.71 781.276 1659.71 779.512 1661.26 778.312C1662.81 777.112 1664.77 776.575 1666.71 776.82L1785.09 791.706C1786.95 791.947 1788.65 792.884 1789.84 794.328C1791.03 795.772 1791.62 797.614 1791.51 799.482C1791.39 801.349 1790.57 803.103 1789.2 804.386C1787.84 805.67 1786.04 806.388 1784.17 806.395V806.333Z"
		fill="#F05D48" />
	<path
		d="M1343.02 814.057C1341.27 814.057 1339.58 813.434 1338.24 812.299L1284.03 766.104C1282.54 764.836 1281.62 763.028 1281.46 761.078C1281.3 759.127 1281.93 757.195 1283.2 755.705C1284.47 754.215 1286.27 753.29 1288.22 753.133C1290.17 752.976 1292.11 753.601 1293.6 754.869L1347.87 801.076C1349.01 802.056 1349.83 803.363 1350.21 804.822C1350.59 806.282 1350.51 807.822 1349.99 809.236C1349.47 810.651 1348.53 811.871 1347.29 812.733C1346.05 813.595 1344.58 814.057 1343.07 814.057H1343.02Z"
		fill="#F05D48" />
	<path
		d="M1368.27 748.264C1367.92 748.264 1367.57 748.239 1367.23 748.191L1305.14 739.377C1304.17 739.248 1303.24 738.929 1302.4 738.438C1301.56 737.948 1300.83 737.296 1300.24 736.519C1299.65 735.743 1299.22 734.858 1298.98 733.916C1298.73 732.973 1298.68 731.992 1298.82 731.028C1298.95 730.064 1299.28 729.137 1299.78 728.3C1300.27 727.463 1300.93 726.733 1301.71 726.151C1302.49 725.57 1303.38 725.149 1304.33 724.912C1305.27 724.676 1306.25 724.629 1307.22 724.774L1369.31 733.587C1371.15 733.85 1372.83 734.803 1374 736.254C1375.17 737.705 1375.75 739.546 1375.62 741.406C1375.49 743.267 1374.66 745.009 1373.3 746.281C1371.93 747.554 1370.14 748.262 1368.27 748.264Z"
		fill="#F05D48" />
	<path
		d="M1437.07 528.549C1435.78 528.559 1434.51 528.224 1433.39 527.578L1333.53 470.788C1332.69 470.308 1331.95 469.668 1331.36 468.903C1330.76 468.137 1330.33 467.263 1330.07 466.329C1329.81 465.394 1329.74 464.419 1329.87 463.457C1329.99 462.496 1330.3 461.568 1330.77 460.726C1331.25 459.885 1331.89 459.145 1332.66 458.551C1333.42 457.957 1334.3 457.519 1335.23 457.263C1336.17 457.007 1337.14 456.937 1338.11 457.058C1339.07 457.178 1339.99 457.487 1340.84 457.967L1440.69 514.77C1442.1 515.578 1443.21 516.831 1443.84 518.335C1444.46 519.838 1444.57 521.507 1444.15 523.081C1443.73 524.655 1442.8 526.044 1441.51 527.034C1440.21 528.023 1438.63 528.556 1437 528.549H1437.07Z"
		fill="#F05D48" />
	<path
		d="M1249.29 683.818C1247.46 683.827 1245.69 683.152 1244.32 681.924C1242.96 680.697 1242.1 679.005 1241.92 677.18L1222.49 483.698C1222.29 481.752 1222.87 479.807 1224.11 478.291C1225.35 476.775 1227.13 475.813 1229.08 475.616C1231.03 475.418 1232.97 476.002 1234.49 477.239C1236 478.476 1236.97 480.264 1237.16 482.211L1256.66 675.705C1256.75 676.668 1256.66 677.642 1256.38 678.569C1256.1 679.497 1255.64 680.36 1255.03 681.11C1254.42 681.86 1253.66 682.482 1252.81 682.94C1251.96 683.398 1251.02 683.684 1250.06 683.781L1249.29 683.818Z"
		fill="#F05D48" />
	<path
		d="M1584.93 496.888C1583.45 496.888 1582.01 496.445 1580.79 495.618C1579.57 494.79 1578.63 493.616 1578.08 492.246C1577.53 490.877 1577.41 489.375 1577.72 487.934C1578.04 486.494 1578.78 485.181 1579.85 484.166L1803.84 271.323C1805.26 269.975 1807.15 269.246 1809.11 269.295C1811.07 269.345 1812.92 270.169 1814.27 271.588C1815.62 273.006 1816.35 274.901 1816.3 276.857C1816.25 278.813 1815.42 280.67 1814.01 282.018L1590.03 494.835C1588.65 496.152 1586.83 496.887 1584.93 496.888Z"
		fill="#F05D48" />
	<path
		d="M1840.09 750.379C1838.13 750.379 1836.26 749.602 1834.88 748.219C1833.49 746.836 1832.72 744.96 1832.72 743.004V276.668C1832.72 274.712 1833.49 272.836 1834.88 271.453C1836.26 270.07 1838.13 269.293 1840.09 269.293C1842.05 269.293 1843.92 270.07 1845.31 271.453C1846.69 272.836 1847.47 274.712 1847.47 276.668V743.004C1847.47 744.96 1846.69 746.836 1845.31 748.219C1843.92 749.602 1842.05 750.379 1840.09 750.379Z"
		fill="#F05D48" />
	<path
		d="M1804.55 764.578C1802.8 764.579 1801.11 763.955 1799.77 762.82L1587.88 582.27C1586.53 580.968 1585.72 579.201 1585.63 577.329C1585.54 575.456 1586.16 573.618 1587.37 572.188C1588.59 570.759 1590.3 569.845 1592.16 569.633C1594.02 569.421 1595.9 569.927 1597.4 571.047L1809.3 751.609C1810.44 752.589 1811.26 753.895 1811.64 755.353C1812.02 756.811 1811.95 758.35 1811.43 759.764C1810.9 761.178 1809.96 762.398 1808.73 763.261C1807.49 764.124 1806.02 764.588 1804.52 764.59L1804.55 764.578Z"
		fill="#F05D48" />
	<path
		d="M1791.45 256.019C1791.04 256.023 1790.63 255.994 1790.22 255.933L1329.5 182.277C1327.57 181.96 1325.84 180.89 1324.7 179.3C1323.56 177.711 1323.1 175.733 1323.41 173.801C1323.73 171.87 1324.8 170.143 1326.39 169C1327.98 167.858 1329.96 167.394 1331.89 167.71L1792.61 241.366C1794.43 241.667 1796.07 242.641 1797.21 244.096C1798.35 245.551 1798.9 247.381 1798.76 249.223C1798.61 251.066 1797.78 252.786 1796.43 254.045C1795.07 255.303 1793.3 256.008 1791.45 256.019Z"
		fill="#F05D48" />
	<path
		d="M1222.17 320.973C1221.29 320.973 1220.42 320.815 1219.6 320.506C1218.69 320.168 1217.86 319.654 1217.15 318.994C1216.44 318.335 1215.86 317.541 1215.46 316.66C1215.06 315.779 1214.83 314.827 1214.8 313.858C1214.76 312.89 1214.92 311.924 1215.26 311.016L1249.79 218.147C1250.47 216.313 1251.85 214.825 1253.63 214.01C1255.41 213.195 1257.44 213.12 1259.27 213.802C1261.1 214.483 1262.59 215.865 1263.41 217.644C1264.22 219.422 1264.3 221.451 1263.62 223.285L1229.07 316.166C1228.55 317.576 1227.61 318.793 1226.37 319.652C1225.14 320.511 1223.67 320.972 1222.17 320.973Z"
		fill="#F05D48" />
	<path
		d="M519.681 296.93C517.824 296.926 516.037 296.221 514.677 294.957C513.317 293.692 512.484 291.961 512.344 290.11C512.204 288.258 512.768 286.421 513.923 284.967C515.078 283.513 516.74 282.548 518.575 282.265L1215.55 176.01C1216.51 175.864 1217.49 175.908 1218.43 176.14C1219.37 176.371 1220.26 176.786 1221.04 177.36C1221.82 177.934 1222.48 178.657 1222.98 179.486C1223.48 180.315 1223.81 181.235 1223.96 182.193C1224.11 183.151 1224.06 184.129 1223.83 185.07C1223.6 186.011 1223.18 186.897 1222.61 187.678C1222.04 188.458 1221.31 189.118 1220.48 189.62C1219.66 190.122 1218.74 190.455 1217.78 190.601L520.8 296.856C520.429 296.905 520.056 296.93 519.681 296.93Z"
		fill="#F05D48" />
	<path
		d="M1071.39 404.868C1071.03 404.867 1070.66 404.843 1070.31 404.794L514.15 323.074C513.175 322.954 512.233 322.64 511.381 322.151C510.528 321.662 509.782 321.007 509.187 320.225C508.591 319.444 508.157 318.551 507.911 317.6C507.665 316.648 507.612 315.657 507.755 314.685C507.897 313.712 508.233 312.778 508.741 311.937C509.25 311.096 509.922 310.366 510.717 309.788C511.512 309.21 512.414 308.797 513.371 308.573C514.328 308.349 515.32 308.319 516.289 308.483L1072.52 390.203C1074.35 390.485 1076.01 391.447 1077.17 392.897C1078.32 394.348 1078.89 396.18 1078.75 398.029C1078.62 399.878 1077.79 401.609 1076.44 402.876C1075.08 404.143 1073.3 404.855 1071.45 404.868H1071.39Z"
		fill="#F05D48" />
	<path
		d="M262.82 457.552C261.256 457.553 259.732 457.056 258.468 456.134C257.205 455.212 256.267 453.912 255.791 452.422C255.315 450.932 255.324 449.329 255.819 447.845C256.314 446.361 257.267 445.072 258.542 444.166L427.894 323.578C429.487 322.436 431.468 321.975 433.4 322.294C435.333 322.613 437.06 323.687 438.201 325.28C439.343 326.873 439.804 328.853 439.485 330.786C439.166 332.719 438.092 334.446 436.499 335.587L267.147 456.175C265.888 457.083 264.372 457.566 262.82 457.552Z"
		fill="#F05D48" />
	<g opacity="0.2">
		<path
			d="M760.027 647.638C770.503 639.781 775.443 628.674 771.06 622.83C766.677 616.986 754.632 618.618 744.155 626.476C733.678 634.333 728.738 645.44 733.121 651.284C737.504 657.128 749.55 655.496 760.027 647.638Z"
			fill="#F05D48" />
		<path
			d="M741.645 662.23C735.634 662.23 730.471 660.092 727.226 655.752C723.477 650.762 723.157 643.816 726.328 636.675C729.382 630.287 733.989 624.767 739.727 620.621C753.9 609.988 769.905 609.054 776.961 618.457C784.016 627.861 778.632 642.956 764.447 653.589C756.813 659.317 748.651 662.23 741.645 662.23ZM739.026 646.902C739.715 647.836 746.734 648.438 755.597 641.788C764.459 635.138 765.848 628.267 765.16 627.308C764.472 626.349 757.44 625.771 748.578 632.421C744.861 635.073 741.848 638.592 739.801 642.673C738.572 645.402 738.904 646.754 739.026 646.902Z"
			fill="#F05D48" />
	</g>
	<path
		d="M821.09 549.681C823.595 549.681 825.626 547.65 825.626 545.145C825.626 542.64 823.595 540.609 821.09 540.609C818.585 540.609 816.554 542.64 816.554 545.145C816.554 547.65 818.585 549.681 821.09 549.681Z"
		fill="#3A3A3A" />
	<path
		d="M821.078 557.057C818.564 557.054 816.115 556.257 814.082 554.777C812.049 553.298 810.536 551.214 809.76 548.822C808.984 546.431 808.985 543.856 809.762 541.464C810.539 539.073 812.052 536.99 814.086 535.511C816.119 534.033 818.568 533.236 821.083 533.234C823.597 533.233 826.047 534.027 828.082 535.503C830.118 536.979 831.634 539.061 832.414 541.451C833.193 543.841 833.197 546.417 832.424 548.809C831.657 551.212 830.143 553.308 828.102 554.792C826.062 556.276 823.601 557.069 821.078 557.057ZM821.078 542.306C820.589 542.306 820.109 542.431 819.683 542.671C819.257 542.91 818.9 543.255 818.647 543.673C818.393 544.091 818.252 544.567 818.237 545.055C818.221 545.544 818.332 546.028 818.558 546.461C818.906 547.13 819.502 547.637 820.218 547.875C820.751 548.045 821.324 548.053 821.862 547.899C822.401 547.745 822.882 547.435 823.245 547.007C823.608 546.58 823.836 546.055 823.901 545.499C823.966 544.942 823.865 544.379 823.61 543.88C823.262 543.211 822.667 542.703 821.951 542.466C821.673 542.371 821.383 542.317 821.09 542.306H821.078Z"
		fill="#3A3A3A" />
	<path
		d="M793.703 590.662C796.208 590.662 798.239 588.631 798.239 586.126C798.239 583.621 796.208 581.59 793.703 581.59C791.198 581.59 789.167 583.621 789.167 586.126C789.167 588.631 791.198 590.662 793.703 590.662Z"
		fill="#3A3A3A" />
	<path
		d="M793.715 598.088C792.464 598.085 791.22 597.89 790.027 597.51C787.189 596.59 784.801 594.634 783.341 592.032C781.88 589.43 781.454 586.373 782.147 583.47C782.84 580.568 784.601 578.033 787.08 576.372C789.559 574.711 792.572 574.044 795.52 574.506C798.468 574.968 801.134 576.524 802.986 578.864C804.838 581.204 805.74 584.156 805.512 587.131C805.284 590.106 803.943 592.886 801.757 594.917C799.571 596.948 796.699 598.08 793.715 598.088ZM793.715 583.337C793.263 583.333 792.816 583.439 792.412 583.644C791.746 583.993 791.243 584.588 791.011 585.304C790.838 585.838 790.828 586.412 790.981 586.953C791.135 587.494 791.445 587.977 791.874 588.341C792.302 588.705 792.829 588.934 793.387 588.998C793.945 589.062 794.51 588.96 795.01 588.703C795.51 588.446 795.923 588.046 796.195 587.555C796.468 587.064 796.589 586.502 796.542 585.942C796.496 585.382 796.284 584.848 795.934 584.408C795.584 583.969 795.111 583.643 794.576 583.472C794.295 583.376 793.999 583.33 793.703 583.337H793.715Z"
		fill="#3A3A3A" />
	<path
		d="M1129.12 441.544C1127.65 441.543 1126.22 441.102 1125 440.278C1123.78 439.454 1122.83 438.283 1122.29 436.918C1121.74 435.553 1121.61 434.054 1121.92 432.616C1122.23 431.178 1122.96 429.865 1124.02 428.846C1139.23 414.239 1155.59 400.879 1172.95 388.896C1176.41 386.511 1186.97 379.209 1197.02 384.298C1204.51 388.085 1206.68 395.915 1208.42 402.208C1209.12 404.765 1210.44 409.584 1211.48 409.719C1211.85 409.805 1213.11 409.621 1216.84 406.572C1226.36 398.8 1235.44 390.511 1244.05 381.742C1244.72 381.051 1245.53 380.5 1246.42 380.122C1247.32 379.743 1248.27 379.544 1249.24 379.535C1250.21 379.527 1251.17 379.709 1252.07 380.072C1252.97 380.435 1253.79 380.971 1254.48 381.649C1255.17 382.328 1255.72 383.137 1256.1 384.028C1256.47 384.92 1256.67 385.877 1256.68 386.845C1256.69 387.814 1256.51 388.775 1256.15 389.673C1255.78 390.571 1255.25 391.389 1254.57 392.08C1245.59 401.235 1236.11 409.89 1226.17 418.004C1223.1 420.463 1216.71 425.724 1208.73 424.212C1198.67 422.282 1195.98 412.559 1194.21 406.13C1193.25 402.639 1192.05 398.299 1190.38 397.451C1189.71 397.119 1187.49 396.788 1181.33 401.041C1164.63 412.582 1148.88 425.448 1134.24 439.516C1132.86 440.826 1131.03 441.553 1129.12 441.544Z"
		fill="white" />
	<path
		d="M1256.1 404.816C1254.15 404.818 1252.28 404.044 1250.89 402.665L1233.68 385.456C1232.84 384.602 1232.22 383.556 1231.87 382.409C1231.53 381.261 1231.47 380.046 1231.7 378.869C1231.92 377.692 1232.44 376.589 1233.19 375.655C1233.94 374.721 1234.91 373.984 1236.01 373.508L1265.91 360.761C1267.27 360.185 1268.76 360.027 1270.21 360.307C1271.65 360.587 1272.98 361.292 1274.02 362.332C1275.06 363.372 1275.76 364.699 1276.04 366.143C1276.32 367.587 1276.16 369.081 1275.59 370.435L1262.84 400.342C1262.37 401.45 1261.63 402.425 1260.69 403.182C1259.75 403.938 1258.64 404.453 1257.46 404.681C1257.01 404.771 1256.56 404.817 1256.1 404.816ZM1251.88 382.788L1253.6 384.509L1254.83 381.522L1251.88 382.788Z"
		fill="white" />
	<path
		d="M635.094 664.177C634.683 664.176 634.272 664.143 633.865 664.079C632.572 663.868 631.359 663.316 630.35 662.481C629.401 662.681 628.423 662.692 627.47 662.513C626.517 662.335 625.609 661.97 624.797 661.44C623.986 660.911 623.286 660.226 622.739 659.426C622.192 658.626 621.809 657.726 621.61 656.777C621.204 654.872 619.864 650.766 618.672 647.14C617.245 643.11 616.035 639.006 615.046 634.847C611.284 615.352 607.793 595.512 604.671 575.844C602.913 564.781 601.241 553.583 599.692 542.495C598.758 535.808 597.48 526.662 600.012 518.131C602.79 508.715 625.666 481.451 655.905 489.65C657.582 490.106 659.044 491.139 660.033 492.566C661.023 493.994 661.476 495.726 661.314 497.456C655.807 556.299 650.976 605.469 642.359 657.994C642.077 659.718 641.192 661.286 639.861 662.418C638.531 663.55 636.842 664.174 635.094 664.177ZM614.197 522.446C612.735 527.486 613.411 533.595 614.37 540.467C615.918 551.468 617.578 562.593 619.286 573.558C622.384 593.066 625.851 612.758 629.575 632.094C629.772 633.114 630.239 634.737 630.804 636.605C637.258 593.422 641.499 551.37 646.035 502.926C627.535 501.869 615.353 519.483 614.136 522.446H614.197Z"
		fill="#F05D48" />
	<path
		d="M220.08 1875.81C218.268 1875.82 216.518 1875.16 215.163 1873.95C184.297 1846.47 172.201 1813.11 161.519 1783.67C155.95 1768.28 150.677 1753.75 143.215 1740.64C138.997 1733.27 134.265 1726.2 129.055 1719.49C114.722 1700.5 113.874 1694.39 133.726 1652.38C141.003 1637.02 159.195 1606.83 180.093 1571.87C203.325 1533.21 229.643 1489.41 247.319 1455.53C248.224 1453.8 249.781 1452.5 251.647 1451.91C253.513 1451.32 255.536 1451.5 257.27 1452.41C259.005 1453.31 260.309 1454.87 260.895 1456.73C261.482 1458.6 261.303 1460.62 260.399 1462.36C242.513 1496.63 216.072 1540.63 192.791 1579.47C171.992 1614.08 154.02 1643.99 147.075 1658.67C138.864 1676.05 133.701 1688.17 133.32 1695.16C133.062 1700.08 134.918 1702.75 140.843 1710.59C146.431 1717.82 151.515 1725.42 156.061 1733.34C164.137 1747.55 169.583 1762.65 175.409 1778.64C185.968 1807.79 196.896 1837.93 224.984 1862.93C226.101 1863.92 226.889 1865.23 227.244 1866.69C227.598 1868.14 227.502 1869.67 226.969 1871.07C226.435 1872.46 225.49 1873.67 224.257 1874.51C223.024 1875.36 221.563 1875.81 220.067 1875.81H220.08Z"
		fill="#3A3A3A" />
	<path
		d="M211.586 1454.59C210.492 1454.59 209.412 1454.35 208.426 1453.87C207.55 1453.46 206.764 1452.88 206.114 1452.16C205.463 1451.44 204.961 1450.6 204.636 1449.68C204.31 1448.77 204.168 1447.8 204.217 1446.83C204.267 1445.87 204.507 1444.92 204.923 1444.04C246.324 1356.67 390.415 1178.44 396.537 1170.92C397.769 1169.4 399.554 1168.43 401.5 1168.23C403.446 1168.02 405.392 1168.6 406.911 1169.84C408.43 1171.07 409.398 1172.85 409.601 1174.8C409.804 1176.74 409.225 1178.69 407.993 1180.21C406.506 1182.04 258.899 1364.6 218.248 1450.4C217.647 1451.65 216.702 1452.71 215.523 1453.46C214.344 1454.2 212.979 1454.59 211.586 1454.59Z"
		fill="#3A3A3A" />
	<path
		d="M173.209 1714.89C171.511 1714.89 169.866 1714.3 168.55 1713.23C157.081 1703.85 153.947 1685.89 161.543 1673.18C162.547 1671.5 164.177 1670.29 166.075 1669.81C167.972 1669.34 169.981 1669.63 171.66 1670.64C173.339 1671.64 174.55 1673.27 175.027 1675.17C175.505 1677.06 175.209 1679.07 174.204 1680.75C172.336 1684.16 171.683 1688.1 172.353 1691.92C173.024 1695.75 174.977 1699.23 177.892 1701.8C179.074 1702.76 179.927 1704.07 180.336 1705.53C180.745 1707 180.689 1708.56 180.176 1710C179.662 1711.43 178.717 1712.67 177.469 1713.55C176.221 1714.43 174.733 1714.89 173.209 1714.89Z"
		fill="#3A3A3A" />
	<path
		d="M299.98 1488.58C298.688 1488.59 297.416 1488.26 296.292 1487.63C285.057 1481.23 277.141 1475.79 270.159 1470.99C254.535 1460.24 245.918 1454.33 217.806 1451.66C216.837 1451.57 215.896 1451.29 215.036 1450.83C214.176 1450.38 213.414 1449.76 212.794 1449.01C212.173 1448.26 211.707 1447.39 211.42 1446.46C211.134 1445.53 211.033 1444.56 211.125 1443.59C211.216 1442.62 211.497 1441.68 211.952 1440.82C212.407 1439.96 213.027 1439.2 213.776 1438.58C214.525 1437.96 215.39 1437.49 216.319 1437.2C217.249 1436.92 218.226 1436.82 219.195 1436.91C251.155 1439.93 262.021 1447.43 278.518 1458.78C285.254 1463.41 292.887 1468.61 303.582 1474.76C304.996 1475.56 306.104 1476.82 306.731 1478.32C307.358 1479.82 307.47 1481.49 307.048 1483.07C306.627 1484.64 305.697 1486.03 304.403 1487.02C303.108 1488.01 301.523 1488.54 299.894 1488.54L299.98 1488.58Z"
		fill="#3A3A3A" />
	<path
		d="M237.166 1478.05C235.652 1478.05 234.176 1477.58 232.937 1476.71C222.884 1469.67 213.793 1461.35 205.894 1451.95C204.916 1450.78 204.324 1449.34 204.199 1447.82C204.075 1446.3 204.424 1444.78 205.199 1443.47C205.974 1442.16 207.136 1441.12 208.526 1440.49C209.917 1439.87 211.466 1439.69 212.962 1439.98L242.673 1445.83C244.399 1446.17 245.945 1447.12 247.034 1448.5C248.123 1449.88 248.682 1451.61 248.61 1453.37C248.379 1458.5 246.751 1463.48 243.902 1467.76C244.385 1468.88 244.581 1470.11 244.473 1471.33C244.365 1472.54 243.956 1473.71 243.284 1474.73C242.611 1475.76 241.695 1476.59 240.619 1477.17C239.542 1477.75 238.339 1478.05 237.117 1478.05H237.166Z"
		fill="#3A3A3A" />
	<path
		d="M306.704 1438.89C299.009 1438.89 290.355 1436.97 284.725 1429.5C282.593 1426.42 280.989 1423.01 279.98 1419.4C279.55 1418.08 279.132 1416.82 278.665 1415.72C275.666 1408.69 268.352 1400.57 262.685 1400.16C250.048 1399.22 239.329 1414.01 234.265 1421.05L233.196 1422.54C232.624 1423.32 231.904 1423.98 231.077 1424.49C230.25 1424.99 229.331 1425.33 228.374 1425.48C227.417 1425.63 226.44 1425.58 225.499 1425.36C224.558 1425.13 223.671 1424.72 222.888 1424.14C222.106 1423.57 221.444 1422.85 220.94 1422.02C220.437 1421.2 220.101 1420.28 219.952 1419.32C219.803 1418.37 219.844 1417.39 220.072 1416.45C220.301 1415.51 220.713 1414.62 221.284 1413.84L222.304 1412.42C228.992 1403.15 242.894 1383.88 263.767 1385.38C277.448 1386.38 288.351 1400.57 292.273 1409.88C292.973 1411.54 293.502 1413.14 294.018 1414.68C294.566 1416.76 295.419 1418.74 296.55 1420.56C299.365 1424.25 306.286 1425 317.681 1422.7C318.637 1422.49 319.625 1422.47 320.588 1422.65C321.55 1422.82 322.468 1423.19 323.288 1423.72C324.108 1424.26 324.813 1424.95 325.363 1425.76C325.913 1426.57 326.296 1427.48 326.49 1428.44C326.684 1429.4 326.685 1430.39 326.494 1431.35C326.302 1432.31 325.922 1433.22 325.374 1434.03C324.826 1434.84 324.123 1435.54 323.304 1436.07C322.486 1436.61 321.569 1436.98 320.607 1437.16C316.043 1438.2 311.385 1438.78 306.704 1438.89Z"
		fill="#3A3A3A" />
</svg>