<svg width="2000" height="2000" viewBox="0 0 2000 2000" fill="none"
	xmlns="http://www.w3.org/2000/svg">
	<path
		d="M1122.33 485.539H710.643C708.748 485.539 706.93 484.786 705.591 483.447C704.251 482.107 703.498 480.29 703.498 478.395V220.145C703.498 218.25 704.251 216.432 705.591 215.093C706.93 213.753 708.748 213 710.643 213H1122.33C1124.23 213 1126.05 213.753 1127.38 215.093C1128.72 216.432 1129.48 218.25 1129.48 220.145V478.395C1129.48 480.29 1128.72 482.107 1127.38 483.447C1126.05 484.786 1124.23 485.539 1122.33 485.539ZM717.751 471.25H1115.19V227.289H717.787L717.751 471.25Z"
		fill="#12B79B" />
	<path
		d="M1033.98 1181.77C1032.59 1181.77 1031.24 1181.37 1030.08 1180.62C1028.92 1179.86 1028 1178.79 1027.44 1177.52C986.849 1086.36 950.436 1013.72 905.723 934.607C888.195 903.647 883.67 878.963 892.256 861.316C898.471 848.622 909.783 843.252 916.333 841.156L925.859 796.158C926.034 795.223 926.394 794.332 926.918 793.537C927.442 792.743 928.12 792.061 928.911 791.533C929.702 791.004 930.591 790.638 931.525 790.458C932.46 790.277 933.421 790.285 934.352 790.481C935.283 790.677 936.166 791.057 936.948 791.599C937.731 792.141 938.397 792.833 938.908 793.636C939.419 794.439 939.765 795.336 939.924 796.274C940.084 797.212 940.055 798.172 939.838 799.099L929.431 848.396C929.128 849.824 928.394 851.124 927.33 852.122C926.266 853.121 924.921 853.769 923.477 853.981C923.001 854.064 910.545 856.243 905.032 867.77C898.828 880.773 903.365 901.468 918.131 927.629C963.081 1007.1 999.661 1080.04 1040.46 1171.73C1040.94 1172.82 1041.15 1174.01 1041.06 1175.2C1040.97 1176.39 1040.58 1177.53 1039.93 1178.53C1039.29 1179.53 1038.4 1180.35 1037.35 1180.92C1036.31 1181.49 1035.13 1181.79 1033.94 1181.79L1033.98 1181.77Z"
		fill="#3A3A3A" />
	<path
		d="M933.861 820.65C932.154 820.652 930.503 820.044 929.206 818.934C927.909 817.825 927.053 816.288 926.791 814.601C926.529 812.915 926.879 811.191 927.779 809.74C928.678 808.29 930.067 807.209 931.694 806.694L947.173 801.764C948.068 801.481 949.009 801.376 949.944 801.456C950.879 801.536 951.789 801.799 952.623 802.231C953.456 802.663 954.196 803.255 954.8 803.972C955.405 804.69 955.862 805.52 956.146 806.414C956.429 807.309 956.534 808.25 956.454 809.185C956.374 810.12 956.111 811.03 955.679 811.863C955.247 812.697 954.656 813.437 953.938 814.041C953.22 814.646 952.39 815.103 951.496 815.387L936.016 820.316C935.319 820.536 934.592 820.649 933.861 820.65Z"
		fill="#3A3A3A" />
	<path
		d="M1025.61 816.698C1025.06 816.699 1024.52 816.635 1023.99 816.508C1017.54 815.024 1010.91 814.503 1004.31 814.96C1002.41 815.084 1000.54 814.451 999.116 813.2C997.688 811.948 996.816 810.18 996.691 808.286C996.567 806.391 997.2 804.524 998.451 803.096C999.703 801.668 1001.47 800.795 1003.37 800.671C1011.36 800.14 1019.38 800.794 1027.18 802.612C1028.9 803.002 1030.41 804.013 1031.42 805.448C1032.44 806.884 1032.89 808.644 1032.69 810.392C1032.49 812.14 1031.65 813.752 1030.34 814.92C1029.02 816.088 1027.32 816.73 1025.56 816.722L1025.61 816.698Z"
		fill="#3A3A3A" />
	<path
		d="M1052.9 950.539C1051.12 950.583 1049.39 949.964 1048.05 948.801C1046.7 947.639 1045.84 946.017 1045.63 944.252C1045.42 942.487 1045.87 940.707 1046.9 939.258C1047.93 937.809 1049.46 936.796 1051.2 936.417C1063.19 933.369 1074.39 927.825 1084.09 920.146C1093.79 912.468 1101.76 902.829 1107.47 891.859C1107.88 890.996 1108.46 890.225 1109.18 889.592C1109.9 888.958 1110.73 888.473 1111.64 888.168C1112.54 887.862 1113.5 887.742 1114.45 887.813C1115.4 887.884 1116.33 888.146 1117.18 888.582C1118.03 889.019 1118.79 889.621 1119.4 890.355C1120.01 891.088 1120.47 891.936 1120.75 892.85C1121.03 893.764 1121.12 894.725 1121.03 895.675C1120.93 896.626 1120.64 897.547 1120.18 898.384C1113.52 911.163 1104.24 922.392 1092.95 931.337C1081.65 940.281 1068.59 946.74 1054.63 950.289C1054.06 950.443 1053.48 950.527 1052.9 950.539Z"
		fill="#3A3A3A" />
	<path
		d="M1398.37 994.92C1397.41 994.919 1396.46 994.724 1395.57 994.345C1394.68 993.967 1393.88 993.413 1393.22 992.717C1350.89 948.676 1314.87 898.987 1286.18 845.064C1277.18 828.167 1269.51 809.984 1274.02 791.551C1276.25 782.537 1281.17 774.881 1285.84 767.367C1291.34 758.651 1296.55 750.423 1296.17 741.73C1295.87 734.586 1291.19 729.656 1287.32 726.786C1278.72 720.392 1265.52 717.772 1255.25 720.416C1238.17 724.81 1223.73 734.467 1208.41 751.733C1207.79 752.436 1207.03 753.01 1206.18 753.421C1205.34 753.831 1204.42 754.071 1203.48 754.127C1202.54 754.182 1201.59 754.051 1200.71 753.743C1199.82 753.434 1199 752.954 1198.29 752.328C1197.59 751.703 1197.01 750.945 1196.6 750.097C1196.19 749.25 1195.95 748.33 1195.9 747.391C1195.84 746.451 1195.97 745.509 1196.28 744.62C1196.59 743.73 1197.07 742.91 1197.7 742.207C1214.78 722.94 1231.93 711.604 1251.66 706.484C1259.22 704.691 1267.07 704.543 1274.69 706.048C1282.31 707.554 1289.52 710.679 1295.83 715.212C1304.83 721.904 1310.01 731.073 1310.43 741.052C1310.97 754.15 1304.32 764.712 1297.89 774.893C1293.6 781.692 1289.55 788.11 1287.87 794.886C1284.48 808.651 1291.1 823.868 1298.77 838.253C1326.86 891 1362.13 939.603 1403.55 982.679C1404.53 983.688 1405.18 984.961 1405.43 986.339C1405.69 987.717 1405.53 989.139 1404.98 990.428C1404.43 991.717 1403.52 992.817 1402.35 993.59C1401.18 994.363 1399.81 994.776 1398.41 994.777L1398.37 994.92Z"
		fill="#3A3A3A" />
	<path
		d="M1233.69 765.054C1232.5 765.053 1231.33 764.754 1230.28 764.184C1229.23 763.613 1228.34 762.79 1227.7 761.788C1227.05 760.787 1226.66 759.639 1226.57 758.45C1226.48 757.261 1226.69 756.068 1227.18 754.98C1229.82 749.238 1233.9 744.279 1239.03 740.585C1244.16 736.891 1250.15 734.589 1256.44 733.904C1257.38 733.799 1258.33 733.881 1259.23 734.147C1260.14 734.412 1260.99 734.855 1261.72 735.449C1262.46 736.044 1263.07 736.778 1263.52 737.61C1263.96 738.442 1264.24 739.355 1264.34 740.295C1264.43 741.236 1264.34 742.186 1264.06 743.09C1263.79 743.994 1263.33 744.835 1262.73 745.563C1262.13 746.291 1261.38 746.892 1260.55 747.331C1259.71 747.77 1258.79 748.039 1257.85 748.121C1254.08 748.564 1250.47 749.964 1247.39 752.187C1244.3 754.41 1241.83 757.384 1240.22 760.826C1239.65 762.086 1238.74 763.155 1237.58 763.905C1236.42 764.655 1235.07 765.054 1233.69 765.054Z"
		fill="#3A3A3A" />
	<path
		d="M896.246 799.79C900.295 795.563 907.272 794.242 909.761 788.943C894.615 777.082 881.242 763.116 870.05 747.469C862.619 737.062 857.154 720.486 867.668 713.282C880.766 704.316 903.903 721.975 912.714 708.71C916.287 703.399 914.369 696.338 912.583 690.217C901.759 653.304 898.294 612.14 914.75 577.394C918.323 569.928 922.859 562.712 929.468 557.758C944.174 546.768 965.857 549.84 980.956 560.283C996.055 570.726 1005.96 586.991 1014.83 603.054C1023.7 619.118 1032.35 635.824 1045.92 648.184C1049.94 651.84 1055.91 655.162 1060.45 652.197C1062.64 650.756 1063.8 648.208 1064.63 645.743C1070.92 626.965 1065.89 603.09 1080.48 589.706C1093.8 577.489 1116.63 582.966 1128.81 596.35C1140.99 609.735 1145.24 628.286 1149.05 645.957C1154.34 639.051 1159.77 631.978 1167.32 627.56C1174.87 623.142 1184.9 621.952 1191.99 626.989C1205.46 636.515 1198.76 657.281 1199.77 673.773C1210.75 668.427 1224.51 676.226 1229.88 687.205C1235.25 698.184 1234.72 707.96 1233.46 720.117C1205.69 729.226 1195.29 773.475 1167.24 771.046C1165.77 780.857 1164.15 791.062 1158.44 799.183C1152.72 807.304 1141.62 812.579 1132.62 808.388C1120.71 802.874 1115.25 783.382 1102.35 785.835C1091.53 787.883 1089.9 803.803 1080.41 809.424C1069.56 815.842 1056.47 805.411 1049.52 794.908C1042.57 784.406 1034.94 771.451 1022.31 770.903C1005.64 770.129 995.638 791.908 979.075 793.908C965.977 795.492 952.39 784.061 940.471 789.705C927.051 796.04 933.005 812.4 925.729 822.581C918.287 833.048 901.914 827.844 895.96 818.438C892.519 812.877 891.328 804.923 896.246 799.79Z"
		fill="#3A3A3A" />
	<path
		d="M914.143 835.503H913.464C908.781 835.304 904.212 834.002 900.127 831.703C896.043 829.405 892.558 826.174 889.959 822.274C885.136 814.665 883.445 802.853 891.078 794.887C893.321 792.703 895.872 790.862 898.651 789.421C898.715 789.375 898.782 789.335 898.854 789.302C885.809 778.225 874.182 765.579 864.238 751.65C858.582 743.732 853.2 731.491 855.082 720.905C855.52 718.188 856.51 715.59 857.991 713.269C859.471 710.949 861.411 708.957 863.691 707.414C872.3 701.544 882.54 703.544 891.566 705.306C900.592 707.069 904.95 707.581 906.808 704.806C908.499 702.258 907.225 697.209 905.772 692.256C892.435 646.769 893.328 605.998 908.332 574.371C913.178 564.167 918.549 557.094 925.241 552.092C943.864 538.161 969.298 543.555 985.064 554.474C1001.59 565.893 1011.94 583.052 1021.13 599.663L1023.22 603.438C1031.05 617.667 1039.15 632.373 1050.78 642.959C1053.83 645.733 1056.14 646.34 1056.66 646.245C1057.2 645.41 1057.61 644.493 1057.85 643.53C1059.89 637.446 1060.62 630.563 1061.43 623.287C1062.9 609.296 1064.42 594.84 1075.72 584.505C1082.37 578.408 1091.09 575.419 1100.97 575.86C1113.66 576.587 1125.57 582.234 1134.16 591.602C1144.27 602.711 1149.41 616.929 1152.86 630.349C1156.08 626.902 1159.75 623.913 1163.78 621.466C1174.67 615.047 1187.4 614.952 1196.22 621.227C1209.21 630.456 1208.22 646.138 1207.34 659.963C1207.23 661.642 1207.13 663.297 1207.04 664.916C1219.24 664.654 1231.05 673.18 1236.4 684.123C1242.55 696.745 1242.02 707.783 1240.67 720.905C1240.53 722.279 1239.99 723.583 1239.13 724.659C1238.26 725.735 1237.1 726.536 1235.79 726.966C1225.17 730.443 1216.82 740.934 1208.75 751.067C1198.85 763.498 1188.66 776.287 1173.39 778.121C1171.99 786.456 1169.75 795.601 1164.31 803.353C1157.16 813.451 1142.65 820.952 1129.65 814.927C1123.24 811.962 1118.69 806.413 1114.68 801.519C1109.52 795.244 1106.76 792.338 1103.71 792.922C1101.08 793.422 1099.08 796.494 1096.09 801.614C1093.1 806.735 1089.87 812.2 1084.07 815.63C1069.55 824.227 1052.9 812.986 1043.59 798.959L1042.17 796.804C1036.22 787.802 1030.16 778.49 1022.05 778.109C1016.09 777.835 1010.59 782.455 1004.26 787.802C997.555 793.458 989.97 799.876 980.003 801.079C972.763 801.948 965.857 799.816 959.76 797.935C953.342 795.958 947.853 794.256 943.59 796.244C939.327 798.233 938.506 801.626 937.291 809.521C936.434 815.07 935.469 821.345 931.575 826.823C929.603 829.587 926.981 831.824 923.942 833.337C920.902 834.851 917.537 835.595 914.143 835.503ZM877.658 717.774C875.577 717.643 873.504 718.136 871.704 719.191C870.999 719.662 870.402 720.279 869.955 721C869.507 721.721 869.218 722.529 869.109 723.37C868.227 728.336 870.99 736.54 875.836 743.315C886.622 758.415 899.518 771.888 914.131 783.324C915.406 784.322 916.304 785.723 916.678 787.298C917.052 788.873 916.88 790.529 916.191 791.993C913.809 797.125 909.32 799.697 905.76 801.757C904.177 802.563 902.701 803.563 901.366 804.734C899.139 807.116 899.997 811.462 901.997 814.617C903.344 816.533 905.106 818.121 907.151 819.263C909.196 820.405 911.472 821.072 913.809 821.214C917.858 821.298 919.358 819.154 919.87 818.44C921.799 815.725 922.43 811.605 923.109 807.235C924.3 799.388 925.979 788.635 937.398 783.217C946.626 778.847 955.795 781.681 963.892 784.182C969.084 785.777 973.978 787.302 978.181 786.778C983.897 786.087 989.255 781.562 994.935 776.775C1002.48 770.405 1011.03 763.165 1022.61 763.677C1037.99 764.392 1046.88 777.966 1054.02 788.814L1055.4 790.921C1060.32 798.352 1070.17 807.092 1076.68 803.222C1079.32 801.674 1081.44 798.078 1083.67 794.268C1087.24 788.135 1091.74 780.502 1100.95 778.788C1112.68 776.573 1119.86 785.325 1125.62 792.362C1128.81 796.256 1132.1 800.281 1135.54 801.888C1141.22 804.52 1148.77 800.388 1152.51 795.065C1157.37 788.159 1158.82 778.502 1160.09 769.976C1160.36 768.178 1161.31 766.551 1162.73 765.425C1164.16 764.299 1165.96 763.759 1167.77 763.915C1179.31 764.915 1187.71 754.389 1197.46 742.101C1205.47 732.039 1214.44 720.774 1226.76 715.083C1227.56 705.699 1227.39 698.412 1223.45 690.327C1219.76 682.801 1209.99 676.728 1202.89 680.193C1201.83 680.708 1200.67 680.955 1199.5 680.913C1198.33 680.872 1197.18 680.542 1196.17 679.954C1195.15 679.365 1194.3 678.536 1193.68 677.54C1193.06 676.543 1192.7 675.41 1192.62 674.24C1192.43 669.161 1192.54 664.075 1192.97 659.01C1193.83 645.602 1193.91 637.148 1187.84 632.813C1183.07 629.408 1175.72 630.896 1170.94 633.718C1164.53 637.493 1159.54 644.007 1154.71 650.306C1153.88 651.389 1152.76 652.212 1151.48 652.679C1150.2 653.145 1148.81 653.234 1147.48 652.936C1146.14 652.638 1144.93 651.965 1143.97 650.997C1143 650.028 1142.34 648.805 1142.05 647.472C1138.61 631.539 1134.69 613.476 1123.49 601.163C1117.44 594.621 1109.1 590.653 1100.21 590.077C1096.04 589.887 1090.05 590.589 1085.27 594.971C1077.98 601.652 1076.86 612.344 1075.55 624.74C1074.74 632.468 1073.89 640.458 1071.36 648.031C1070.33 651.092 1068.5 655.473 1064.33 658.2C1057.75 662.499 1049.05 660.749 1041.08 653.497C1027.68 641.304 1019.01 625.538 1010.62 610.296L1008.63 606.581C1000.29 591.459 990.922 575.884 976.943 566.215C964.881 557.88 946.186 554.307 933.802 563.547C929.039 567.12 925.05 572.49 921.252 580.516C904.212 616.417 910.88 658.927 919.477 688.267C921.252 694.304 924.24 704.425 918.703 712.725C911.38 723.763 898.342 721.227 888.827 719.357C885.16 718.491 881.422 717.961 877.658 717.774Z"
		fill="#3A3A3A" />
	<path
		d="M933.826 653.185C932.322 653.181 930.857 652.703 929.64 651.818C928.423 650.932 927.517 649.686 927.051 648.255C924.526 640.384 921.645 631.466 921.454 622.059C921.216 610.663 925.241 600.482 932.481 594.124C941.757 586.003 956.165 585.598 964.631 593.219C965.399 593.823 966.036 594.578 966.5 595.438C966.965 596.298 967.248 597.244 967.332 598.218C967.417 599.192 967.3 600.173 966.99 601.1C966.68 602.027 966.184 602.88 965.531 603.608C964.878 604.335 964.082 604.921 963.194 605.328C962.305 605.736 961.343 605.957 960.366 605.978C959.388 605.998 958.417 605.818 957.512 605.448C956.608 605.079 955.788 604.527 955.105 603.828C952.021 601.054 945.758 601.554 942.007 604.876C938.006 608.389 935.708 614.7 935.851 621.773C936.005 629.048 938.423 636.574 940.768 643.861C941.056 644.755 941.164 645.697 941.087 646.632C941.011 647.568 940.75 648.479 940.321 649.314C939.892 650.149 939.303 650.891 938.587 651.498C937.871 652.105 937.042 652.565 936.148 652.852C935.397 653.086 934.613 653.199 933.826 653.185Z"
		fill="white" />
	<path
		d="M1086.84 741.441C1085.53 741.449 1084.26 741.1 1083.14 740.434C1082.02 739.768 1081.1 738.808 1080.49 737.66C1079.88 736.511 1079.59 735.217 1079.66 733.917C1079.73 732.617 1080.15 731.361 1080.88 730.283C1081.55 729.163 1081.95 727.905 1082.05 726.605C1082.15 725.306 1081.94 724.002 1081.45 722.794C1080.94 721.182 1080.08 719.704 1078.92 718.468C1077.76 717.232 1076.35 716.269 1074.77 715.649C1068.58 713.565 1060.29 717.364 1056.69 723.925C1056.05 725.089 1055.1 726.051 1053.94 726.704C1052.78 727.357 1051.47 727.675 1050.14 727.622C1048.81 727.568 1047.53 727.146 1046.43 726.403C1045.33 725.659 1044.45 724.624 1043.91 723.413C1042.48 720.233 1041.21 716.899 1039.97 713.672C1036 703.301 1032.25 693.501 1024.27 690.191C1020.7 688.906 1016.85 688.57 1013.11 689.214C1006.18 690.227 999.63 693.02 994.104 697.319C988.577 701.619 984.26 707.278 981.574 713.744C981.25 714.644 980.747 715.47 980.097 716.173C979.447 716.875 978.663 717.44 977.79 717.833C976.918 718.227 975.975 718.441 975.019 718.463C974.062 718.485 973.11 718.315 972.221 717.962C971.331 717.609 970.521 717.081 969.839 716.41C969.158 715.738 968.618 714.936 968.252 714.052C967.886 713.168 967.701 712.219 967.709 711.262C967.717 710.305 967.917 709.359 968.297 708.481C971.89 699.611 977.758 691.846 985.309 685.967C992.86 680.088 1001.83 676.304 1011.31 674.997C1017.52 674.011 1023.89 674.68 1029.76 676.938C1042.86 682.379 1048.28 695.311 1052.81 707.099C1060.5 701.301 1070.56 699.098 1079.35 702.051C1083.02 703.361 1086.35 705.498 1089.07 708.298C1091.79 711.097 1093.83 714.484 1095.03 718.197C1096.23 721.491 1096.65 725.019 1096.26 728.503C1095.86 731.987 1094.66 735.332 1092.75 738.273C1092.1 739.246 1091.22 740.043 1090.19 740.595C1089.16 741.148 1088.01 741.438 1086.84 741.441Z"
		fill="white" />
	<path
		d="M1173.01 702.782C1171.65 702.781 1170.32 702.39 1169.17 701.655C1168.02 700.921 1167.11 699.874 1166.54 698.637C1165.96 697.401 1165.76 696.026 1165.94 694.676C1166.12 693.326 1166.69 692.057 1167.57 691.018C1168.64 689.755 1169.32 688.209 1169.53 686.567C1169.73 684.925 1169.46 683.258 1168.74 681.769C1168.01 680.281 1166.87 679.034 1165.45 678.182C1164.04 677.329 1162.4 676.907 1160.75 676.967C1159.81 676.999 1158.87 676.846 1157.99 676.516C1157.12 676.187 1156.31 675.688 1155.62 675.047C1154.94 674.406 1154.38 673.636 1154 672.782C1153.61 671.927 1153.39 671.005 1153.36 670.066C1153.33 669.128 1153.48 668.193 1153.81 667.314C1154.14 666.435 1154.64 665.629 1155.28 664.943C1155.92 664.257 1156.69 663.704 1157.54 663.315C1158.4 662.926 1159.32 662.71 1160.26 662.678C1164.68 662.525 1169.05 663.658 1172.83 665.941C1176.62 668.224 1179.66 671.557 1181.59 675.536C1183.52 679.515 1184.25 683.968 1183.7 688.355C1183.14 692.741 1181.32 696.872 1178.47 700.246C1177.8 701.04 1176.96 701.678 1176.02 702.116C1175.08 702.554 1174.05 702.781 1173.01 702.782Z"
		fill="white" />
	<path
		d="M835.85 1181.71C834.488 1181.71 833.155 1181.32 832.007 1180.59C830.86 1179.85 829.946 1178.8 829.374 1177.57C828.802 1176.33 828.596 1174.96 828.779 1173.61C828.962 1172.26 829.528 1170.99 830.409 1169.95C844.984 1152.81 874.967 1122.53 912.023 1112.26C915.786 1111.21 921.466 1109.64 922.406 1107.06C922.705 1105.77 922.818 1104.43 922.74 1103.1C922.707 1101.45 922.787 1099.81 922.978 1098.17C924.419 1087.35 934.504 1078.56 945.388 1078.69C947.283 1078.69 949.1 1079.44 950.44 1080.78C951.78 1082.12 952.532 1083.94 952.532 1085.83C952.532 1087.73 951.78 1089.55 950.44 1090.89C949.1 1092.23 947.283 1092.98 945.388 1092.98H945.281C943.336 1093.08 941.482 1093.84 940.017 1095.12C938.551 1096.4 937.558 1098.14 937.195 1100.05C937.09 1101.08 937.051 1102.11 937.076 1103.14C937.216 1106.14 936.813 1109.14 935.886 1112.01C932.409 1121.45 922.085 1124.31 915.917 1126.02C882.576 1135.29 854.879 1163.32 841.364 1179.2C840.685 1180 839.839 1180.64 838.887 1181.07C837.934 1181.5 836.897 1181.72 835.85 1181.71Z"
		fill="#3A3A3A" />
	<path
		d="M630.196 1773.21C616.597 1773.21 603.666 1760.5 594.39 1751.39C584.126 1741.29 571.766 1733.83 558.763 1725.92C552.809 1722.35 546.569 1718.53 540.616 1714.5C515.721 1697.64 494.519 1675.89 478.304 1650.57C451.333 1608.31 437.33 1553.47 437.818 1491.96C438.247 1438.5 448.535 1387.18 460.871 1330.57C470.587 1286.05 482.435 1233.59 496.677 1182.15C513.073 1122.94 533.864 1061.45 574.588 1012.53C619.408 958.733 683.863 930.464 742.781 938.8C776.206 943.563 797.115 953.982 804.939 969.938C807.193 974.593 808.254 979.737 808.026 984.904C807.797 990.072 806.286 995.102 803.629 999.54C790.65 1022.26 766.132 1019.78 749.831 1018.19C755.499 1027.82 758.083 1041.6 756.106 1053.91C755.104 1061.08 752.146 1067.84 747.556 1073.45C753.605 1077.34 758.447 1082.85 761.536 1089.35C765.882 1098.73 766.025 1109.71 761.941 1120.31C753.891 1141.16 731.469 1148.75 711.691 1155.46C709.631 1156.16 707.595 1156.84 705.606 1157.54C702.32 1158.73 698.878 1159.79 695.544 1160.86C679.862 1165.89 663.632 1171.09 656.118 1183.32C650.915 1191.79 650.427 1202.72 650.689 1213.28C651.82 1260.91 666.252 1307.87 680.219 1353.3C689.46 1383.37 699.021 1414.46 704.868 1445.91C714.431 1497.21 714.249 1549.85 704.332 1601.08C694.246 1653.48 674.194 1703.3 654.809 1751.54C652.546 1757.16 649.45 1764.87 642.413 1769.47C638.805 1771.9 634.55 1773.21 630.196 1773.21ZM722.098 951.588C673.384 951.588 622.492 977.321 585.566 1021.64C546.581 1068.44 526.422 1128.26 510.454 1185.96C496.296 1237.06 484.507 1289.27 474.827 1333.62C462.645 1389.5 452.524 1439.99 452.107 1492.09C451.643 1550.82 464.86 1602.98 490.342 1642.89C505.51 1666.56 525.333 1686.9 548.606 1702.68C554.273 1706.5 560.323 1710.17 566.169 1713.72C579.339 1721.7 592.961 1729.96 604.392 1741.19C616.002 1752.61 627.017 1762.41 634.578 1757.49C637.602 1755.5 639.519 1751.19 641.532 1746.18C660.667 1698.55 680.457 1649.34 690.281 1598.36C699.726 1548.86 699.9 1498.05 690.793 1448.49C685.101 1417.85 675.659 1387.15 666.538 1357.47C652.249 1311.12 637.555 1263.18 636.376 1213.59C636.09 1201.46 636.757 1187.48 643.925 1175.81C654.201 1159.14 673.837 1152.78 691.162 1147.23C694.556 1146.15 697.747 1145.12 700.867 1144.03C702.899 1143.31 704.971 1142.6 707.083 1141.91C724.718 1135.95 742.948 1129.75 748.592 1115.14C751.295 1108.12 751.283 1101.28 748.592 1095.35C745.711 1089.12 740.019 1084.37 732.136 1081.62C730.818 1081.15 729.666 1080.31 728.821 1079.2C727.976 1078.09 727.476 1076.75 727.382 1075.36C727.288 1073.97 727.605 1072.57 728.293 1071.36C728.982 1070.14 730.011 1069.16 731.255 1068.52C738.53 1064.81 741.138 1057.29 742.055 1051.64C743.972 1039.64 739.828 1026.83 734.911 1021.87C732.184 1019.12 718.478 1013.26 698.497 1018.79C696.858 1019.25 695.109 1019.11 693.565 1018.39C692.021 1017.68 690.784 1016.43 690.076 1014.89C689.368 1013.34 689.236 1011.59 689.704 1009.95C690.171 1008.31 691.208 1006.9 692.627 1005.96C693.46 1005.41 701.224 1000.55 718.026 1000.3C722.916 1000.38 727.788 1000.92 732.577 1001.91C735.83 1002.55 739.118 1002.99 742.424 1003.24C745.187 1003.39 748.08 1003.68 751.152 1003.99C769.692 1005.87 783.422 1006.15 791.221 992.491C792.707 990.073 793.567 987.323 793.723 984.489C793.879 981.655 793.326 978.827 792.114 976.261C788.959 969.831 778.087 958.245 740.793 952.982C734.6 952.094 728.354 951.64 722.098 951.624V951.588Z"
		fill="#3A3A3A" />
	<path
		d="M762.441 995.742C760.686 995.748 758.991 995.108 757.678 993.944C754.642 991.046 752.228 987.562 750.581 983.702C748.933 979.843 748.088 975.688 748.096 971.492C748.104 967.296 748.964 963.145 750.626 959.291C752.287 955.438 754.715 951.963 757.761 949.076C758.465 948.455 759.284 947.979 760.172 947.675C761.059 947.371 761.998 947.244 762.935 947.303C763.871 947.362 764.787 947.604 765.63 948.017C766.473 948.429 767.226 949.004 767.847 949.707C768.468 950.411 768.944 951.23 769.248 952.118C769.552 953.005 769.679 953.944 769.62 954.881C769.561 955.817 769.319 956.733 768.906 957.576C768.494 958.419 767.919 959.172 767.216 959.793C764.125 962.914 762.392 967.129 762.392 971.522C762.392 975.914 764.125 980.129 767.216 983.251C768.302 984.214 769.069 985.485 769.415 986.895C769.761 988.305 769.67 989.786 769.152 991.143C768.635 992.499 767.717 993.666 766.52 994.488C765.323 995.309 763.904 995.747 762.453 995.742H762.441Z"
		fill="#3A3A3A" />
	<path
		d="M708.19 1086.96C706.567 1086.96 704.99 1086.41 703.72 1085.4C702.45 1084.39 701.562 1082.97 701.203 1081.39C700.844 1079.81 701.035 1078.15 701.745 1076.69C702.454 1075.23 703.64 1074.05 705.106 1073.36C716.031 1068.21 728.42 1067.06 740.103 1070.13C741.026 1070.36 741.895 1070.77 742.658 1071.33C743.421 1071.9 744.064 1072.61 744.548 1073.43C745.033 1074.25 745.349 1075.16 745.478 1076.1C745.607 1077.04 745.548 1078 745.302 1078.92C745.056 1079.83 744.63 1080.69 744.047 1081.45C743.465 1082.2 742.739 1082.82 741.911 1083.29C741.083 1083.76 740.17 1084.06 739.225 1084.17C738.281 1084.28 737.324 1084.2 736.411 1083.93C728.009 1081.74 719.105 1082.59 711.263 1086.31C710.3 1086.76 709.25 1086.97 708.19 1086.96Z"
		fill="#3A3A3A" />
	<path
		d="M610.214 1726.92C608.319 1726.98 606.481 1726.28 605.103 1724.97C603.725 1723.67 602.921 1721.88 602.867 1719.98C602.813 1718.09 603.515 1716.25 604.817 1714.87C606.118 1713.49 607.914 1712.69 609.809 1712.63C613.648 1712.38 617.379 1711.25 620.719 1709.34C624.059 1707.43 626.92 1704.79 629.087 1701.61C629.609 1700.83 630.279 1700.15 631.06 1699.63C631.841 1699.11 632.718 1698.74 633.639 1698.56C634.561 1698.38 635.51 1698.38 636.432 1698.56C637.354 1698.74 638.231 1699.1 639.012 1699.62C639.794 1700.15 640.466 1700.82 640.989 1701.6C641.511 1702.38 641.875 1703.26 642.059 1704.18C642.243 1705.1 642.244 1706.05 642.061 1706.97C641.879 1707.89 641.516 1708.77 640.995 1709.55C637.585 1714.55 633.083 1718.71 627.829 1721.72C622.575 1724.72 616.706 1726.49 610.667 1726.9L610.214 1726.92Z"
		fill="#3A3A3A" />
	<path
		d="M478.672 1290.72C477.12 1290.72 475.61 1290.21 474.37 1289.28C473.13 1288.34 472.229 1287.03 471.802 1285.54L449.332 1207.18C444.01 1188.62 437.425 1165.51 443.974 1143.45C447.546 1131.67 453.214 1120.65 458.751 1109.99C463.443 1100.95 467.884 1092.41 471.052 1083.49C475.815 1069.93 476.303 1056.1 476.767 1041.6C477.16 1029.2 477.565 1016.38 480.78 1003.23C485.352 984.561 496.593 969.284 507.453 954.506C513.692 946.016 520.146 937.252 525.004 928.155C530.637 917.629 533.637 902.923 528.458 895.159C525.231 890.313 519.277 887.122 512.549 886.646C502.678 885.919 492.545 890.777 483.971 900.28C467.848 918.224 456.131 946.433 450.571 961.639C450.267 962.543 449.785 963.377 449.154 964.092C448.523 964.807 447.755 965.389 446.896 965.802C446.037 966.216 445.103 966.453 444.151 966.5C443.198 966.547 442.246 966.403 441.35 966.076C440.454 965.75 439.633 965.247 438.934 964.598C438.235 963.948 437.674 963.166 437.283 962.296C436.891 961.427 436.678 960.487 436.655 959.534C436.633 958.581 436.801 957.632 437.151 956.745C444.367 936.979 456.501 909.472 473.338 890.73C484.888 877.87 499.165 871.356 513.549 872.392C524.647 873.19 534.65 878.739 540.318 887.229C549.641 901.22 544.664 921.654 537.567 934.859C532.22 944.849 525.469 954.042 518.932 962.937C508.441 977.226 498.522 990.693 494.628 1006.59C491.759 1018.29 491.39 1029.82 491.056 1042.01C490.58 1057.03 490.092 1072.57 484.519 1088.24C481.03 1098.08 476.184 1107.47 471.421 1116.54C465.955 1127.07 460.787 1137.01 457.656 1147.5C452.261 1165.54 458.251 1186.43 463.062 1203.21L485.531 1281.55C485.789 1282.45 485.867 1283.39 485.76 1284.33C485.654 1285.26 485.364 1286.16 484.909 1286.98C484.453 1287.8 483.84 1288.52 483.105 1289.11C482.37 1289.69 481.528 1290.12 480.625 1290.38C479.993 1290.58 479.336 1290.7 478.672 1290.72Z"
		fill="#3A3A3A" />
	<path
		d="M381.507 955.335C380.423 955.336 379.352 955.09 378.377 954.615C377.401 954.141 376.546 953.451 375.877 952.597C375.208 951.743 374.742 950.748 374.515 949.688C374.288 948.627 374.305 947.529 374.565 946.476C382.586 914.14 394.51 882.899 410.073 853.442C418.409 837.617 429.352 820.232 446.892 811.266C457.828 805.771 470.476 804.754 482.15 808.432C486.488 809.746 490.522 811.909 494.018 814.796C497.513 817.682 500.4 821.234 502.512 825.245C507.275 834.771 507.596 846.417 503.417 860.968C499.434 874.897 493.016 888.011 484.46 899.703C483.906 900.461 483.209 901.102 482.407 901.59C481.606 902.078 480.716 902.403 479.789 902.548C478.862 902.692 477.916 902.652 477.004 902.431C476.092 902.209 475.233 901.81 474.475 901.257C473.718 900.703 473.076 900.006 472.588 899.205C472.1 898.403 471.775 897.514 471.63 896.587C471.486 895.659 471.526 894.713 471.747 893.801C471.969 892.889 472.368 892.03 472.921 891.272C480.48 880.932 486.156 869.339 489.687 857.026C492.819 846.083 492.843 837.796 489.759 831.675C486.889 825.995 481.626 823.34 477.72 822.006C469.659 819.522 460.951 820.225 453.393 823.971C439.437 831.116 430.4 845.559 422.707 860.099C407.684 888.529 396.176 918.682 388.438 949.893C388.057 951.444 387.167 952.823 385.911 953.81C384.655 954.796 383.105 955.333 381.507 955.335Z"
		fill="#3A3A3A" />
	<path
		d="M513.859 1690.46C512.603 1690.46 511.371 1690.12 510.287 1689.49C459.192 1659.44 412.002 1604.63 384.067 1542.88C353.417 1475.22 333.151 1397.68 322.077 1305.8C312.551 1226.43 310.669 1147.15 309.395 1059.16C308.621 1005.43 307.812 949.874 316.54 894.838C319.707 874.94 325.018 849.256 338.057 826.965C344.356 816.248 352.536 804.638 365.515 800.375C378.185 796.219 392.605 798.875 402.262 807.127C410.026 813.759 418.432 826.834 414.455 851.423C412.669 862.437 409.323 874.583 406.12 886.336C403.405 896.171 400.845 905.459 399.166 913.973C398.801 915.833 397.712 917.472 396.139 918.529C394.566 919.587 392.637 919.976 390.777 919.611C388.917 919.246 387.278 918.158 386.221 916.584C385.163 915.011 384.774 913.082 385.139 911.222C386.925 902.173 389.676 892.17 392.283 882.537C395.427 871.153 398.666 859.389 400.333 849.196C402.643 834.907 400.095 824.19 392.962 818.034C386.187 812.259 376.518 811.842 369.945 813.997C361.503 816.772 355.311 825.774 350.369 834.24C338.461 854.483 333.603 878.5 330.626 897.159C322.065 951.005 322.851 1005.93 323.625 1059.1C325.84 1212.1 328.388 1385.51 397.023 1537.13C423.41 1595.48 469.575 1649.13 517.491 1677.3C518.842 1678.1 519.894 1679.32 520.484 1680.77C521.074 1682.22 521.171 1683.83 520.758 1685.34C520.344 1686.85 519.445 1688.19 518.199 1689.14C516.952 1690.09 515.427 1690.61 513.859 1690.6V1690.46Z"
		fill="#3A3A3A" />
	<path
		d="M445.261 857.399C438.086 857.446 431.073 855.27 425.185 851.171C424.388 850.643 423.705 849.959 423.177 849.162C422.649 848.364 422.287 847.469 422.111 846.529C421.936 845.589 421.951 844.623 422.156 843.689C422.361 842.755 422.751 841.871 423.303 841.09C423.856 840.31 424.56 839.648 425.373 839.145C426.186 838.641 427.092 838.306 428.037 838.159C428.982 838.012 429.946 838.056 430.874 838.289C431.802 838.521 432.673 838.938 433.437 839.514C437.265 842.067 441.813 843.321 446.408 843.089C451.004 842.857 455.402 841.153 458.954 838.228C460.394 837.139 462.194 836.635 463.99 836.818C465.786 837.001 467.447 837.858 468.637 839.216C469.827 840.574 470.459 842.332 470.406 844.137C470.353 845.942 469.618 847.66 468.349 848.945C461.921 854.45 453.724 857.451 445.261 857.399Z"
		fill="#3A3A3A" />
	<path
		d="M490.734 919.638C486.803 919.679 482.894 919.055 479.172 917.793C470.896 914.816 468.919 909.302 468.455 906.278C468.175 904.445 468.619 902.575 469.692 901.063C470.765 899.551 472.384 898.516 474.207 898.176C476.03 897.836 477.913 898.218 479.46 899.241C481.006 900.264 482.094 901.848 482.494 903.658C485.256 906.04 496.783 905.837 499.51 903.361C500.19 902.651 501.009 902.09 501.916 901.712C502.824 901.333 503.799 901.146 504.782 901.162C505.764 901.178 506.733 901.396 507.628 901.804C508.522 902.211 509.323 902.799 509.98 903.53C510.637 904.261 511.136 905.119 511.446 906.052C511.756 906.984 511.87 907.971 511.782 908.95C511.693 909.929 511.404 910.879 510.931 911.74C510.459 912.602 509.813 913.357 509.036 913.958C504.797 917.864 497.652 919.638 490.734 919.638Z"
		fill="#3A3A3A" />
	<path
		d="M352.369 858.043C346.24 858.104 340.216 856.455 334.973 853.28C333.457 852.239 332.401 850.654 332.025 848.854C331.648 847.055 331.98 845.179 332.95 843.618C333.921 842.057 335.457 840.93 337.237 840.472C339.017 840.014 340.906 840.259 342.51 841.158C350.738 846.266 363.015 843.897 368.766 836.109C369.317 835.337 370.016 834.682 370.822 834.183C371.628 833.684 372.526 833.35 373.462 833.202C374.399 833.053 375.356 833.092 376.277 833.317C377.198 833.542 378.066 833.948 378.828 834.512C379.591 835.075 380.234 835.785 380.72 836.599C381.205 837.414 381.524 838.317 381.657 839.256C381.79 840.195 381.734 841.151 381.494 842.068C381.254 842.986 380.833 843.846 380.257 844.599C373.827 853.268 363.062 858.043 352.369 858.043Z"
		fill="#3A3A3A" />
	<path
		d="M317.385 1117.41C315.539 1117.41 313.763 1116.7 312.431 1115.42C311.099 1114.14 310.314 1112.4 310.24 1110.55C309.181 1084.36 300.893 1049.57 289.593 1023.85C287.509 1019.09 285.187 1014.27 282.948 1009.56C273.422 989.572 263.515 968.888 265.516 945.966C266.933 929.689 277.221 912.554 294.094 911.304C309.824 910.113 321.969 923.687 325.434 937.036C325.908 938.871 325.633 940.818 324.671 942.451C323.709 944.083 322.137 945.266 320.302 945.74C318.467 946.214 316.519 945.939 314.887 944.977C313.255 944.014 312.072 942.443 311.598 940.608C309.609 932.916 302.739 924.973 295.154 925.533C286.616 926.176 280.603 937.048 279.674 947.193C278.019 966.245 286.64 984.285 295.761 1003.4C298.059 1008.16 300.429 1013.16 302.596 1018.09C314.503 1045.3 323.327 1082.22 324.446 1109.97C324.484 1110.91 324.338 1111.84 324.014 1112.72C323.691 1113.6 323.197 1114.41 322.561 1115.1C321.926 1115.79 321.16 1116.35 320.309 1116.74C319.457 1117.14 318.537 1117.36 317.599 1117.4L317.385 1117.41Z"
		fill="#3A3A3A" />
	<path
		d="M282.853 981.774C281.313 981.787 279.809 981.303 278.567 980.393C277.324 979.482 276.409 978.195 275.958 976.722C275.507 975.249 275.544 973.67 276.063 972.22C276.582 970.77 277.557 969.527 278.84 968.675C282.78 965.994 285.585 961.946 286.711 957.315C286.93 956.396 287.328 955.529 287.882 954.763C288.436 953.997 289.136 953.348 289.941 952.853C291.566 951.852 293.523 951.539 295.38 951.981C296.299 952.2 297.167 952.598 297.932 953.152C298.698 953.706 299.347 954.405 299.842 955.21C300.338 956.015 300.67 956.91 300.819 957.843C300.969 958.776 300.933 959.73 300.714 960.65C298.748 968.758 293.843 975.848 286.949 980.547C285.741 981.364 284.312 981.792 282.853 981.774Z"
		fill="#3A3A3A" />
	<path
		d="M172.555 820.913C171.456 820.915 170.372 820.663 169.387 820.178C168.401 819.692 167.541 818.986 166.873 818.114C166.205 817.242 165.746 816.227 165.534 815.15C165.322 814.072 165.361 812.959 165.648 811.899C185.284 739.335 241.344 678.249 311.956 652.469C313.722 651.876 315.65 651.996 317.329 652.804C319.008 653.612 320.304 655.044 320.943 656.794C321.581 658.545 321.51 660.475 320.746 662.174C319.981 663.873 318.583 665.206 316.85 665.889C250.537 690.109 197.882 747.479 179.449 815.626C179.041 817.143 178.144 818.482 176.898 819.438C175.652 820.394 174.125 820.912 172.555 820.913Z"
		fill="#3A3A3A" />
	<path
		d="M154.574 728.965C153.336 728.965 152.12 728.642 151.045 728.03C149.969 727.418 149.071 726.537 148.439 725.473C147.806 724.41 147.461 723.2 147.436 721.963C147.411 720.726 147.709 719.503 148.298 718.415C164.319 689.006 189.069 665.292 219.136 650.543C219.984 650.087 220.915 649.807 221.873 649.721C222.831 649.634 223.797 649.741 224.713 650.037C225.629 650.332 226.475 650.81 227.202 651.441C227.928 652.072 228.52 652.843 228.941 653.708C229.363 654.573 229.605 655.514 229.654 656.475C229.702 657.436 229.556 658.397 229.224 659.3C228.892 660.203 228.382 661.03 227.722 661.731C227.063 662.432 226.269 662.992 225.388 663.379C198.005 676.82 175.461 698.419 160.861 725.203C160.25 726.339 159.343 727.289 158.236 727.951C157.129 728.614 155.864 728.964 154.574 728.965Z"
		fill="#3A3A3A" />
	<path
		d="M1737.18 910.04H1737.05C1736.11 910.024 1735.18 909.824 1734.32 909.45C1733.46 909.076 1732.68 908.535 1732.03 907.859C1731.37 907.183 1730.86 906.386 1730.52 905.511C1730.17 904.637 1730 903.704 1730.02 902.764C1730.61 860.972 1714.74 820.624 1685.84 790.429C1684.6 789.053 1683.93 787.245 1684 785.388C1684.06 783.531 1684.84 781.771 1686.18 780.483C1687.52 779.194 1689.31 778.477 1691.16 778.484C1693.02 778.492 1694.8 779.223 1696.13 780.522C1727.66 813.46 1744.97 857.481 1744.31 903.074C1744.26 904.936 1743.49 906.706 1742.16 908.007C1740.83 909.308 1739.04 910.037 1737.18 910.04Z"
		fill="#3A3A3A" />
	<path
		d="M1771.01 877.166C1770.4 877.167 1769.8 877.091 1769.21 876.94C1767.38 876.464 1765.81 875.28 1764.85 873.648C1763.89 872.015 1763.61 870.069 1764.09 868.236C1765.5 862.58 1765.58 856.677 1764.34 850.983C1763.11 845.288 1760.57 839.955 1756.94 835.395C1756.35 834.665 1755.91 833.827 1755.65 832.927C1755.38 832.027 1755.29 831.084 1755.39 830.15C1755.49 829.217 1755.77 828.312 1756.22 827.488C1756.67 826.663 1757.27 825.935 1758 825.345C1758.73 824.755 1759.57 824.314 1760.47 824.048C1761.37 823.781 1762.32 823.695 1763.25 823.793C1764.18 823.892 1765.09 824.173 1765.91 824.621C1766.74 825.069 1767.46 825.675 1768.05 826.405C1773.07 832.713 1776.56 840.09 1778.27 847.965C1779.98 855.84 1779.85 864.002 1777.9 871.82C1777.5 873.347 1776.61 874.701 1775.37 875.668C1774.12 876.635 1772.59 877.162 1771.01 877.166Z"
		fill="#3A3A3A" />
	<path
		d="M1650.11 1774.07C1638.89 1774.07 1629.56 1765.39 1621.77 1758.15C1619.97 1756.5 1618.28 1754.91 1616.63 1753.5C1607.46 1745.6 1595.8 1741.19 1583.44 1736.51C1579.15 1734.87 1574.73 1733.2 1570.41 1731.36C1544.22 1720.2 1520.4 1702.45 1499.78 1678.6C1481.27 1657.17 1465.57 1630.87 1454.37 1602.39C1432.08 1545.83 1426.66 1484.39 1423.34 1431.24C1422.79 1422.61 1422.31 1413.97 1421.81 1405.32C1419.08 1357.55 1416.26 1308.14 1405.25 1261.24C1399.3 1235.83 1389.93 1221.49 1376.59 1217.41C1374.83 1216.81 1373.37 1215.56 1372.52 1213.9C1371.67 1212.25 1371.5 1210.33 1372.05 1208.55C1372.59 1206.77 1373.81 1205.28 1375.44 1204.38C1377.07 1203.48 1378.98 1203.26 1380.77 1203.75C1399.4 1209.44 1411.95 1227.19 1419.16 1257.98C1430.45 1306.14 1433.31 1356.18 1436.07 1404.57C1436.57 1413.19 1437.06 1421.8 1437.6 1430.41C1440.86 1482.47 1446.13 1542.59 1467.66 1597.21C1490.2 1654.37 1529.7 1698.52 1576.02 1718.22C1580.08 1719.94 1584.36 1721.56 1588.54 1723.13C1601.49 1728.05 1614.9 1733.14 1625.97 1742.66C1627.83 1744.27 1629.71 1746.01 1631.52 1747.69C1640.54 1756.02 1646.91 1761.4 1652.95 1759.27C1658.5 1757.31 1661.16 1749.19 1663.67 1741.34L1664.47 1738.96C1669.66 1723.4 1678.23 1709.54 1686.53 1696.09C1691.07 1688.76 1695.75 1681.17 1699.72 1673.55C1718.95 1636.55 1725.57 1589.76 1718.86 1538.22C1712.62 1490.23 1696.05 1443.3 1681.41 1401.88C1668.88 1366.36 1654.67 1326.1 1634.61 1289.58C1621.95 1266.52 1606.29 1243.39 1583.87 1214.56C1535.27 1152.16 1487.33 1105.2 1437.31 1071.02C1376.58 1029.48 1310.89 1006.04 1247.43 1003.15C1230.4 1002.38 1208.38 1004.6 1200.17 1019.44C1198.01 1023.36 1197.05 1027.84 1197.42 1032.31C1197.78 1036.78 1199.46 1041.04 1202.24 1044.56C1205.02 1048.08 1208.78 1050.7 1213.04 1052.1C1217.3 1053.49 1221.88 1053.6 1226.2 1052.41C1228.03 1051.9 1229.98 1052.14 1231.63 1053.08C1233.28 1054.01 1234.49 1055.56 1235 1057.39C1235.5 1059.22 1235.26 1061.17 1234.32 1062.82C1233.39 1064.47 1231.84 1065.68 1230.01 1066.18C1222.99 1068.12 1215.55 1067.95 1208.62 1065.68C1201.69 1063.41 1195.59 1059.15 1191.07 1053.43C1186.55 1047.71 1183.82 1040.79 1183.22 1033.53C1182.61 1026.27 1184.16 1018.99 1187.67 1012.6C1196.96 995.763 1217.84 987.594 1248.08 988.94C1314.19 991.893 1382.4 1016.21 1445.37 1059.19C1496.57 1094.23 1545.62 1142.17 1595.14 1205.76C1618.05 1235.18 1634.08 1258.9 1647.13 1282.64C1667.76 1320.18 1682.18 1361.03 1694.89 1397.07C1709.75 1439.15 1726.59 1486.84 1733 1536.32C1740.08 1590.77 1733 1640.48 1712.36 1680.08C1708.15 1688.17 1703.32 1695.98 1698.64 1703.55C1690.43 1716.83 1682.65 1729.4 1678 1743.38C1677.73 1744.14 1677.48 1744.92 1677.22 1745.76C1673.92 1755.86 1669.82 1768.38 1657.62 1772.72C1655.21 1773.6 1652.67 1774.05 1650.11 1774.07Z"
		fill="#3A3A3A" />
	<path
		d="M1225.13 1140.77C1223.24 1140.77 1221.06 1140.77 1218.49 1140.59C1201.95 1139.88 1182.38 1130.96 1175.98 1112.66C1170.7 1097.62 1176.43 1078.96 1189.9 1067.28C1200.42 1058.15 1215.32 1052.81 1232.95 1051.8C1243.67 1051.19 1254.28 1052.13 1264.56 1052.99C1268.2 1053.31 1271.96 1053.63 1275.64 1053.88C1294.67 1055.18 1313.78 1054.56 1332.68 1052.05C1333.62 1051.9 1334.58 1051.94 1335.51 1052.16C1336.44 1052.39 1337.31 1052.8 1338.08 1053.37C1338.84 1053.94 1339.48 1054.66 1339.97 1055.48C1340.45 1056.3 1340.77 1057.21 1340.89 1058.16C1341.02 1059.1 1340.96 1060.06 1340.71 1060.98C1340.45 1061.9 1340.02 1062.76 1339.43 1063.52C1338.84 1064.27 1338.11 1064.89 1337.27 1065.35C1336.44 1065.81 1335.52 1066.11 1334.57 1066.21C1314.72 1068.85 1294.65 1069.5 1274.67 1068.15C1270.86 1067.89 1267.02 1067.55 1263.31 1067.22C1253.09 1066.33 1243.43 1065.49 1233.75 1066.03C1223.68 1066.59 1209.51 1069.12 1199.22 1078.02C1190.08 1085.95 1186.05 1098.26 1189.42 1107.87C1193.6 1119.78 1207.72 1125.73 1219.06 1126.26C1229.99 1126.73 1230.77 1126.42 1238.31 1123.48C1240.11 1122.78 1242.23 1121.95 1244.84 1120.98C1245.72 1120.66 1246.65 1120.51 1247.59 1120.55C1248.53 1120.58 1249.45 1120.8 1250.3 1121.2C1251.15 1121.59 1251.92 1122.15 1252.56 1122.84C1253.19 1123.53 1253.69 1124.33 1254.01 1125.21C1254.34 1126.1 1254.48 1127.03 1254.45 1127.97C1254.41 1128.91 1254.19 1129.83 1253.8 1130.68C1253.4 1131.53 1252.85 1132.3 1252.16 1132.93C1251.47 1133.57 1250.66 1134.06 1249.78 1134.39C1247.28 1135.32 1245.24 1136.1 1243.52 1136.77C1236.28 1139.7 1233.16 1140.77 1225.13 1140.77Z"
		fill="#3A3A3A" />
	<path
		d="M1232.47 1183.05H1231.8C1229.13 1182.77 1226.55 1181.93 1224.23 1180.58C1221.9 1179.23 1219.89 1177.41 1218.33 1175.22C1216.35 1172.54 1214.95 1169.48 1214.2 1166.22C1213.46 1162.97 1213.4 1159.6 1214.02 1156.32C1215.71 1147.7 1221.52 1135.58 1230.27 1129.35C1247.28 1117.26 1267.47 1113.09 1287 1109.11C1303.67 1105.68 1319.4 1102.43 1333.11 1094.68C1334.76 1093.74 1336.71 1093.5 1338.54 1094.01C1339.44 1094.26 1340.29 1094.68 1341.03 1095.26C1341.77 1095.84 1342.39 1096.55 1342.85 1097.37C1343.31 1098.19 1343.61 1099.09 1343.72 1100.02C1343.84 1100.95 1343.77 1101.89 1343.52 1102.8C1343.27 1103.7 1342.84 1104.55 1342.27 1105.29C1341.69 1106.03 1340.97 1106.65 1340.16 1107.11C1324.49 1115.98 1306.9 1119.6 1289.9 1123.1C1270.97 1127.01 1253.1 1130.69 1238.56 1141.04C1234.01 1144.27 1229.39 1152.22 1228.04 1159.11C1227.82 1160.43 1227.87 1161.77 1228.18 1163.06C1228.48 1164.36 1229.04 1165.58 1229.82 1166.66C1230.2 1167.23 1230.69 1167.72 1231.27 1168.1C1231.84 1168.47 1232.49 1168.72 1233.17 1168.83C1234.11 1168.87 1235.03 1169.1 1235.88 1169.49C1236.73 1169.89 1237.49 1170.45 1238.13 1171.15C1238.76 1171.84 1239.25 1172.65 1239.57 1173.54C1239.89 1174.42 1240.03 1175.36 1239.99 1176.29C1239.95 1177.23 1239.72 1178.15 1239.32 1179C1238.93 1179.85 1238.36 1180.62 1237.67 1181.25C1236.98 1181.89 1236.17 1182.38 1235.28 1182.7C1234.4 1183.02 1233.46 1183.16 1232.53 1183.12L1232.47 1183.05Z"
		fill="#3A3A3A" />
	<path
		d="M1233.7 1030.06C1232.56 1030.05 1231.44 1029.78 1230.43 1029.25C1229.41 1028.72 1228.54 1027.96 1227.89 1027.03C1227.23 1026.1 1226.8 1025.02 1226.65 1023.89C1226.49 1022.76 1226.61 1021.61 1226.99 1020.53C1228.09 1017.4 1228.55 1014.08 1228.34 1010.76C1228.14 1007.45 1227.27 1004.21 1225.8 1001.24C1224.94 999.547 1224.79 997.582 1225.38 995.778C1225.97 993.974 1227.25 992.478 1228.94 991.619C1230.63 990.76 1232.6 990.608 1234.4 991.198C1236.21 991.787 1237.7 993.069 1238.56 994.762C1240.93 999.466 1242.32 1004.6 1242.64 1009.86C1242.96 1015.12 1242.2 1020.38 1240.42 1025.34C1239.92 1026.72 1239.01 1027.91 1237.81 1028.76C1236.61 1029.6 1235.17 1030.06 1233.7 1030.06Z"
		fill="#3A3A3A" />
	<path
		d="M1233.3 1098.52C1232.59 1098.52 1231.89 1098.41 1231.22 1098.2C1230.32 1097.93 1229.48 1097.48 1228.75 1096.89C1228.03 1096.29 1227.43 1095.56 1226.99 1094.73C1226.54 1093.9 1226.27 1092.99 1226.18 1092.06C1226.09 1091.13 1226.18 1090.18 1226.45 1089.28C1227.48 1085.63 1227.42 1081.76 1226.29 1078.14C1225.16 1074.52 1223.01 1071.3 1220.08 1068.89C1219.32 1068.31 1218.68 1067.6 1218.2 1066.77C1217.71 1065.95 1217.4 1065.04 1217.28 1064.09C1217.16 1063.14 1217.22 1062.18 1217.48 1061.26C1217.73 1060.34 1218.17 1059.49 1218.76 1058.74C1219.35 1057.99 1220.09 1057.37 1220.92 1056.91C1221.76 1056.45 1222.68 1056.16 1223.63 1056.06C1224.58 1055.96 1225.54 1056.06 1226.45 1056.33C1227.36 1056.61 1228.21 1057.07 1228.94 1057.68C1234.1 1061.88 1237.92 1067.51 1239.91 1073.86C1241.9 1080.21 1241.97 1087.01 1240.12 1093.4C1239.69 1094.88 1238.79 1096.17 1237.56 1097.09C1236.33 1098.02 1234.84 1098.52 1233.3 1098.52Z"
		fill="#3A3A3A" />
	<path
		d="M1263.32 1157.9C1262.62 1157.89 1261.93 1157.79 1261.26 1157.59C1259.45 1157.04 1257.93 1155.79 1257.04 1154.13C1256.15 1152.46 1255.95 1150.5 1256.5 1148.69C1257.53 1145.22 1256.91 1141.87 1254.83 1139.74C1252.75 1137.61 1249.8 1137.05 1246.35 1137.99C1244.55 1138.41 1242.66 1138.11 1241.07 1137.16C1239.49 1136.21 1238.33 1134.69 1237.85 1132.9C1237.36 1131.12 1237.59 1129.22 1238.47 1127.6C1239.36 1125.98 1240.84 1124.77 1242.6 1124.21C1251.03 1121.91 1259.44 1123.99 1265.08 1129.77C1270.73 1135.56 1272.75 1144.29 1270.19 1152.81C1269.75 1154.29 1268.84 1155.58 1267.6 1156.5C1266.36 1157.41 1264.86 1157.9 1263.32 1157.9Z"
		fill="#3A3A3A" />
	<path
		d="M1723.66 1642.24C1722.66 1642.23 1721.66 1642.02 1720.74 1641.62C1719.02 1640.84 1717.67 1639.4 1717 1637.63C1716.34 1635.86 1716.4 1633.9 1717.17 1632.17C1747.23 1564.9 1764.04 1498.25 1770.09 1422.42C1779.44 1305.13 1744.62 1190.99 1704.97 1074.65C1679.6 1000.36 1648.64 913.246 1611.18 830.441C1604.16 814.961 1597.51 801.196 1587.37 790.229C1576.44 778.465 1562.36 772.142 1549.72 773.261C1536.15 774.452 1524.44 785.931 1524.65 797.767C1524.89 810.782 1536.56 820.558 1548.81 830.906C1551.92 833.513 1555.12 836.204 1558.11 838.943C1571.58 851.303 1580.56 862.091 1586.59 880.619C1587.18 882.421 1587.03 884.382 1586.17 886.072C1585.31 887.761 1583.82 889.04 1582.02 889.628C1580.21 890.215 1578.25 890.063 1576.56 889.204C1574.87 888.345 1573.6 886.851 1573.01 885.049C1567.89 869.307 1560.72 860.71 1548.44 849.446C1545.69 846.921 1542.74 844.444 1539.62 841.813C1526.07 830.429 1510.72 817.51 1510.36 798.005C1510.02 778.751 1527.45 760.889 1548.47 759.008C1565.47 757.484 1583.94 765.51 1597.86 780.442C1609.49 792.968 1616.99 808.424 1624.26 824.499C1661.98 907.852 1693.07 995.336 1718.51 1069.95C1758.66 1187.76 1793.92 1303.46 1784.34 1423.46C1778.16 1500.97 1760.97 1569.1 1730.23 1637.91C1729.68 1639.2 1728.77 1640.29 1727.6 1641.06C1726.43 1641.83 1725.06 1642.24 1723.66 1642.24Z"
		fill="#3A3A3A" />
	<path
		d="M1552.68 811.829C1551.69 811.829 1550.69 811.829 1549.71 811.733C1547.81 811.607 1546.04 810.733 1544.79 809.304C1543.54 807.875 1542.91 806.007 1543.04 804.113C1543.16 802.218 1544.04 800.451 1545.47 799.2C1546.9 797.95 1548.76 797.318 1550.66 797.444C1556.34 797.767 1562.02 796.641 1567.15 794.174C1572.28 791.706 1576.7 787.976 1580 783.334C1581.08 781.777 1582.73 780.713 1584.6 780.376C1586.46 780.039 1588.38 780.456 1589.94 781.536C1591.5 782.616 1592.56 784.27 1592.9 786.135C1593.24 788 1592.82 789.922 1591.74 791.479C1587.31 797.725 1581.46 802.827 1574.67 806.366C1567.87 809.904 1560.34 811.777 1552.68 811.829Z"
		fill="#3A3A3A" />
	<path
		d="M1501.84 944.84C1501.17 944.838 1500.5 944.741 1499.86 944.554C1492.79 942.53 1488.26 935.35 1488.05 925.812C1487.67 908.308 1497.96 890.554 1514.24 880.563C1528.2 872.025 1546.12 868.918 1564.71 871.823C1579.22 874.097 1593.95 879.706 1611.05 889.494C1612.7 890.441 1613.9 892.003 1614.39 893.835C1614.88 895.667 1614.63 897.62 1613.68 899.264C1612.73 900.908 1611.17 902.108 1609.34 902.6C1607.5 903.092 1605.55 902.837 1603.91 901.889C1588.43 892.995 1575.2 887.934 1562.46 885.945C1547.2 883.564 1532.69 885.945 1521.66 892.744C1509.62 900.115 1502.03 912.987 1502.3 925.478C1502.37 928.622 1503.39 930.539 1503.8 930.813C1505.45 931.294 1506.87 932.355 1507.81 933.801C1508.74 935.246 1509.12 936.979 1508.87 938.682C1508.63 940.384 1507.78 941.942 1506.48 943.069C1505.18 944.196 1503.52 944.816 1501.8 944.816L1501.84 944.84Z"
		fill="#3A3A3A" />
	<path
		d="M1526 1063.27C1518.77 1063.27 1510.85 1061.84 1504.77 1058.65C1487.95 1049.79 1475.07 1032.98 1470.31 1013.65C1465.88 995.693 1468.38 975.355 1477.17 957.851C1482.36 947.515 1488.99 939.501 1496.86 934.036C1518.1 919.247 1545.82 923.807 1570.13 929.273C1571.05 929.471 1571.92 929.849 1572.7 930.387C1573.48 930.924 1574.14 931.61 1574.65 932.405C1575.16 933.199 1575.5 934.087 1575.67 935.016C1575.83 935.945 1575.81 936.898 1575.6 937.819C1575.4 938.739 1575.01 939.61 1574.47 940.381C1573.92 941.152 1573.23 941.807 1572.43 942.309C1571.63 942.811 1570.74 943.149 1569.81 943.305C1568.88 943.461 1567.93 943.431 1567.01 943.217C1544.69 938.227 1521.51 934.322 1505.09 945.8C1499.14 949.897 1494.11 956.136 1490 964.317C1482.71 978.82 1480.61 995.574 1484.24 1010.28C1488.05 1025.76 1498.23 1039.07 1511.48 1046C1519.72 1050.34 1532.33 1049.11 1534.86 1047.7C1535.67 1047.23 1536.56 1046.92 1537.49 1046.79C1538.42 1046.66 1539.37 1046.71 1540.28 1046.95C1541.18 1047.19 1542.04 1047.6 1542.79 1048.16C1543.53 1048.73 1544.16 1049.44 1544.64 1050.25C1545.12 1051.06 1545.43 1051.95 1545.56 1052.88C1545.69 1053.81 1545.63 1054.76 1545.39 1055.66C1545.16 1056.57 1544.75 1057.43 1544.18 1058.17C1543.61 1058.92 1542.91 1059.55 1542.1 1060.03C1538.56 1062.1 1532.6 1063.27 1526 1063.27Z"
		fill="#3A3A3A" />
	<path
		d="M1597.79 1220.2C1595.94 1220.2 1594.15 1219.48 1592.82 1218.19C1591.49 1216.91 1590.71 1215.15 1590.64 1213.3L1588.57 1154.38C1588.21 1144.2 1587.84 1133.69 1584.52 1124.42C1581.28 1115.42 1575.37 1107.49 1567.47 1098.35C1563.72 1094.01 1559.74 1089.6 1555.9 1085.32C1535.56 1062.7 1514.53 1039.35 1508.39 1008.8C1508.06 1006.97 1508.47 1005.08 1509.52 1003.54C1510.57 1002 1512.18 1000.93 1514.01 1000.56C1515.84 1000.19 1517.74 1000.55 1519.3 1001.56C1520.87 1002.58 1521.98 1004.16 1522.39 1005.98C1527.77 1032.69 1547.47 1054.59 1566.52 1075.76C1570.41 1080.08 1574.44 1084.56 1578.28 1089.01C1586.01 1097.95 1593.76 1107.86 1597.97 1119.59C1602.05 1130.95 1602.48 1143.13 1602.85 1153.88L1604.92 1212.79C1604.99 1214.68 1604.3 1216.53 1603.01 1217.91C1601.72 1219.3 1599.93 1220.12 1598.04 1220.19L1597.79 1220.2Z"
		fill="#3A3A3A" />
	<path
		d="M1634.42 1726.09C1630.18 1726.13 1626.02 1724.89 1622.51 1722.52C1620.97 1721.44 1619.92 1719.8 1619.58 1717.95C1619.25 1716.11 1619.65 1714.2 1620.71 1712.65C1621.76 1711.1 1623.39 1710.03 1625.23 1709.66C1627.07 1709.3 1628.98 1709.67 1630.55 1710.71C1633 1712.38 1636.33 1711.9 1638.63 1710.85C1640.93 1709.8 1643.52 1707.66 1643.91 1704.72C1644.18 1702.86 1645.17 1701.19 1646.66 1700.06C1648.15 1698.93 1650.03 1698.43 1651.88 1698.67C1653.74 1698.91 1655.43 1699.87 1656.59 1701.34C1657.75 1702.81 1658.28 1704.68 1658.08 1706.54C1657.11 1714.02 1652.03 1720.49 1644.49 1723.88C1641.32 1725.32 1637.89 1726.07 1634.42 1726.09Z"
		fill="#3A3A3A" />
	<path
		d="M1488.84 1778.28C1488.02 1778.28 1487.22 1778.14 1486.45 1777.86C1484.67 1777.23 1483.21 1775.91 1482.39 1774.2C1481.58 1772.49 1481.47 1770.52 1482.11 1768.74C1487.02 1754.69 1486.49 1739.31 1480.62 1725.63C1479.34 1722.68 1477.81 1719.79 1476.18 1716.73C1473.86 1712.57 1471.8 1708.26 1470.03 1703.84C1462.56 1683.99 1467.09 1661.39 1481.31 1647.6C1482.67 1646.28 1484.5 1645.56 1486.39 1645.59C1488.29 1645.62 1490.09 1646.4 1491.41 1647.76C1492.73 1649.12 1493.46 1650.95 1493.43 1652.85C1493.4 1654.74 1492.61 1656.55 1491.25 1657.87C1481.21 1667.6 1477.99 1684.43 1483.41 1698.81C1484.96 1702.65 1486.76 1706.39 1488.79 1710.01C1490.48 1713.19 1492.23 1716.46 1493.73 1719.95C1501.03 1736.95 1501.69 1756.07 1495.57 1773.54C1495.08 1774.93 1494.16 1776.13 1492.96 1776.98C1491.75 1777.82 1490.31 1778.28 1488.84 1778.28Z"
		fill="#3A3A3A" />
	<path
		d="M1486.39 1737.65C1485.36 1737.65 1484.34 1737.43 1483.4 1736.99C1482.46 1736.56 1481.62 1735.93 1480.95 1735.14L1444.35 1692.13C1443.12 1690.69 1442.51 1688.81 1442.67 1686.93C1442.82 1685.04 1443.71 1683.28 1445.16 1682.06C1446.6 1680.83 1448.47 1680.22 1450.36 1680.37C1452.25 1680.53 1454 1681.42 1455.23 1682.87L1491.84 1725.89C1492.72 1726.93 1493.28 1728.2 1493.47 1729.55C1493.65 1730.9 1493.44 1732.27 1492.87 1733.51C1492.3 1734.74 1491.38 1735.79 1490.24 1736.53C1489.09 1737.26 1487.76 1737.65 1486.39 1737.65Z"
		fill="#3A3A3A" />
	<path
		d="M1705.07 1674.68C1735.57 1614.2 1759.55 1545.37 1770.27 1480.15C1766.02 1516.07 1768.47 1555.61 1766.17 1591.71C1763.87 1627.81 1757.99 1664.46 1741.04 1696.42C1730.41 1716.45 1715.07 1734.35 1695.98 1746.73C1690.63 1750.2 1668.39 1759.46 1665.61 1756.08C1665.61 1756.08 1673.41 1739.6 1675.45 1734.77C1678.08 1728.48 1680.95 1722.28 1683.93 1716.14C1690.69 1702.2 1698.1 1688.55 1705.07 1674.68Z"
		fill="#3A3A3A" />
	<path
		d="M1668.09 1763.99C1666.59 1764.1 1665.08 1763.85 1663.69 1763.27C1662.3 1762.69 1661.07 1761.79 1660.09 1760.65C1659.23 1759.6 1658.69 1758.33 1658.53 1756.99C1658.36 1755.65 1658.58 1754.28 1659.16 1753.06C1659.23 1752.89 1666.91 1736.68 1668.87 1732.04C1671.33 1726.16 1674.15 1719.96 1677.5 1713.06C1681.62 1704.56 1686.02 1696.07 1690.29 1687.87C1693.06 1682.51 1695.94 1676.96 1698.69 1671.49C1730.18 1609.08 1753.09 1540.73 1763.22 1479.03C1763.51 1477.18 1764.52 1475.52 1766.03 1474.41C1767.54 1473.3 1769.42 1472.82 1771.28 1473.08C1773.13 1473.34 1774.81 1474.32 1775.95 1475.81C1777.09 1477.3 1777.6 1479.17 1777.37 1481.03C1774.98 1501.67 1774.72 1524.01 1774.54 1545.62C1774.41 1561.1 1774.27 1577.03 1773.35 1592.2C1771.53 1620.78 1766.86 1663.11 1747.4 1699.81C1735.69 1721.9 1719.27 1740.21 1699.91 1752.76C1694.29 1755.98 1688.38 1758.65 1682.26 1760.75C1676.72 1762.68 1671.96 1763.99 1668.09 1763.99ZM1760.16 1555.27C1747.59 1597.51 1731.29 1638.55 1711.46 1677.91C1708.66 1683.45 1705.77 1689.03 1702.97 1694.43C1698.75 1702.55 1694.39 1710.94 1690.35 1719.28C1687.12 1725.94 1684.39 1731.91 1682.01 1737.55C1681.18 1739.53 1679.45 1743.31 1677.66 1747.17C1682.65 1745.47 1687.47 1743.33 1692.06 1740.76C1709.39 1729.52 1724.13 1713.04 1734.7 1693.13C1752.87 1658.87 1757.33 1618.61 1759.02 1591.31C1759.79 1579.64 1760.03 1567.39 1760.16 1555.25V1555.27Z"
		fill="#3A3A3A" />
	<path
		d="M1698.16 1786.09C1696.41 1786.09 1694.73 1785.46 1693.42 1784.3C1692.12 1783.15 1691.28 1781.55 1691.07 1779.82C1690.85 1778.09 1691.28 1776.35 1692.26 1774.91C1693.25 1773.47 1694.73 1772.44 1696.42 1772.02C1757.15 1756.68 1794.23 1700.47 1799.42 1652.87C1800.94 1638.94 1800.13 1625.06 1799.28 1610.34C1798.66 1599.86 1798.09 1589.02 1798.32 1578.19C1798.69 1565.09 1800.42 1552.1 1802.1 1539.51C1803.69 1527.51 1805.34 1515.1 1805.67 1502.98C1807.19 1454.93 1789.46 1408.91 1771.91 1370.22C1771.12 1368.5 1771.05 1366.53 1771.71 1364.75C1772.38 1362.97 1773.72 1361.53 1775.44 1360.74C1777.17 1359.95 1779.14 1359.88 1780.92 1360.54C1782.7 1361.2 1784.14 1362.54 1784.93 1364.27C1803.16 1404.44 1821.57 1452.38 1819.96 1503.37C1819.55 1516.21 1817.85 1528.99 1816.21 1541.33C1814.57 1553.68 1812.91 1566.2 1812.57 1578.53C1812.28 1588.71 1812.9 1599.24 1813.49 1609.42C1814.34 1624.08 1815.23 1639.19 1813.58 1654.34C1810.58 1681.88 1798.67 1709.92 1780.06 1733.31C1759.04 1759.71 1731.32 1777.85 1699.87 1785.78C1699.32 1785.96 1698.74 1786.06 1698.16 1786.09Z"
		fill="#3A3A3A" />
	<path
		d="M1384.54 1026.68C1383.24 1026.68 1381.96 1026.34 1380.84 1025.67C1379.73 1025 1378.81 1024.05 1378.2 1022.9C1377.59 1021.75 1377.3 1020.46 1377.37 1019.16C1377.43 1017.86 1377.85 1016.61 1378.58 1015.53C1386.74 1003.47 1394.04 990.847 1400.43 977.761C1400.84 976.918 1401.42 976.163 1402.12 975.541C1402.82 974.919 1403.64 974.442 1404.53 974.136C1405.42 973.83 1406.36 973.702 1407.29 973.759C1408.23 973.816 1409.15 974.058 1409.99 974.469C1410.83 974.88 1411.59 975.453 1412.21 976.156C1412.83 976.859 1413.31 977.677 1413.61 978.565C1413.92 979.452 1414.05 980.391 1413.99 981.328C1413.93 982.265 1413.69 983.181 1413.28 984.025C1406.6 997.715 1398.96 1010.92 1390.42 1023.53C1389.77 1024.5 1388.89 1025.29 1387.87 1025.83C1386.84 1026.38 1385.7 1026.67 1384.54 1026.68Z"
		fill="#3A3A3A" />
	<path
		d="M1473.8 1002.99H1473.56C1467.17 1002.74 1460.91 1001.19 1455.14 998.447C1449.37 995.705 1444.22 991.823 1439.99 987.036C1436.69 983.03 1433.74 978.743 1431.19 974.224C1427.42 967.96 1423.84 962.042 1418.57 959.042C1415.54 957.454 1412.1 956.832 1408.7 957.257C1405.31 957.683 1402.13 959.137 1399.59 961.423C1398.22 962.734 1396.39 963.447 1394.49 963.406C1392.6 963.364 1390.79 962.572 1389.48 961.203C1388.17 959.834 1387.46 958 1387.5 956.106C1387.54 954.211 1388.34 952.41 1389.7 951.099C1394.46 946.673 1400.49 943.858 1406.94 943.056C1413.39 942.255 1419.92 943.507 1425.62 946.634C1434.14 951.469 1439.07 959.649 1443.48 966.877C1445.62 970.677 1448.07 974.29 1450.81 977.677C1453.75 980.993 1457.32 983.683 1461.32 985.584C1465.32 987.485 1469.66 988.558 1474.08 988.739C1475.98 988.771 1477.78 989.554 1479.1 990.916C1480.42 992.278 1481.14 994.108 1481.11 996.003C1481.07 997.897 1480.29 999.702 1478.93 1001.02C1477.57 1002.34 1475.74 1003.06 1473.84 1003.03L1473.8 1002.99Z"
		fill="#3A3A3A" />
	<path
		d="M1815.35 1786.09H440.353C438.459 1786.09 436.641 1785.34 435.302 1784C433.962 1782.66 433.209 1780.84 433.209 1778.95C433.209 1777.05 433.962 1775.23 435.302 1773.89C436.641 1772.55 438.459 1771.8 440.353 1771.8H1815.35C1817.24 1771.8 1819.06 1772.55 1820.4 1773.89C1821.74 1775.23 1822.49 1777.05 1822.49 1778.95C1822.49 1780.84 1821.74 1782.66 1820.4 1784C1819.06 1785.34 1817.24 1786.09 1815.35 1786.09Z"
		fill="#3A3A3A" />
	<path
		d="M642.175 1760.09C661.394 1758.75 679.636 1738.94 688.543 1721.86C697.449 1704.77 700.105 1685.19 702.093 1666.02C705.356 1634.6 707.166 1603.01 707.535 1571.42C707.618 1564.17 708.785 1555.6 707.38 1548.52C705.82 1551.65 705.713 1555.97 705.237 1559.43C704.225 1566.79 703.129 1574.11 701.772 1581.4C699.093 1595.9 695.675 1610.25 691.71 1624.44C683.744 1653.02 678.612 1678.03 667.764 1705.58C664.704 1713.36 656.464 1728.89 654.011 1736.88C648.795 1753.85 643.997 1759.97 642.175 1760.09Z"
		fill="#3A3A3A" />
	<path
		d="M642.163 1767.24C640.548 1767.24 638.981 1766.69 637.72 1765.68C636.458 1764.67 635.575 1763.26 635.216 1761.69C634.857 1760.11 635.042 1758.46 635.741 1757.01C636.441 1755.55 637.613 1754.37 639.067 1753.67C640.377 1752.05 643.557 1746.61 647.176 1734.8C648.796 1729.54 652.344 1722.04 655.774 1714.78C657.929 1710.21 659.965 1705.9 661.12 1702.97C668.86 1683.34 673.635 1664.98 678.696 1645.52C680.625 1638.12 682.625 1630.45 684.84 1622.53C688.912 1607.91 692.246 1593.63 694.747 1580.1C695.938 1573.88 696.986 1567.01 698.164 1558.47C698.26 1557.75 698.343 1556.99 698.426 1556.22C698.772 1552.97 699.2 1548.91 700.987 1545.33C701.653 1544 702.718 1542.91 704.034 1542.22C705.35 1541.52 706.851 1541.25 708.327 1541.45C709.802 1541.65 711.179 1542.3 712.265 1543.32C713.351 1544.34 714.091 1545.67 714.382 1547.13C715.573 1553.09 715.228 1559.52 714.918 1565.23C714.811 1567.46 714.704 1569.55 714.68 1571.51C714.311 1603.21 712.465 1635.25 709.203 1666.77C707.178 1686.3 704.44 1706.88 694.914 1725.11C684.626 1744.86 664.609 1765.47 643.009 1767.16H642.711H642.199L642.163 1767.24ZM698.164 1627.93C696.164 1635.19 694.318 1642.21 692.532 1649.14C687.352 1669.02 682.47 1687.8 674.421 1708.22C673.087 1711.59 670.956 1716.11 668.693 1720.9C665.621 1727.39 662.156 1734.74 660.834 1739.01C660.013 1741.71 659.191 1744.15 658.393 1746.37C668.027 1739.7 676.779 1728.97 682.208 1718.57C690.544 1702.51 693.104 1683.46 694.985 1665.31C696.271 1652.92 697.331 1640.45 698.164 1627.91V1627.93Z"
		fill="#3A3A3A" />
	<path
		d="M732.063 1650.45C730.241 1650.46 728.485 1649.76 727.157 1648.51C725.829 1647.26 725.028 1645.56 724.919 1643.74C723.002 1611.79 719.441 1552.31 698.925 1524.66C698.365 1523.91 697.959 1523.05 697.73 1522.14C697.501 1521.23 697.453 1520.29 697.59 1519.36C697.726 1518.43 698.044 1517.54 698.526 1516.73C699.007 1515.93 699.642 1515.22 700.395 1514.66C701.148 1514.11 702.004 1513.7 702.914 1513.47C703.824 1513.24 704.77 1513.19 705.698 1513.33C706.626 1513.47 707.519 1513.78 708.324 1514.27C709.129 1514.75 709.832 1515.38 710.392 1516.14C733.445 1547.17 737.172 1609.4 739.184 1642.83C739.24 1643.77 739.112 1644.71 738.805 1645.59C738.499 1646.48 738.021 1647.3 737.398 1648C736.776 1648.7 736.021 1649.28 735.177 1649.69C734.333 1650.1 733.417 1650.34 732.48 1650.39L732.063 1650.45Z"
		fill="#3A3A3A" />
	<path
		d="M638.305 1781.07C636.41 1781.14 634.567 1780.45 633.181 1779.15C631.796 1777.86 630.981 1776.07 630.916 1774.17C630.852 1772.28 631.542 1770.44 632.836 1769.05C634.13 1767.67 635.922 1766.85 637.817 1766.79C639.543 1766.67 641.389 1766.56 643.449 1766.46C661.906 1765.5 689.805 1764.08 719.848 1739.08C735.518 1726.06 752.486 1713.7 772.241 1717.71C773.16 1717.9 774.034 1718.27 774.812 1718.79C775.59 1719.32 776.257 1719.99 776.775 1720.77C777.293 1721.55 777.652 1722.43 777.831 1723.35C778.01 1724.27 778.006 1725.22 777.819 1726.14C777.632 1727.06 777.266 1727.93 776.742 1728.71C776.217 1729.49 775.545 1730.16 774.762 1730.67C773.98 1731.19 773.103 1731.55 772.182 1731.73C771.261 1731.91 770.314 1731.9 769.395 1731.72C755.796 1728.94 742.007 1739.27 728.909 1750.07C695.211 1778.04 663.239 1779.69 644.128 1780.68C642.199 1780.78 640.401 1780.87 638.745 1780.99L638.305 1781.07Z"
		fill="#3A3A3A" />
	<path
		d="M1333.62 1746.13H777.324C775.633 1746.13 773.995 1745.53 772.702 1744.44C771.409 1743.35 770.545 1741.84 770.263 1740.17L683.457 1203.14C682.771 1198.9 683.014 1194.57 684.168 1190.43C685.322 1186.3 687.361 1182.46 690.143 1179.19C692.925 1175.92 696.384 1173.29 700.282 1171.49C704.179 1169.69 708.421 1168.76 712.714 1168.75H1353.11C1357.21 1168.75 1361.26 1169.6 1365.01 1171.24C1368.76 1172.87 1372.13 1175.27 1374.91 1178.28C1377.69 1181.29 1379.81 1184.84 1381.15 1188.71C1382.49 1192.58 1383.02 1196.68 1382.69 1200.76L1340.75 1739.62C1340.59 1741.4 1339.77 1743.06 1338.45 1744.26C1337.13 1745.46 1335.41 1746.13 1333.62 1746.13ZM783.397 1731.84H1327.01L1368.45 1199.57C1368.61 1197.46 1368.34 1195.34 1367.64 1193.33C1366.95 1191.33 1365.85 1189.5 1364.41 1187.94C1362.97 1186.39 1361.22 1185.15 1359.28 1184.3C1357.34 1183.45 1355.24 1183.02 1353.12 1183.02H712.714C710.485 1183.02 708.283 1183.5 706.26 1184.44C704.237 1185.38 702.442 1186.74 701 1188.44C699.558 1190.14 698.503 1192.13 697.908 1194.28C697.313 1196.43 697.193 1198.68 697.556 1200.88L783.397 1731.84Z"
		fill="#12B79B" />
	<path
		d="M682.041 1385.79C680.651 1385.79 679.291 1385.38 678.127 1384.62C676.964 1383.86 676.048 1382.77 675.492 1381.5C674.936 1380.23 674.764 1378.82 674.996 1377.45C675.229 1376.08 675.856 1374.8 676.802 1373.78C686.707 1363.07 697.406 1353.12 708.809 1344.01C709.54 1343.41 710.385 1342.95 711.294 1342.67C712.204 1342.39 713.16 1342.3 714.106 1342.4C715.052 1342.49 715.969 1342.78 716.804 1343.23C717.639 1343.69 718.374 1344.31 718.967 1345.05C719.56 1345.79 719.999 1346.65 720.257 1347.56C720.515 1348.48 720.588 1349.44 720.472 1350.38C720.355 1351.32 720.052 1352.23 719.578 1353.06C719.105 1353.88 718.472 1354.61 717.716 1355.18C706.875 1363.83 696.704 1373.29 687.292 1383.48C686.624 1384.2 685.812 1384.78 684.909 1385.18C684.005 1385.58 683.028 1385.78 682.041 1385.79Z"
		fill="#3A3A3A" />
	<path
		d="M782.219 1738.98H1325.62C1332.77 1738.98 1339.63 1741.83 1344.69 1746.88C1349.75 1751.94 1352.59 1758.8 1352.59 1765.95H755.248C755.248 1758.8 758.09 1751.94 763.148 1746.88C768.205 1741.83 775.066 1738.98 782.219 1738.98Z"
		fill="#12B79B" />
	<path
		d="M1352.59 1773.12H755.248C753.353 1773.12 751.536 1772.37 750.196 1771.03C748.856 1769.69 748.104 1767.87 748.104 1765.98C748.107 1756.93 751.701 1748.25 758.098 1741.85C764.494 1735.45 773.169 1731.85 782.219 1731.84H1325.62C1334.66 1731.85 1343.33 1735.45 1349.73 1741.85C1356.12 1748.24 1359.72 1756.91 1359.73 1765.95C1359.74 1766.9 1359.55 1767.83 1359.2 1768.7C1358.84 1769.57 1358.31 1770.36 1357.65 1771.02C1356.99 1771.69 1356.2 1772.22 1355.33 1772.58C1354.46 1772.94 1353.53 1773.12 1352.59 1773.12ZM763.726 1758.83H1344.11C1342.66 1755.1 1340.12 1751.9 1336.82 1749.63C1333.53 1747.37 1329.62 1746.16 1325.62 1746.15H782.219C778.217 1746.15 774.309 1747.37 771.009 1749.63C767.709 1751.89 765.17 1755.1 763.726 1758.83Z"
		fill="#12B79B" />
	<path
		d="M1031.73 1495.07C1025.67 1495.07 1019.75 1493.27 1014.71 1489.91C1009.67 1486.54 1005.74 1481.75 1003.42 1476.16C1001.1 1470.56 1000.5 1464.4 1001.68 1458.45C1002.86 1452.51 1005.78 1447.05 1010.06 1442.77C1014.35 1438.48 1019.81 1435.56 1025.75 1434.38C1031.69 1433.2 1037.86 1433.81 1043.45 1436.13C1049.05 1438.44 1053.84 1442.37 1057.2 1447.41C1060.57 1452.45 1062.37 1458.37 1062.37 1464.43C1062.36 1472.55 1059.13 1480.34 1053.38 1486.09C1047.64 1491.83 1039.85 1495.06 1031.73 1495.07ZM1031.73 1448.08C1028.5 1448.08 1025.33 1449.04 1022.65 1450.84C1019.96 1452.63 1017.86 1455.19 1016.62 1458.17C1015.39 1461.16 1015.06 1464.45 1015.69 1467.62C1016.32 1470.79 1017.88 1473.71 1020.17 1475.99C1022.45 1478.28 1025.37 1479.84 1028.54 1480.47C1031.71 1481.1 1035 1480.77 1037.99 1479.54C1040.97 1478.3 1043.53 1476.2 1045.32 1473.51C1047.12 1470.83 1048.08 1467.66 1048.08 1464.43C1048.07 1460.1 1046.35 1455.94 1043.28 1452.88C1040.22 1449.81 1036.06 1448.09 1031.73 1448.08Z"
		fill="#12B79B" />
	<path
		d="M1045.4 1452.48C1044.06 1452.48 1042.75 1452.1 1041.62 1451.39C1040.49 1450.68 1039.58 1449.67 1038.99 1448.47C1038.4 1447.27 1038.17 1445.93 1038.3 1444.6C1038.44 1443.27 1038.95 1442.01 1039.77 1440.95L1054.06 1422.59C1055.23 1421.13 1056.94 1420.2 1058.8 1419.98C1060.66 1419.77 1062.53 1420.3 1064.01 1421.45C1065.48 1422.6 1066.45 1424.29 1066.69 1426.14C1066.94 1428 1066.45 1429.88 1065.32 1431.38L1051.03 1449.73C1050.36 1450.58 1049.51 1451.28 1048.53 1451.75C1047.56 1452.23 1046.48 1452.48 1045.4 1452.48Z"
		fill="#12B79B" />
	<path
		d="M754.569 345.027H388.806C380.914 345.027 374.517 351.425 374.517 359.316V606.147C374.517 614.039 380.914 620.436 388.806 620.436H754.569C762.46 620.436 768.858 614.039 768.858 606.147V359.316C768.858 351.425 762.46 345.027 754.569 345.027Z"
		fill="#12B79B" />
	<path
		d="M754.557 627.581H388.83C383.145 627.581 377.694 625.323 373.674 621.303C369.655 617.283 367.396 611.832 367.396 606.147V359.316C367.396 353.632 369.655 348.18 373.674 344.161C377.694 340.141 383.145 337.883 388.83 337.883H754.557C760.242 337.883 765.694 340.141 769.713 344.161C773.733 348.18 775.991 353.632 775.991 359.316V606.147C775.991 611.832 773.733 617.283 769.713 621.303C765.694 625.323 760.242 627.581 754.557 627.581ZM388.83 352.172C386.935 352.172 385.118 352.925 383.778 354.264C382.438 355.604 381.686 357.421 381.686 359.316V606.147C381.686 608.042 382.438 609.859 383.778 611.199C385.118 612.539 386.935 613.292 388.83 613.292H754.557C756.452 613.292 758.27 612.539 759.609 611.199C760.949 609.859 761.702 608.042 761.702 606.147V359.316C761.702 357.421 760.949 355.604 759.609 354.264C758.27 352.925 756.452 352.172 754.557 352.172H388.83Z"
		fill="#12B79B" />
	<path
		d="M494.284 569.859H454.774C452.88 569.859 451.062 569.106 449.722 567.766C448.383 566.426 447.63 564.609 447.63 562.714V419.824C447.63 417.929 448.383 416.112 449.722 414.772C451.062 413.432 452.88 412.68 454.774 412.68H494.284C496.178 412.68 497.996 413.432 499.335 414.772C500.675 416.112 501.428 417.929 501.428 419.824V562.714C501.428 564.609 500.675 566.426 499.335 567.766C497.996 569.106 496.178 569.859 494.284 569.859ZM461.919 555.57H487.139V426.969H461.919V555.57Z"
		fill="white" />
	<path
		d="M590.246 588.216H550.772C548.878 588.216 547.06 587.463 545.721 586.123C544.381 584.784 543.628 582.966 543.628 581.072V393.719C543.628 391.824 544.381 390.007 545.721 388.667C547.06 387.327 548.878 386.574 550.772 386.574H590.282C592.176 386.574 593.994 387.327 595.334 388.667C596.673 390.007 597.426 391.824 597.426 393.719V581.072C597.426 582.013 597.24 582.945 596.879 583.814C596.518 584.683 595.988 585.472 595.321 586.136C594.654 586.8 593.862 587.326 592.991 587.683C592.12 588.039 591.187 588.221 590.246 588.216ZM557.881 573.927H583.101V400.863H557.917L557.881 573.927Z"
		fill="white" />
	<path
		d="M677.682 529.692H638.161C636.266 529.692 634.449 528.939 633.109 527.599C631.769 526.259 631.017 524.442 631.017 522.547V403.996C631.017 402.101 631.769 400.284 633.109 398.944C634.449 397.604 636.266 396.852 638.161 396.852H677.682C679.577 396.852 681.394 397.604 682.734 398.944C684.074 400.284 684.827 402.101 684.827 403.996V522.547C684.827 524.442 684.074 526.259 682.734 527.599C681.394 528.939 679.577 529.692 677.682 529.692ZM645.306 515.403H670.538V411.141H645.306V515.403Z"
		fill="white" />
	<path
		d="M1290.44 345.562C1295.98 345.563 1301.28 347.76 1305.2 351.673C1309.11 355.585 1311.31 360.892 1311.31 366.424V481.046H1269.63V366.424C1269.63 360.9 1271.82 355.601 1275.72 351.69C1279.63 347.779 1284.92 345.575 1290.44 345.562Z"
		fill="#12B79B" />
	<path
		d="M1311.31 488.196H1269.63C1267.74 488.196 1265.92 487.443 1264.58 486.104C1263.24 484.764 1262.49 482.946 1262.49 481.052V366.43C1262.78 359.208 1265.86 352.381 1271.08 347.377C1276.29 342.373 1283.24 339.578 1290.47 339.578C1297.7 339.578 1304.64 342.373 1309.86 347.377C1315.07 352.381 1318.15 359.208 1318.45 366.43V481.052C1318.45 482.946 1317.7 484.764 1316.36 486.104C1315.02 487.443 1313.2 488.196 1311.31 488.196ZM1276.77 473.907H1304.16V366.43C1303.96 362.938 1302.42 359.656 1299.88 357.257C1297.33 354.857 1293.97 353.52 1290.47 353.52C1286.97 353.52 1283.6 354.857 1281.06 357.257C1278.51 359.656 1276.98 362.938 1276.77 366.43V473.907Z"
		fill="#12B79B" />
	<path
		d="M1371.68 304.281C1377.21 304.281 1382.52 306.479 1386.43 310.392C1390.34 314.304 1392.54 319.61 1392.54 325.143V481.048H1350.86V325.143C1350.86 319.619 1353.05 314.319 1356.96 310.408C1360.86 306.497 1366.15 304.294 1371.68 304.281Z"
		fill="#12B79B" />
	<path
		d="M1392.54 488.195H1350.86C1348.97 488.195 1347.15 487.442 1345.81 486.103C1344.47 484.763 1343.72 482.946 1343.72 481.051V325.146C1343.56 321.374 1344.17 317.609 1345.51 314.079C1346.84 310.548 1348.88 307.324 1351.49 304.6C1354.11 301.876 1357.24 299.709 1360.72 298.228C1364.19 296.748 1367.93 295.984 1371.7 295.984C1375.48 295.984 1379.21 296.748 1382.68 298.228C1386.16 299.709 1389.29 301.876 1391.91 304.6C1394.52 307.324 1396.56 310.548 1397.89 314.079C1399.23 317.609 1399.84 321.374 1399.68 325.146V481.051C1399.68 482.946 1398.93 484.763 1397.59 486.103C1396.25 487.442 1394.43 488.195 1392.54 488.195ZM1358.01 473.906H1385.39V325.146C1385.5 323.279 1385.23 321.41 1384.59 319.653C1383.96 317.896 1382.96 316.288 1381.68 314.928C1380.4 313.568 1378.85 312.484 1377.14 311.743C1375.42 311.002 1373.57 310.62 1371.7 310.62C1369.83 310.62 1367.98 311.002 1366.27 311.743C1364.55 312.484 1363 313.568 1361.72 314.928C1360.44 316.288 1359.45 317.896 1358.81 319.653C1358.17 321.41 1357.9 323.279 1358.01 325.146V473.906Z"
		fill="#12B79B" />
	<path
		d="M1452.92 247.664C1458.45 247.664 1463.76 249.862 1467.67 253.775C1471.58 257.687 1473.78 262.993 1473.78 268.526V481.052H1432.11V268.514C1432.11 262.981 1434.3 257.675 1438.22 253.763C1442.13 249.85 1447.44 247.652 1452.97 247.652L1452.92 247.664Z"
		fill="#12B79B" />
	<path
		d="M1473.77 488.194H1432.09C1430.2 488.194 1428.38 487.441 1427.04 486.101C1425.7 484.761 1424.95 482.944 1424.95 481.049V268.512C1425.25 261.29 1428.33 254.463 1433.54 249.459C1438.76 244.455 1445.7 241.66 1452.93 241.66C1460.16 241.66 1467.11 244.455 1472.32 249.459C1477.54 254.463 1480.62 261.29 1480.92 268.512V481.049C1480.92 482.944 1480.16 484.761 1478.82 486.101C1477.48 487.441 1475.67 488.194 1473.77 488.194ZM1439.24 473.905H1466.63V268.512C1466.42 265.02 1464.89 261.738 1462.34 259.339C1459.8 256.939 1456.43 255.602 1452.93 255.602C1449.43 255.602 1446.07 256.939 1443.52 259.339C1440.98 261.738 1439.45 265.02 1439.24 268.512V473.905Z"
		fill="#12B79B" />
	<path
		d="M735.172 494.543H405.811C403.916 494.543 402.098 493.79 400.759 492.45C399.419 491.11 398.666 489.293 398.666 487.398C398.666 485.504 399.419 483.686 400.759 482.346C402.098 481.007 403.916 480.254 405.811 480.254H735.172C737.067 480.254 738.884 481.007 740.224 482.346C741.564 483.686 742.317 485.504 742.317 487.398C742.317 489.293 741.564 491.11 740.224 492.45C738.884 493.79 737.067 494.543 735.172 494.543Z"
		fill="white" />
	<path
		d="M405.811 601.994C403.916 601.994 402.098 601.242 400.759 599.902C399.419 598.562 398.666 596.745 398.666 594.85V374.668C398.666 372.773 399.419 370.956 400.759 369.616C402.098 368.276 403.916 367.523 405.811 367.523C407.705 367.523 409.523 368.276 410.862 369.616C412.202 370.956 412.955 372.773 412.955 374.668V594.85C412.955 596.745 412.202 598.562 410.862 599.902C409.523 601.242 407.705 601.994 405.811 601.994Z"
		fill="white" />
	<path
		d="M791.221 407.425C789.666 407.427 788.153 406.922 786.912 405.987C785.67 405.052 784.767 403.737 784.34 402.242C783.913 400.747 783.985 399.154 784.546 397.704C785.107 396.254 786.125 395.026 787.446 394.207C791.136 391.909 794.33 388.897 796.841 385.348C797.941 383.821 799.599 382.79 801.455 382.478C803.311 382.166 805.215 382.599 806.753 383.682C808.292 384.766 809.341 386.413 809.672 388.266C810.003 390.118 809.59 392.027 808.523 393.576C804.903 398.697 800.296 403.041 794.972 406.353C793.847 407.055 792.547 407.426 791.221 407.425Z"
		fill="#12B79B" />
	<path
		d="M821.37 374.169C820.044 374.17 818.745 373.799 817.619 373.097C816.816 372.609 816.117 371.967 815.562 371.207C815.008 370.448 814.608 369.587 814.387 368.674C814.166 367.76 814.127 366.811 814.273 365.883C814.419 364.954 814.747 364.063 815.238 363.261C818.522 357.947 822.785 353.304 827.8 349.58C828.549 348.979 829.412 348.535 830.336 348.275C831.26 348.015 832.227 347.944 833.179 348.066C834.132 348.188 835.049 348.5 835.878 348.985C836.707 349.47 837.43 350.116 838.003 350.887C838.576 351.657 838.988 352.535 839.215 353.468C839.441 354.401 839.477 355.37 839.32 356.317C839.164 357.264 838.818 358.17 838.304 358.981C837.789 359.791 837.117 360.49 836.326 361.035C832.772 363.701 829.744 367.004 827.396 370.775C826.761 371.805 825.875 372.656 824.821 373.249C823.767 373.843 822.58 374.159 821.37 374.169Z"
		fill="#12B79B" />
	<path
		d="M852.032 343.423C850.663 343.425 849.322 343.033 848.17 342.294C847.017 341.556 846.1 340.502 845.529 339.257C844.959 338.013 844.757 336.63 844.95 335.275C845.142 333.919 845.72 332.647 846.615 331.611C849.587 328.178 853.281 325.444 857.433 323.606C861.585 321.768 866.092 320.87 870.632 320.977C872.527 321.003 874.334 321.78 875.656 323.137C876.978 324.495 877.706 326.322 877.681 328.217C877.656 330.112 876.879 331.919 875.521 333.241C874.164 334.563 872.336 335.292 870.441 335.266H870.251C867.834 335.227 865.437 335.713 863.227 336.692C861.017 337.67 859.045 339.118 857.45 340.934C856.78 341.715 855.948 342.341 855.013 342.771C854.078 343.2 853.061 343.423 852.032 343.423Z"
		fill="#12B79B" />
	<path
		d="M916.5 335.207C915.07 335.222 913.668 334.807 912.476 334.016C908.586 331.392 904.061 329.866 899.377 329.599C898.439 329.552 897.519 329.321 896.67 328.918C895.822 328.516 895.06 327.95 894.43 327.254C893.8 326.557 893.313 325.743 892.997 324.858C892.681 323.974 892.543 323.035 892.59 322.097C892.637 321.159 892.868 320.239 893.271 319.39C893.673 318.541 894.239 317.78 894.935 317.15C895.632 316.519 896.446 316.033 897.33 315.717C898.215 315.401 899.153 315.263 900.092 315.31C907.422 315.677 914.508 318.059 920.573 322.192C921.857 323.044 922.832 324.289 923.351 325.74C923.87 327.191 923.906 328.772 923.453 330.245C923.001 331.718 922.084 333.006 920.839 333.915C919.594 334.824 918.089 335.307 916.548 335.291L916.5 335.207Z"
		fill="#12B79B" />
	<path
		d="M951.568 365.752C950.254 365.753 948.965 365.391 947.843 364.706C946.721 364.021 945.81 363.04 945.21 361.871C942.66 356.947 938.712 352.888 933.862 350.201C932.202 349.285 930.974 347.748 930.449 345.927C929.923 344.106 930.142 342.15 931.058 340.491C931.973 338.831 933.511 337.603 935.332 337.077C937.153 336.552 939.109 336.771 940.768 337.686C948.091 341.76 954.054 347.897 957.915 355.333C958.476 356.422 958.749 357.637 958.705 358.862C958.662 360.086 958.304 361.278 957.667 362.325C957.029 363.371 956.134 364.236 955.066 364.836C953.998 365.436 952.793 365.752 951.568 365.752Z"
		fill="#12B79B" />
	<path
		d="M983.194 400.818C982.616 400.82 982.041 400.752 981.479 400.615C977.402 399.592 973.604 397.672 970.364 394.994C967.123 392.315 964.521 388.947 962.749 385.135C962.039 383.427 962.02 381.51 962.695 379.788C963.37 378.065 964.686 376.672 966.368 375.901C968.049 375.129 969.964 375.04 971.71 375.652C973.456 376.264 974.896 377.529 975.728 379.182C976.606 381.04 977.883 382.682 979.468 383.991C981.053 385.3 982.906 386.244 984.897 386.755C986.585 387.178 988.061 388.203 989.047 389.637C990.033 391.071 990.462 392.815 990.253 394.543C990.044 396.271 989.211 397.863 987.912 399.021C986.612 400.178 984.935 400.821 983.194 400.83V400.818Z"
		fill="#12B79B" />
	<path
		d="M1017.75 397.28C1016.3 397.285 1014.88 396.847 1013.68 396.026C1012.49 395.204 1011.57 394.038 1011.05 392.681C1010.53 391.325 1010.44 389.843 1010.79 388.433C1011.13 387.023 1011.9 385.752 1012.99 384.789C1015.9 382.237 1018.22 379.074 1019.77 375.525C1020.59 373.901 1022 372.651 1023.71 372.03C1025.42 371.409 1027.31 371.465 1028.98 372.185C1030.65 372.905 1031.98 374.235 1032.71 375.905C1033.43 377.575 1033.49 379.457 1032.87 381.169C1030.49 386.641 1026.93 391.52 1022.44 395.458C1021.15 396.614 1019.48 397.262 1017.75 397.28Z"
		fill="#12B79B" />
	<path
		d="M1041.08 358.412C1040.11 358.414 1039.16 358.216 1038.28 357.828C1036.54 357.084 1035.16 355.678 1034.46 353.921C1033.75 352.164 1033.77 350.199 1034.52 348.457L1042.11 330.715C1042.44 329.793 1042.95 328.948 1043.62 328.231C1044.28 327.515 1045.09 326.944 1045.99 326.552C1046.88 326.16 1047.85 325.956 1048.83 325.953C1049.8 325.95 1050.77 326.148 1051.67 326.534C1052.57 326.921 1053.38 327.487 1054.05 328.199C1054.72 328.911 1055.24 329.753 1055.57 330.673C1055.9 331.593 1056.04 332.571 1055.98 333.547C1055.92 334.523 1055.66 335.476 1055.21 336.347L1047.65 354.137C1047.09 355.412 1046.17 356.497 1045 357.256C1043.83 358.016 1042.47 358.417 1041.08 358.412Z"
		fill="#12B79B" />
	<path d="M1072.11 273.371L1044.51 305.057L1074.57 315.309L1072.11 273.371Z" fill="#12B79B" />
	<path
		d="M1074.57 322.457C1073.79 322.46 1073.01 322.331 1072.27 322.076L1042.2 311.811C1041.09 311.432 1040.09 310.786 1039.29 309.93C1038.49 309.074 1037.91 308.034 1037.61 306.902C1037.3 305.77 1037.28 304.581 1037.55 303.44C1037.81 302.298 1038.35 301.239 1039.12 300.356L1066.71 268.682C1067.65 267.609 1068.88 266.839 1070.25 266.469C1071.62 266.099 1073.07 266.147 1074.41 266.606C1075.76 267.064 1076.94 267.914 1077.8 269.045C1078.66 270.177 1079.16 271.539 1079.24 272.957L1081.72 314.848C1081.77 315.82 1081.63 316.794 1081.3 317.71C1080.96 318.625 1080.45 319.463 1079.78 320.171C1079.11 320.879 1078.3 321.443 1077.41 321.828C1076.51 322.213 1075.55 322.411 1074.57 322.409V322.457ZM1056.84 301.749L1066.78 305.143L1065.96 291.283L1056.84 301.749Z"
		fill="#12B79B" />
	<path
		d="M1238.8 380.75H1149.89C1147.99 380.75 1146.17 379.997 1144.83 378.657C1143.49 377.318 1142.74 375.5 1142.74 373.605C1142.74 371.711 1143.49 369.893 1144.83 368.554C1146.17 367.214 1147.99 366.461 1149.89 366.461H1238.8C1240.69 366.461 1242.51 367.214 1243.85 368.554C1245.19 369.893 1245.94 371.711 1245.94 373.605C1245.94 375.5 1245.19 377.318 1243.85 378.657C1242.51 379.997 1240.69 380.75 1238.8 380.75Z"
		fill="#3A3A3A" />
	<path
		d="M1550.18 380.75H1500.24C1498.35 380.75 1496.53 379.997 1495.19 378.657C1493.85 377.318 1493.1 375.5 1493.1 373.605C1493.1 371.711 1493.85 369.893 1495.19 368.554C1496.53 367.214 1498.35 366.461 1500.24 366.461H1550.18C1552.08 366.461 1553.89 367.214 1555.23 368.554C1556.57 369.893 1557.33 371.711 1557.33 373.605C1557.33 375.5 1556.57 377.318 1555.23 378.657C1553.89 379.997 1552.08 380.75 1550.18 380.75Z"
		fill="#3A3A3A" />
	<path
		d="M1550.18 443.931C1548.29 443.931 1546.47 443.178 1545.13 441.839C1543.79 440.499 1543.04 438.682 1543.04 436.787V373.605C1543.04 371.711 1543.79 369.893 1545.13 368.554C1546.47 367.214 1548.29 366.461 1550.18 366.461C1552.08 366.461 1553.89 367.214 1555.23 368.554C1556.57 369.893 1557.33 371.711 1557.33 373.605V436.787C1557.33 438.682 1556.57 440.499 1555.23 441.839C1553.89 443.178 1552.08 443.931 1550.18 443.931Z"
		fill="#3A3A3A" />
	<path
		d="M1845.29 733.216H1500.24C1498.35 733.216 1496.53 732.463 1495.19 731.124C1493.85 729.784 1493.1 727.966 1493.1 726.072V481.551C1493.1 479.656 1493.85 477.839 1495.19 476.499C1496.53 475.159 1498.35 474.406 1500.24 474.406H1845.29C1847.18 474.406 1849 475.159 1850.34 476.499C1851.68 477.839 1852.43 479.656 1852.43 481.551V726.072C1852.43 727.966 1851.68 729.784 1850.34 731.124C1849 732.463 1847.18 733.216 1845.29 733.216ZM1507.39 718.927H1838.14V488.695H1507.39V718.927Z"
		fill="#12B79B" />
	<path
		d="M1527.07 531.32V695.644H1793.43C1793.05 687.642 1792.59 672.936 1788.5 665.78C1784.4 658.624 1775.58 652.86 1766.53 654.206C1761.62 654.908 1756.24 657.469 1752.12 655.051C1749.74 653.646 1748.79 651.027 1748.07 648.609C1739.64 620.258 1739.94 590.06 1728.28 562.601C1724.71 554.338 1719.02 545.538 1709.23 543.466C1700.95 541.716 1692.45 545.395 1685.61 549.825C1660.24 566.209 1646.86 592.692 1630.06 616.018C1623.6 624.985 1612.43 634.761 1601.28 630.605C1592.94 627.509 1588.31 617.352 1579.27 617.793C1574.44 618.031 1570.67 621.425 1567.59 624.675C1548.4 644.615 1534.49 669.023 1527.1 695.692L1527.07 531.32Z"
		fill="#12B79B" />
	<path
		d="M1527.08 702.777C1526.76 702.777 1526.44 702.753 1526.12 702.705C1524.66 702.509 1523.31 701.87 1522.23 700.875C1521.15 699.88 1520.4 698.578 1520.09 697.144C1519.97 696.597 1519.91 696.038 1519.92 695.477V531.32C1519.92 529.425 1520.68 527.608 1522.02 526.268C1523.36 524.929 1525.17 524.176 1527.07 524.176C1528.96 524.176 1530.78 524.929 1532.12 526.268C1533.46 527.608 1534.21 529.425 1534.21 531.32V658.528C1541.83 644.375 1551.31 631.307 1562.4 619.674C1566.48 615.387 1571.64 610.946 1578.91 610.589C1587.07 610.196 1592.56 615.03 1596.95 618.924C1599.34 621.02 1601.55 623.008 1603.75 623.83C1610.64 626.378 1619.09 618.924 1624.26 611.756C1628.01 606.552 1631.69 601.039 1635.24 595.692C1647.85 576.759 1660.89 557.195 1681.68 543.74C1692.11 537 1701.92 534.535 1710.66 536.393C1721.05 538.596 1729.19 546.443 1734.83 559.72C1741.92 576.39 1744.79 593.966 1747.55 610.922C1749.48 622.746 1751.48 634.975 1754.9 646.478C1755.08 647.31 1755.38 648.112 1755.79 648.859C1757.48 648.818 1759.16 648.55 1760.78 648.062C1762.28 647.704 1763.84 647.323 1765.54 647.097C1776.69 645.513 1788.69 651.717 1794.7 662.22C1799.08 669.852 1799.98 682.081 1800.51 693.965V695.311C1800.56 696.277 1800.41 697.242 1800.07 698.147C1799.73 699.053 1799.21 699.88 1798.54 700.579C1797.87 701.279 1797.07 701.835 1796.18 702.215C1795.29 702.594 1794.34 702.79 1793.37 702.789H1527.08V702.777ZM1536.7 688.488H1785.9C1785.46 681.724 1784.55 673.234 1782.33 669.317C1779.71 664.744 1773.65 660.362 1767.59 661.219C1766.59 661.362 1765.42 661.648 1764.18 661.946C1759.9 662.97 1754.04 664.327 1748.55 661.148C1743.54 658.207 1742 653.051 1741.26 650.574C1737.59 638.214 1735.52 625.568 1733.52 613.256C1730.77 596.383 1728.16 580.439 1721.75 565.328C1718.04 556.6 1713.34 551.575 1707.78 550.396C1702.8 549.336 1696.66 551.146 1689.51 555.766C1671.17 567.602 1659.52 585.107 1647.17 603.635C1643.6 609.076 1639.79 614.709 1635.88 620.138C1624.89 635.392 1611.03 641.786 1598.81 637.238C1594.05 635.487 1590.6 632.379 1587.5 629.629C1584.09 626.604 1581.88 624.735 1579.64 624.866C1577.4 624.997 1574.88 627.247 1572.78 629.533C1556.64 646.348 1544.34 666.461 1536.71 688.488H1536.7Z"
		fill="#12B79B" />
	<path
		d="M1581.74 696.741C1579.84 696.741 1578.02 695.988 1576.68 694.649C1575.34 693.309 1574.59 691.492 1574.59 689.597V679.309C1574.59 677.414 1575.34 675.597 1576.68 674.257C1578.02 672.917 1579.84 672.164 1581.74 672.164C1583.63 672.164 1585.45 672.917 1586.79 674.257C1588.13 675.597 1588.88 677.414 1588.88 679.309V689.597C1588.88 691.492 1588.13 693.309 1586.79 694.649C1585.45 695.988 1583.63 696.741 1581.74 696.741Z"
		fill="#3A3A3A" />
	<path
		d="M1660.25 696.741C1658.36 696.741 1656.54 695.988 1655.2 694.649C1653.86 693.309 1653.11 691.492 1653.11 689.597V679.309C1653.11 677.414 1653.86 675.597 1655.2 674.257C1656.54 672.917 1658.36 672.164 1660.25 672.164C1662.15 672.164 1663.97 672.917 1665.31 674.257C1666.65 675.597 1667.4 677.414 1667.4 679.309V689.597C1667.4 691.492 1666.65 693.309 1665.31 694.649C1663.97 695.988 1662.15 696.741 1660.25 696.741Z"
		fill="#3A3A3A" />
	<path
		d="M1737.19 696.741C1735.29 696.741 1733.48 695.988 1732.14 694.649C1730.8 693.309 1730.04 691.492 1730.04 689.597V679.309C1730.04 677.414 1730.8 675.597 1732.14 674.257C1733.48 672.917 1735.29 672.164 1737.19 672.164C1739.08 672.164 1740.9 672.917 1742.24 674.257C1743.58 675.597 1744.33 677.414 1744.33 679.309V689.597C1744.33 691.492 1743.58 693.309 1742.24 694.649C1740.9 695.988 1739.08 696.741 1737.19 696.741Z"
		fill="#3A3A3A" />
	<path
		d="M947.699 841.764C950.125 841.764 952.092 839.797 952.092 837.37C952.092 834.944 950.125 832.977 947.699 832.977C945.272 832.977 943.305 834.944 943.305 837.37C943.305 839.797 945.272 841.764 947.699 841.764Z"
		fill="#3A3A3A" />
	<path
		d="M947.698 848.909C944.81 848.907 942.027 847.823 939.9 845.869C937.773 843.916 936.456 841.236 936.208 838.359C935.961 835.481 936.802 832.616 938.564 830.328C940.327 828.04 942.884 826.497 945.729 826.002C948.574 825.508 951.502 826.099 953.933 827.657C956.364 829.216 958.122 831.63 958.86 834.422C959.598 837.214 959.262 840.182 957.918 842.738C956.575 845.295 954.322 847.254 951.603 848.23C950.35 848.677 949.029 848.907 947.698 848.909ZM945.114 838.287C945.235 838.63 945.422 838.945 945.665 839.215C945.908 839.485 946.203 839.704 946.531 839.859C947.19 840.164 947.942 840.198 948.627 839.954C948.974 839.833 949.293 839.644 949.565 839.398C949.838 839.152 950.059 838.853 950.214 838.52C950.369 838.187 950.457 837.826 950.47 837.459C950.484 837.092 950.424 836.726 950.294 836.382C950.171 836.036 949.981 835.718 949.735 835.446C949.488 835.174 949.19 834.954 948.857 834.799C948.525 834.644 948.164 834.557 947.798 834.542C947.431 834.528 947.065 834.587 946.721 834.715C946.038 834.964 945.482 835.474 945.173 836.132C944.865 836.794 944.827 837.55 945.066 838.24L945.114 838.287Z"
		fill="#3A3A3A" />
	<path
		d="M1002.16 840.538C1004.59 840.538 1006.56 838.571 1006.56 836.144C1006.56 833.717 1004.59 831.75 1002.16 831.75C999.736 831.75 997.769 833.717 997.769 836.144C997.769 838.571 999.736 840.538 1002.16 840.538Z"
		fill="#3A3A3A" />
	<path
		d="M1002.16 847.682C999.275 847.681 996.492 846.596 994.365 844.643C992.238 842.689 990.921 840.009 990.673 837.132C990.426 834.255 991.267 831.389 993.029 829.101C994.792 826.814 997.348 825.27 1000.19 824.776C1003.04 824.281 1005.97 824.872 1008.4 826.431C1010.83 827.99 1012.59 830.404 1013.32 833.196C1014.06 835.988 1013.73 838.955 1012.38 841.511C1011.04 844.068 1008.79 846.028 1006.07 847.003C1004.81 847.451 1003.49 847.68 1002.16 847.682ZM999.579 837.061C999.758 837.576 1000.09 838.026 1000.52 838.354C1000.96 838.681 1001.49 838.87 1002.03 838.897C1002.58 838.924 1003.12 838.787 1003.58 838.504C1004.05 838.222 1004.42 837.806 1004.65 837.311C1004.81 836.985 1004.9 836.632 1004.91 836.271C1004.93 835.911 1004.88 835.55 1004.76 835.211C1004.63 834.871 1004.45 834.559 1004.2 834.292C1003.96 834.025 1003.67 833.809 1003.34 833.655C1002.68 833.347 1001.92 833.309 1001.23 833.548C1000.55 833.801 999.997 834.309 999.686 834.965C999.378 835.627 999.339 836.383 999.579 837.073V837.061Z"
		fill="#3A3A3A" />
	<g opacity="0.2">
		<path
			d="M1070.75 862.84C1083.44 862.84 1093.72 857.103 1093.72 850.027C1093.72 842.951 1083.44 837.215 1070.75 837.215C1058.06 837.215 1047.78 842.951 1047.78 850.027C1047.78 857.103 1058.06 862.84 1070.75 862.84Z"
			fill="#12B79B" />
		<path
			d="M1070.75 869.984C1053.58 869.984 1040.64 861.411 1040.64 850.027C1040.64 838.644 1053.58 830.07 1070.75 830.07C1087.92 830.07 1100.9 838.644 1100.9 850.027C1100.9 861.411 1087.92 869.984 1070.75 869.984ZM1070.75 844.359C1060.03 844.359 1054.92 848.908 1054.92 850.027C1054.92 851.147 1060.02 855.695 1070.75 855.695C1081.48 855.695 1086.61 851.147 1086.61 850.027C1086.61 848.908 1081.49 844.359 1070.75 844.359Z"
			fill="#12B79B" />
	</g>
</svg>